<ttFont>
    <TTGlyph name="A" xMin="42" yMin="-32" xMax="782" yMax="1440">
      <contour>
        <pt x="782" y="550" on="1"/>
        <pt x="782" y="529" on="0"/>
        <pt x="752" y="483" on="0"/>
        <pt x="734" y="472" on="1"/>
        <pt x="729" y="469" on="0"/>
        <pt x="705" y="463" on="0"/>
        <pt x="678" y="458" on="0"/>
        <pt x="653" y="453" on="0"/>
        <pt x="646" y="452" on="1"/>
        <pt x="670" y="304" on="1"/>
        <pt x="681" y="235" on="0"/>
        <pt x="692" y="96" on="0"/>
        <pt x="712" y="28" on="1"/>
        <pt x="714" y="22" on="0"/>
        <pt x="718" y="12" on="0"/>
        <pt x="718" y="4" on="1"/>
        <pt x="718" y="-9" on="0"/>
        <pt x="703" y="-23" on="0"/>
        <pt x="682" y="-30" on="0"/>
        <pt x="658" y="-32" on="0"/>
        <pt x="648" y="-32" on="1"/>
        <pt x="634" y="-32" on="1"/>
        <pt x="603" y="-32" on="0"/>
        <pt x="570" y="-22" on="0"/>
        <pt x="552" y="2" on="0"/>
        <pt x="546" y="39" on="0"/>
        <pt x="542" y="66" on="1"/>
        <pt x="518" y="249" on="0"/>
        <pt x="488" y="432" on="1"/>
        <pt x="426" y="424" on="0"/>
        <pt x="301" y="410" on="0"/>
        <pt x="238" y="404" on="1"/>
        <pt x="206" y="208" on="1"/>
        <pt x="204" y="190" on="0"/>
        <pt x="197" y="128" on="0"/>
        <pt x="188" y="63" on="0"/>
        <pt x="177" y="7" on="0"/>
        <pt x="170" y="-6" on="1"/>
        <pt x="164" y="-18" on="0"/>
        <pt x="154" y="-28" on="0"/>
        <pt x="140" y="-28" on="1"/>
        <pt x="122" y="-28" on="0"/>
        <pt x="87" y="-15" on="0"/>
        <pt x="60" y="8" on="0"/>
        <pt x="44" y="40" on="0"/>
        <pt x="44" y="60" on="1"/>
        <pt x="44" y="80" on="0"/>
        <pt x="53" y="120" on="0"/>
        <pt x="56" y="140" on="1"/>
        <pt x="67" y="206" on="0"/>
        <pt x="85" y="337" on="0"/>
        <pt x="96" y="402" on="1"/>
        <pt x="89" y="403" on="0"/>
        <pt x="71" y="408" on="0"/>
        <pt x="54" y="416" on="0"/>
        <pt x="42" y="428" on="0"/>
        <pt x="42" y="436" on="1"/>
        <pt x="42" y="446" on="0"/>
        <pt x="57" y="463" on="0"/>
        <pt x="78" y="478" on="0"/>
        <pt x="100" y="489" on="0"/>
        <pt x="108" y="492" on="1"/>
        <pt x="129" y="632" on="0"/>
        <pt x="167" y="910" on="0"/>
        <pt x="182" y="1052" on="1"/>
        <pt x="186" y="1090" on="0"/>
        <pt x="192" y="1168" on="0"/>
        <pt x="199" y="1246" on="0"/>
        <pt x="210" y="1322" on="0"/>
        <pt x="220" y="1360" on="1"/>
        <pt x="229" y="1396" on="0"/>
        <pt x="271" y="1440" on="0"/>
        <pt x="312" y="1440" on="1"/>
        <pt x="324" y="1440" on="0"/>
        <pt x="347" y="1436" on="0"/>
        <pt x="356" y="1430" on="1"/>
        <pt x="382" y="1417" on="0"/>
        <pt x="438" y="1301" on="0"/>
        <pt x="494" y="1136" on="0"/>
        <pt x="545" y="944" on="0"/>
        <pt x="587" y="764" on="0"/>
        <pt x="617" y="619" on="0"/>
        <pt x="624" y="584" on="1"/>
        <pt x="645" y="587" on="0"/>
        <pt x="687" y="592" on="0"/>
        <pt x="708" y="592" on="1"/>
        <pt x="718" y="592" on="0"/>
        <pt x="744" y="590" on="0"/>
        <pt x="767" y="581" on="0"/>
        <pt x="782" y="564" on="0"/>
      </contour>
      <contour>
        <pt x="468" y="558" on="1"/>
        <pt x="442" y="700" on="0"/>
        <pt x="381" y="979" on="0"/>
        <pt x="340" y="1118" on="1"/>
        <pt x="322" y="967" on="0"/>
        <pt x="280" y="669" on="0"/>
        <pt x="256" y="520" on="1"/>
        <pt x="310" y="528" on="0"/>
        <pt x="415" y="547" on="0"/>
      </contour>
    </TTGlyph>
    <TTGlyph name="AE" xMin="-9" yMin="-28" xMax="1187" yMax="1440">
      <contour>
        <pt x="1187" y="218" on="1"/>
        <pt x="1187" y="201" on="0"/>
        <pt x="1160" y="169" on="0"/>
        <pt x="1123" y="139" on="0"/>
        <pt x="1084" y="114" on="0"/>
        <pt x="1071" y="106" on="1"/>
        <pt x="1036" y="84" on="0"/>
        <pt x="969" y="46" on="0"/>
        <pt x="898" y="18" on="0"/>
        <pt x="823" y="2" on="0"/>
        <pt x="781" y="2" on="1"/>
        <pt x="767" y="0" on="1"/>
        <pt x="701" y="-1" on="0"/>
        <pt x="615" y="37" on="0"/>
        <pt x="564" y="102" on="0"/>
        <pt x="540" y="188" on="0"/>
        <pt x="530" y="284" on="0"/>
        <pt x="529" y="385" on="0"/>
        <pt x="527" y="432" on="1"/>
        <pt x="458" y="429" on="0"/>
        <pt x="320" y="410" on="0"/>
        <pt x="249" y="404" on="1"/>
        <pt x="181" y="208" on="1"/>
        <pt x="175" y="189" on="0"/>
        <pt x="157" y="128" on="0"/>
        <pt x="136" y="64" on="0"/>
        <pt x="115" y="7" on="0"/>
        <pt x="105" y="-6" on="1"/>
        <pt x="97" y="-17" on="0"/>
        <pt x="85" y="-28" on="0"/>
        <pt x="71" y="-28" on="1"/>
        <pt x="39" y="-28" on="0"/>
        <pt x="-9" y="11" on="0"/>
        <pt x="-9" y="44" on="1"/>
        <pt x="-9" y="51" on="0"/>
        <pt x="6" y="103" on="0"/>
        <pt x="28" y="174" on="0"/>
        <pt x="56" y="256" on="0"/>
        <pt x="82" y="331" on="0"/>
        <pt x="103" y="390" on="0"/>
        <pt x="107" y="402" on="1"/>
        <pt x="92" y="405" on="0"/>
        <pt x="59" y="418" on="0"/>
        <pt x="59" y="436" on="1"/>
        <pt x="59" y="444" on="0"/>
        <pt x="78" y="462" on="0"/>
        <pt x="103" y="478" on="0"/>
        <pt x="128" y="490" on="0"/>
        <pt x="135" y="492" on="1"/>
        <pt x="182" y="632" on="0"/>
        <pt x="271" y="910" on="0"/>
        <pt x="313" y="1052" on="1"/>
        <pt x="335" y="1128" on="0"/>
        <pt x="372" y="1286" on="0"/>
        <pt x="405" y="1360" on="1"/>
        <pt x="422" y="1395" on="0"/>
        <pt x="471" y="1440" on="0"/>
        <pt x="513" y="1440" on="1"/>
        <pt x="549" y="1440" on="0"/>
        <pt x="579" y="1408" on="0"/>
        <pt x="591" y="1376" on="1"/>
        <pt x="617" y="1385" on="0"/>
        <pt x="672" y="1390" on="0"/>
        <pt x="699" y="1390" on="1"/>
        <pt x="765" y="1390" on="0"/>
        <pt x="897" y="1388" on="0"/>
        <pt x="963" y="1388" on="1"/>
        <pt x="983" y="1388" on="0"/>
        <pt x="1022" y="1391" on="0"/>
        <pt x="1043" y="1386" on="1"/>
        <pt x="1055" y="1384" on="0"/>
        <pt x="1073" y="1375" on="0"/>
        <pt x="1073" y="1360" on="1"/>
        <pt x="1073" y="1330" on="0"/>
        <pt x="1040" y="1296" on="0"/>
        <pt x="992" y="1280" on="0"/>
        <pt x="937" y="1276" on="0"/>
        <pt x="915" y="1276" on="1"/>
        <pt x="870" y="1276" on="0"/>
        <pt x="780" y="1278" on="0"/>
        <pt x="735" y="1278" on="1"/>
        <pt x="714" y="1278" on="0"/>
        <pt x="675" y="1278" on="0"/>
        <pt x="655" y="1276" on="1"/>
        <pt x="649" y="1261" on="0"/>
        <pt x="645" y="1229" on="0"/>
        <pt x="645" y="1212" on="1"/>
        <pt x="645" y="1103" on="0"/>
        <pt x="658" y="891" on="0"/>
        <pt x="663" y="782" on="1"/>
        <pt x="725" y="787" on="0"/>
        <pt x="847" y="801" on="0"/>
        <pt x="907" y="810" on="1"/>
        <pt x="915" y="810" on="0"/>
        <pt x="930" y="812" on="0"/>
        <pt x="939" y="812" on="1"/>
        <pt x="960" y="812" on="0"/>
        <pt x="977" y="790" on="0"/>
        <pt x="977" y="770" on="1"/>
        <pt x="977" y="756" on="0"/>
        <pt x="974" y="732" on="0"/>
        <pt x="969" y="720" on="1"/>
        <pt x="961" y="700" on="0"/>
        <pt x="929" y="681" on="0"/>
        <pt x="889" y="674" on="0"/>
        <pt x="846" y="675" on="0"/>
        <pt x="829" y="674" on="1"/>
        <pt x="667" y="668" on="1"/>
        <pt x="668" y="647" on="0"/>
        <pt x="672" y="563" on="0"/>
        <pt x="677" y="459" on="0"/>
        <pt x="684" y="345" on="0"/>
        <pt x="692" y="246" on="0"/>
        <pt x="701" y="172" on="0"/>
        <pt x="707" y="160" on="1"/>
        <pt x="718" y="139" on="0"/>
        <pt x="744" y="126" on="0"/>
        <pt x="767" y="126" on="1"/>
        <pt x="805" y="126" on="0"/>
        <pt x="887" y="155" on="0"/>
        <pt x="965" y="200" on="0"/>
        <pt x="1036" y="254" on="0"/>
        <pt x="1063" y="280" on="1"/>
        <pt x="1072" y="289" on="0"/>
        <pt x="1096" y="308" on="0"/>
        <pt x="1111" y="308" on="1"/>
        <pt x="1125" y="308" on="0"/>
        <pt x="1153" y="291" on="0"/>
        <pt x="1174" y="264" on="0"/>
        <pt x="1187" y="232" on="0"/>
      </contour>
      <contour>
        <pt x="507" y="558" on="1"/>
        <pt x="507" y="606" on="1"/>
        <pt x="507" y="734" on="0"/>
        <pt x="496" y="990" on="0"/>
        <pt x="481" y="1118" on="1"/>
        <pt x="436" y="967" on="0"/>
        <pt x="339" y="669" on="0"/>
        <pt x="289" y="520" on="1"/>
        <pt x="343" y="528" on="0"/>
        <pt x="453" y="547" on="0"/>
      </contour>
    </TTGlyph>
    <TTGlyph name="AEacute" xMin="-9" yMin="-28" xMax="1187" yMax="1722">
      <component glyphName="AE" x="0" y="0" flags="0x204"/>
      <component glyphName="acute" x="604" y="356" flags="0x4"/>
    </TTGlyph>
    <TTGlyph name="Aacute" xMin="42" yMin="-32" xMax="782" yMax="1744">
      <component glyphName="A" x="0" y="0" flags="0x204"/>
      <component glyphName="acute" x="302" y="378" flags="0x4"/>
    </TTGlyph>
    <TTGlyph name="Abreve" xMin="42" yMin="-32" xMax="782" yMax="1759">
      <component glyphName="A" x="0" y="0" flags="0x204"/>
      <component glyphName="breve" x="170" y="463" flags="0x4"/>
    </TTGlyph>
    <TTGlyph name="Acircumflex" xMin="42" yMin="-32" xMax="782" yMax="1788">
      <component glyphName="A" x="0" y="0" flags="0x204"/>
      <component glyphName="circumflex" x="176" y="468" flags="0x4"/>
    </TTGlyph>
    <TTGlyph name="Adieresis" xMin="42" yMin="-32" xMax="782" yMax="1650">
      <component glyphName="A" x="0" y="0" flags="0x204"/>
      <component glyphName="dieresis" x="126" y="316" flags="0x4"/>
    </TTGlyph>
    <TTGlyph name="Agrave" xMin="8" yMin="-32" xMax="782" yMax="1736">
      <component glyphName="A" x="0" y="0" flags="0x204"/>
      <component glyphName="grave" x="38" y="370" flags="0x4"/>
    </TTGlyph>
    <TTGlyph name="Amacron" xMin="42" yMin="-32" xMax="782" yMax="1617">
      <component glyphName="A" x="0" y="0" flags="0x204"/>
      <component glyphName="macron" x="131" y="379" flags="0x4"/>
    </TTGlyph>
    <TTGlyph name="Aogonek" xMin="42" yMin="-298" xMax="782" yMax="1440">
      <contour>
        <pt x="758" y="-242" on="1"/>
        <pt x="758" y="-258" on="0"/>
        <pt x="729" y="-279" on="0"/>
        <pt x="690" y="-292" on="0"/>
        <pt x="650" y="-298" on="0"/>
        <pt x="638" y="-298" on="1"/>
        <pt x="611" y="-298" on="0"/>
        <pt x="556" y="-279" on="0"/>
        <pt x="512" y="-245" on="0"/>
        <pt x="484" y="-197" on="0"/>
        <pt x="484" y="-168" on="1"/>
        <pt x="484" y="-149" on="0"/>
        <pt x="496" y="-107" on="0"/>
        <pt x="516" y="-64" on="0"/>
        <pt x="542" y="-22" on="0"/>
        <pt x="557" y="-4" on="1"/>
        <pt x="551" y="7" on="0"/>
        <pt x="545" y="42" on="0"/>
        <pt x="542" y="66" on="1"/>
        <pt x="518" y="249" on="0"/>
        <pt x="488" y="432" on="1"/>
        <pt x="426" y="424" on="0"/>
        <pt x="301" y="410" on="0"/>
        <pt x="238" y="404" on="1"/>
        <pt x="206" y="208" on="1"/>
        <pt x="204" y="190" on="0"/>
        <pt x="197" y="128" on="0"/>
        <pt x="188" y="63" on="0"/>
        <pt x="177" y="7" on="0"/>
        <pt x="170" y="-6" on="1"/>
        <pt x="164" y="-18" on="0"/>
        <pt x="154" y="-28" on="0"/>
        <pt x="140" y="-28" on="1"/>
        <pt x="122" y="-28" on="0"/>
        <pt x="87" y="-15" on="0"/>
        <pt x="60" y="8" on="0"/>
        <pt x="44" y="40" on="0"/>
        <pt x="44" y="60" on="1"/>
        <pt x="44" y="80" on="0"/>
        <pt x="53" y="120" on="0"/>
        <pt x="56" y="140" on="1"/>
        <pt x="67" y="206" on="0"/>
        <pt x="85" y="337" on="0"/>
        <pt x="96" y="402" on="1"/>
        <pt x="89" y="403" on="0"/>
        <pt x="71" y="408" on="0"/>
        <pt x="54" y="416" on="0"/>
        <pt x="42" y="428" on="0"/>
        <pt x="42" y="436" on="1"/>
        <pt x="42" y="446" on="0"/>
        <pt x="57" y="463" on="0"/>
        <pt x="78" y="478" on="0"/>
        <pt x="100" y="489" on="0"/>
        <pt x="108" y="492" on="1"/>
        <pt x="129" y="632" on="0"/>
        <pt x="167" y="910" on="0"/>
        <pt x="182" y="1052" on="1"/>
        <pt x="186" y="1090" on="0"/>
        <pt x="192" y="1168" on="0"/>
        <pt x="199" y="1246" on="0"/>
        <pt x="210" y="1322" on="0"/>
        <pt x="220" y="1360" on="1"/>
        <pt x="229" y="1396" on="0"/>
        <pt x="271" y="1440" on="0"/>
        <pt x="312" y="1440" on="1"/>
        <pt x="324" y="1440" on="0"/>
        <pt x="347" y="1436" on="0"/>
        <pt x="356" y="1430" on="1"/>
        <pt x="382" y="1417" on="0"/>
        <pt x="438" y="1301" on="0"/>
        <pt x="494" y="1136" on="0"/>
        <pt x="545" y="944" on="0"/>
        <pt x="587" y="764" on="0"/>
        <pt x="617" y="619" on="0"/>
        <pt x="624" y="584" on="1"/>
        <pt x="645" y="587" on="0"/>
        <pt x="687" y="592" on="0"/>
        <pt x="708" y="592" on="1"/>
        <pt x="718" y="592" on="0"/>
        <pt x="744" y="590" on="0"/>
        <pt x="767" y="581" on="0"/>
        <pt x="782" y="564" on="0"/>
        <pt x="782" y="550" on="1"/>
        <pt x="782" y="529" on="0"/>
        <pt x="752" y="483" on="0"/>
        <pt x="734" y="472" on="1"/>
        <pt x="729" y="469" on="0"/>
        <pt x="705" y="463" on="0"/>
        <pt x="678" y="458" on="0"/>
        <pt x="653" y="453" on="0"/>
        <pt x="646" y="452" on="1"/>
        <pt x="670" y="304" on="1"/>
        <pt x="681" y="235" on="0"/>
        <pt x="692" y="96" on="0"/>
        <pt x="712" y="28" on="1"/>
        <pt x="714" y="22" on="0"/>
        <pt x="718" y="12" on="0"/>
        <pt x="718" y="4" on="1"/>
        <pt x="718" y="-12" on="0"/>
        <pt x="696" y="-27" on="0"/>
        <pt x="682" y="-29" on="1"/>
        <pt x="670" y="-45" on="0"/>
        <pt x="639" y="-81" on="0"/>
        <pt x="610" y="-118" on="0"/>
        <pt x="590" y="-156" on="0"/>
        <pt x="590" y="-174" on="1"/>
        <pt x="590" y="-194" on="0"/>
        <pt x="626" y="-220" on="0"/>
        <pt x="644" y="-220" on="1"/>
        <pt x="657" y="-220" on="0"/>
        <pt x="680" y="-213" on="0"/>
        <pt x="700" y="-204" on="0"/>
        <pt x="717" y="-196" on="0"/>
        <pt x="724" y="-196" on="1"/>
        <pt x="742" y="-196" on="0"/>
        <pt x="758" y="-227" on="0"/>
      </contour>
      <contour>
        <pt x="468" y="558" on="1"/>
        <pt x="442" y="700" on="0"/>
        <pt x="381" y="979" on="0"/>
        <pt x="340" y="1118" on="1"/>
        <pt x="322" y="967" on="0"/>
        <pt x="280" y="669" on="0"/>
        <pt x="256" y="520" on="1"/>
        <pt x="310" y="528" on="0"/>
        <pt x="415" y="547" on="0"/>
      </contour>
    </TTGlyph>
    <TTGlyph name="Aring" xMin="42" yMin="-32" xMax="782" yMax="1702">
      <component glyphName="A" x="0" y="0" flags="0x204"/>
      <component glyphName="ring" x="188" y="366" flags="0x4"/>
    </TTGlyph>
    <TTGlyph name="Atilde" xMin="42" yMin="-32" xMax="782" yMax="1732">
      <component glyphName="A" x="0" y="0" flags="0x204"/>
      <component glyphName="tilde" x="124" y="444" flags="0x4"/>
    </TTGlyph>
    <TTGlyph name="B" xMin="46" yMin="-72" xMax="752" yMax="1478">
      <contour>
        <pt x="752" y="392" on="1"/>
        <pt x="752" y="275" on="0"/>
        <pt x="677" y="101" on="0"/>
        <pt x="543" y="-15" on="0"/>
        <pt x="358" y="-72" on="0"/>
        <pt x="248" y="-72" on="1"/>
        <pt x="214" y="-72" on="1"/>
        <pt x="204" y="-72" on="0"/>
        <pt x="164" y="-71" on="0"/>
        <pt x="123" y="-64" on="0"/>
        <pt x="92" y="-48" on="0"/>
        <pt x="92" y="-34" on="1"/>
        <pt x="92" y="-18" on="0"/>
        <pt x="107" y="13" on="0"/>
        <pt x="131" y="38" on="0"/>
        <pt x="161" y="55" on="0"/>
        <pt x="176" y="58" on="1"/>
        <pt x="168" y="68" on="0"/>
        <pt x="160" y="102" on="0"/>
        <pt x="154" y="140" on="0"/>
        <pt x="151" y="177" on="0"/>
        <pt x="150" y="190" on="1"/>
        <pt x="132" y="345" on="0"/>
        <pt x="106" y="653" on="0"/>
        <pt x="106" y="810" on="1"/>
        <pt x="106" y="910" on="0"/>
        <pt x="112" y="1106" on="0"/>
        <pt x="114" y="1206" on="1"/>
        <pt x="116" y="1247" on="0"/>
        <pt x="115" y="1327" on="0"/>
        <pt x="118" y="1368" on="1"/>
        <pt x="112" y="1366" on="0"/>
        <pt x="98" y="1366" on="0"/>
        <pt x="90" y="1366" on="1"/>
        <pt x="75" y="1366" on="0"/>
        <pt x="46" y="1377" on="0"/>
        <pt x="46" y="1398" on="1"/>
        <pt x="46" y="1424" on="0"/>
        <pt x="68" y="1456" on="0"/>
        <pt x="102" y="1473" on="0"/>
        <pt x="145" y="1478" on="0"/>
        <pt x="166" y="1478" on="1"/>
        <pt x="262" y="1478" on="0"/>
        <pt x="442" y="1430" on="0"/>
        <pt x="580" y="1330" on="0"/>
        <pt x="664" y="1175" on="0"/>
        <pt x="664" y="1068" on="1"/>
        <pt x="664" y="980" on="0"/>
        <pt x="600" y="820" on="0"/>
        <pt x="538" y="758" on="1"/>
        <pt x="594" y="734" on="0"/>
        <pt x="675" y="657" on="0"/>
        <pt x="727" y="561" on="0"/>
        <pt x="752" y="450" on="0"/>
      </contour>
      <contour>
        <pt x="512" y="1082" on="1"/>
        <pt x="512" y="1142" on="0"/>
        <pt x="474" y="1235" on="0"/>
        <pt x="406" y="1304" on="0"/>
        <pt x="312" y="1347" on="0"/>
        <pt x="256" y="1358" on="1"/>
        <pt x="258" y="1353" on="0"/>
        <pt x="258" y="1345" on="0"/>
        <pt x="258" y="1342" on="1"/>
        <pt x="258" y="1247" on="0"/>
        <pt x="254" y="1062" on="0"/>
        <pt x="254" y="968" on="1"/>
        <pt x="254" y="864" on="1"/>
        <pt x="254" y="844" on="0"/>
        <pt x="256" y="803" on="0"/>
        <pt x="256" y="782" on="1"/>
        <pt x="282" y="793" on="0"/>
        <pt x="335" y="794" on="0"/>
        <pt x="362" y="794" on="1"/>
        <pt x="437" y="841" on="0"/>
        <pt x="512" y="994" on="0"/>
      </contour>
      <contour>
        <pt x="602" y="394" on="1"/>
        <pt x="602" y="442" on="0"/>
        <pt x="585" y="532" on="0"/>
        <pt x="543" y="607" on="0"/>
        <pt x="475" y="661" on="0"/>
        <pt x="424" y="674" on="1"/>
        <pt x="348" y="631" on="0"/>
        <pt x="262" y="616" on="1"/>
        <pt x="270" y="503" on="0"/>
        <pt x="293" y="278" on="0"/>
        <pt x="314" y="166" on="1"/>
        <pt x="319" y="140" on="0"/>
        <pt x="332" y="89" on="0"/>
        <pt x="334" y="62" on="1"/>
        <pt x="401" y="71" on="0"/>
        <pt x="502" y="128" on="0"/>
        <pt x="569" y="215" on="0"/>
        <pt x="602" y="329" on="0"/>
      </contour>
    </TTGlyph>
    <TTGlyph name="C" xMin="53" yMin="-26" xMax="821" yMax="1442">
      <contour>
        <pt x="821" y="296" on="1"/>
        <pt x="821" y="281" on="0"/>
        <pt x="812" y="252" on="0"/>
        <pt x="807" y="238" on="1"/>
        <pt x="785" y="181" on="0"/>
        <pt x="721" y="84" on="0"/>
        <pt x="637" y="14" on="0"/>
        <pt x="531" y="-26" on="0"/>
        <pt x="467" y="-26" on="1"/>
        <pt x="382" y="-26" on="0"/>
        <pt x="260" y="46" on="0"/>
        <pt x="174" y="161" on="0"/>
        <pt x="119" y="303" on="0"/>
        <pt x="103" y="374" on="1"/>
        <pt x="79" y="477" on="0"/>
        <pt x="53" y="684" on="0"/>
        <pt x="53" y="788" on="1"/>
        <pt x="53" y="849" on="0"/>
        <pt x="64" y="979" on="0"/>
        <pt x="92" y="1106" on="0"/>
        <pt x="140" y="1225" on="0"/>
        <pt x="212" y="1326" on="0"/>
        <pt x="311" y="1404" on="0"/>
        <pt x="377" y="1426" on="1"/>
        <pt x="401" y="1435" on="0"/>
        <pt x="453" y="1442" on="0"/>
        <pt x="479" y="1442" on="1"/>
        <pt x="531" y="1442" on="0"/>
        <pt x="625" y="1408" on="0"/>
        <pt x="696" y="1346" on="0"/>
        <pt x="737" y="1258" on="0"/>
        <pt x="737" y="1204" on="1"/>
        <pt x="737" y="1186" on="0"/>
        <pt x="721" y="1168" on="0"/>
        <pt x="701" y="1168" on="1"/>
        <pt x="664" y="1168" on="0"/>
        <pt x="623" y="1192" on="0"/>
        <pt x="597" y="1228" on="0"/>
        <pt x="580" y="1270" on="0"/>
        <pt x="556" y="1306" on="0"/>
        <pt x="516" y="1330" on="0"/>
        <pt x="481" y="1330" on="1"/>
        <pt x="446" y="1330" on="0"/>
        <pt x="385" y="1303" on="0"/>
        <pt x="334" y="1259" on="0"/>
        <pt x="293" y="1204" on="0"/>
        <pt x="277" y="1176" on="1"/>
        <pt x="235" y="1098" on="0"/>
        <pt x="201" y="921" on="0"/>
        <pt x="201" y="832" on="1"/>
        <pt x="201" y="802" on="0"/>
        <pt x="206" y="707" on="0"/>
        <pt x="217" y="593" on="0"/>
        <pt x="237" y="466" on="0"/>
        <pt x="266" y="344" on="0"/>
        <pt x="307" y="232" on="0"/>
        <pt x="360" y="148" on="0"/>
        <pt x="427" y="98" on="0"/>
        <pt x="469" y="98" on="1"/>
        <pt x="512" y="98" on="0"/>
        <pt x="578" y="143" on="0"/>
        <pt x="625" y="212" on="0"/>
        <pt x="656" y="293" on="0"/>
        <pt x="665" y="328" on="1"/>
        <pt x="668" y="338" on="0"/>
        <pt x="673" y="354" on="0"/>
        <pt x="682" y="366" on="0"/>
        <pt x="696" y="372" on="0"/>
        <pt x="709" y="372" on="1"/>
        <pt x="723" y="372" on="0"/>
        <pt x="762" y="361" on="0"/>
        <pt x="797" y="341" on="0"/>
        <pt x="821" y="313" on="0"/>
      </contour>
    </TTGlyph>
    <TTGlyph name="Cacute" xMin="53" yMin="-26" xMax="821" yMax="1745">
      <component glyphName="C" x="0" y="0" flags="0x204"/>
      <component glyphName="acute" x="447" y="379" flags="0x4"/>
    </TTGlyph>
    <TTGlyph name="Ccaron" xMin="53" yMin="-26" xMax="821" yMax="1793">
      <component glyphName="C" x="0" y="0" flags="0x204"/>
      <component glyphName="caron" x="278" y="463" flags="0x4"/>
    </TTGlyph>
    <TTGlyph name="Ccedilla" xMin="52" yMin="-280" xMax="820" yMax="1442">
      <contour>
        <pt x="596" y="-158" on="1"/>
        <pt x="596" y="-186" on="0"/>
        <pt x="568" y="-231" on="0"/>
        <pt x="524" y="-263" on="0"/>
        <pt x="472" y="-280" on="0"/>
        <pt x="448" y="-280" on="1"/>
        <pt x="418" y="-280" on="0"/>
        <pt x="359" y="-262" on="0"/>
        <pt x="332" y="-248" on="1"/>
        <pt x="326" y="-246" on="0"/>
        <pt x="306" y="-236" on="0"/>
        <pt x="288" y="-223" on="0"/>
        <pt x="274" y="-209" on="0"/>
        <pt x="274" y="-202" on="1"/>
        <pt x="274" y="-194" on="0"/>
        <pt x="291" y="-181" on="0"/>
        <pt x="313" y="-172" on="0"/>
        <pt x="336" y="-168" on="0"/>
        <pt x="342" y="-168" on="1"/>
        <pt x="355" y="-168" on="0"/>
        <pt x="379" y="-176" on="0"/>
        <pt x="403" y="-186" on="0"/>
        <pt x="427" y="-194" on="0"/>
        <pt x="440" y="-194" on="1"/>
        <pt x="454" y="-194" on="0"/>
        <pt x="486" y="-177" on="0"/>
        <pt x="486" y="-160" on="1"/>
        <pt x="486" y="-151" on="0"/>
        <pt x="469" y="-144" on="0"/>
        <pt x="460" y="-144" on="1"/>
        <pt x="449" y="-144" on="0"/>
        <pt x="429" y="-148" on="0"/>
        <pt x="418" y="-148" on="1"/>
        <pt x="388" y="-148" on="0"/>
        <pt x="344" y="-112" on="0"/>
        <pt x="344" y="-80" on="1"/>
        <pt x="344" y="-71" on="0"/>
        <pt x="350" y="-30" on="0"/>
        <pt x="356" y="-6" on="1"/>
        <pt x="300" y="14" on="0"/>
        <pt x="217" y="95" on="0"/>
        <pt x="157" y="198" on="0"/>
        <pt x="115" y="316" on="0"/>
        <pt x="102" y="374" on="1"/>
        <pt x="78" y="477" on="0"/>
        <pt x="52" y="684" on="0"/>
        <pt x="52" y="788" on="1"/>
        <pt x="52" y="849" on="0"/>
        <pt x="63" y="979" on="0"/>
        <pt x="91" y="1106" on="0"/>
        <pt x="139" y="1225" on="0"/>
        <pt x="211" y="1326" on="0"/>
        <pt x="310" y="1404" on="0"/>
        <pt x="376" y="1426" on="1"/>
        <pt x="400" y="1435" on="0"/>
        <pt x="452" y="1442" on="0"/>
        <pt x="478" y="1442" on="1"/>
        <pt x="530" y="1442" on="0"/>
        <pt x="624" y="1408" on="0"/>
        <pt x="695" y="1346" on="0"/>
        <pt x="736" y="1258" on="0"/>
        <pt x="736" y="1204" on="1"/>
        <pt x="736" y="1186" on="0"/>
        <pt x="720" y="1168" on="0"/>
        <pt x="700" y="1168" on="1"/>
        <pt x="663" y="1168" on="0"/>
        <pt x="622" y="1192" on="0"/>
        <pt x="596" y="1228" on="0"/>
        <pt x="579" y="1270" on="0"/>
        <pt x="555" y="1306" on="0"/>
        <pt x="515" y="1330" on="0"/>
        <pt x="480" y="1330" on="1"/>
        <pt x="445" y="1330" on="0"/>
        <pt x="384" y="1303" on="0"/>
        <pt x="333" y="1259" on="0"/>
        <pt x="292" y="1204" on="0"/>
        <pt x="276" y="1176" on="1"/>
        <pt x="234" y="1098" on="0"/>
        <pt x="200" y="921" on="0"/>
        <pt x="200" y="832" on="1"/>
        <pt x="200" y="802" on="0"/>
        <pt x="205" y="707" on="0"/>
        <pt x="216" y="593" on="0"/>
        <pt x="236" y="466" on="0"/>
        <pt x="265" y="344" on="0"/>
        <pt x="306" y="232" on="0"/>
        <pt x="359" y="148" on="0"/>
        <pt x="426" y="98" on="0"/>
        <pt x="468" y="98" on="1"/>
        <pt x="511" y="98" on="0"/>
        <pt x="577" y="143" on="0"/>
        <pt x="624" y="212" on="0"/>
        <pt x="655" y="293" on="0"/>
        <pt x="664" y="328" on="1"/>
        <pt x="667" y="338" on="0"/>
        <pt x="672" y="354" on="0"/>
        <pt x="681" y="366" on="0"/>
        <pt x="695" y="372" on="0"/>
        <pt x="708" y="372" on="1"/>
        <pt x="722" y="372" on="0"/>
        <pt x="761" y="361" on="0"/>
        <pt x="796" y="341" on="0"/>
        <pt x="820" y="313" on="0"/>
        <pt x="820" y="296" on="1"/>
        <pt x="820" y="281" on="0"/>
        <pt x="811" y="252" on="0"/>
        <pt x="806" y="238" on="1"/>
        <pt x="784" y="182" on="0"/>
        <pt x="722" y="88" on="0"/>
        <pt x="641" y="18" on="0"/>
        <pt x="539" y="-24" on="0"/>
        <pt x="478" y="-26" on="1"/>
        <pt x="472" y="-50" on="1"/>
        <pt x="494" y="-53" on="0"/>
        <pt x="538" y="-70" on="0"/>
        <pt x="574" y="-97" on="0"/>
        <pt x="596" y="-134" on="0"/>
      </contour>
    </TTGlyph>
    <TTGlyph name="Ccircumflex" xMin="53" yMin="-26" xMax="821" yMax="1779">
      <component glyphName="C" x="0" y="0" flags="0x204"/>
      <component glyphName="circumflex" x="310" y="459" flags="0x4"/>
    </TTGlyph>
    <TTGlyph name="Cdotaccent" xMin="53" yMin="-26" xMax="821" yMax="1648">
      <component glyphName="C" x="0" y="0" flags="0x204"/>
      <component glyphName="dotaccent" x="365" y="314" flags="0x4"/>
    </TTGlyph>
    <TTGlyph name="D" xMin="77" yMin="-26" xMax="773" yMax="1442">
      <contour>
        <pt x="773" y="716" on="1"/>
        <pt x="773" y="609" on="0"/>
        <pt x="735" y="402" on="0"/>
        <pt x="648" y="222" on="0"/>
        <pt x="506" y="75" on="0"/>
        <pt x="403" y="28" on="1"/>
        <pt x="377" y="16" on="0"/>
        <pt x="316" y="-4" on="0"/>
        <pt x="251" y="-18" on="0"/>
        <pt x="187" y="-26" on="0"/>
        <pt x="159" y="-26" on="1"/>
        <pt x="148" y="-26" on="0"/>
        <pt x="121" y="-25" on="0"/>
        <pt x="97" y="-18" on="0"/>
        <pt x="81" y="-2" on="0"/>
        <pt x="81" y="12" on="1"/>
        <pt x="81" y="24" on="0"/>
        <pt x="91" y="50" on="0"/>
        <pt x="108" y="74" on="0"/>
        <pt x="128" y="93" on="0"/>
        <pt x="139" y="98" on="1"/>
        <pt x="134" y="106" on="0"/>
        <pt x="125" y="180" on="0"/>
        <pt x="118" y="294" on="0"/>
        <pt x="112" y="435" on="0"/>
        <pt x="107" y="585" on="0"/>
        <pt x="104" y="734" on="0"/>
        <pt x="102" y="860" on="0"/>
        <pt x="101" y="953" on="0"/>
        <pt x="101" y="974" on="1"/>
        <pt x="101" y="1068" on="0"/>
        <pt x="107" y="1250" on="0"/>
        <pt x="107" y="1344" on="1"/>
        <pt x="96" y="1344" on="0"/>
        <pt x="77" y="1356" on="0"/>
        <pt x="77" y="1368" on="1"/>
        <pt x="77" y="1384" on="0"/>
        <pt x="93" y="1411" on="0"/>
        <pt x="118" y="1431" on="0"/>
        <pt x="149" y="1442" on="0"/>
        <pt x="163" y="1442" on="1"/>
        <pt x="177" y="1442" on="0"/>
        <pt x="203" y="1437" on="0"/>
        <pt x="217" y="1434" on="1"/>
        <pt x="350" y="1402" on="0"/>
        <pt x="558" y="1272" on="0"/>
        <pt x="699" y="1086" on="0"/>
        <pt x="773" y="852" on="0"/>
      </contour>
      <contour>
        <pt x="625" y="734" on="1"/>
        <pt x="625" y="834" on="0"/>
        <pt x="577" y="1011" on="0"/>
        <pt x="482" y="1158" on="0"/>
        <pt x="339" y="1271" on="0"/>
        <pt x="245" y="1308" on="1"/>
        <pt x="245" y="1304" on="1"/>
        <pt x="245" y="1046" on="0"/>
        <pt x="262" y="539" on="0"/>
        <pt x="279" y="282" on="1"/>
        <pt x="282" y="243" on="0"/>
        <pt x="287" y="166" on="0"/>
        <pt x="293" y="128" on="1"/>
        <pt x="387" y="159" on="0"/>
        <pt x="515" y="289" on="0"/>
        <pt x="592" y="456" on="0"/>
        <pt x="625" y="645" on="0"/>
      </contour>
    </TTGlyph>
    <TTGlyph name="Dcaron" xMin="77" yMin="-26" xMax="773" yMax="1745">
      <component glyphName="D" x="0" y="0" flags="0x204"/>
      <component glyphName="caron" x="272" y="415" flags="0x4"/>
    </TTGlyph>
    <TTGlyph name="Dcroat" xMin="12" yMin="-26" xMax="814" yMax="1442">
      <contour>
        <pt x="296" y="744" on="1"/>
        <pt x="305" y="744" on="0"/>
        <pt x="348" y="746" on="0"/>
        <pt x="393" y="743" on="0"/>
        <pt x="428" y="730" on="0"/>
        <pt x="428" y="716" on="1"/>
        <pt x="428" y="689" on="0"/>
        <pt x="402" y="660" on="0"/>
        <pt x="363" y="648" on="0"/>
        <pt x="319" y="646" on="0"/>
        <pt x="300" y="646" on="1"/>
        <pt x="305" y="554" on="0"/>
        <pt x="314" y="373" on="0"/>
        <pt x="320" y="282" on="1"/>
        <pt x="323" y="203" on="0"/>
        <pt x="332" y="128" on="1"/>
        <pt x="426" y="159" on="0"/>
        <pt x="554" y="289" on="0"/>
        <pt x="631" y="456" on="0"/>
        <pt x="664" y="645" on="0"/>
        <pt x="664" y="734" on="1"/>
        <pt x="664" y="834" on="0"/>
        <pt x="616" y="1012" on="0"/>
        <pt x="521" y="1159" on="0"/>
        <pt x="378" y="1272" on="0"/>
        <pt x="284" y="1308" on="1"/>
        <pt x="284" y="1304" on="1"/>
        <pt x="284" y="1023" on="0"/>
      </contour>
      <contour>
        <pt x="12" y="662" on="1"/>
        <pt x="12" y="676" on="0"/>
        <pt x="18" y="688" on="1"/>
        <pt x="28" y="715" on="0"/>
        <pt x="51" y="739" on="0"/>
        <pt x="81" y="747" on="0"/>
        <pt x="119" y="744" on="0"/>
        <pt x="144" y="744" on="1"/>
        <pt x="142" y="803" on="0"/>
        <pt x="142" y="917" on="0"/>
        <pt x="142" y="974" on="1"/>
        <pt x="142" y="1068" on="0"/>
        <pt x="146" y="1250" on="0"/>
        <pt x="146" y="1344" on="1"/>
        <pt x="135" y="1344" on="0"/>
        <pt x="116" y="1356" on="0"/>
        <pt x="116" y="1368" on="1"/>
        <pt x="116" y="1384" on="0"/>
        <pt x="133" y="1411" on="0"/>
        <pt x="159" y="1431" on="0"/>
        <pt x="190" y="1442" on="0"/>
        <pt x="204" y="1442" on="1"/>
        <pt x="218" y="1442" on="0"/>
        <pt x="242" y="1437" on="0"/>
        <pt x="256" y="1434" on="1"/>
        <pt x="389" y="1402" on="0"/>
        <pt x="597" y="1272" on="0"/>
        <pt x="740" y="1087" on="0"/>
        <pt x="814" y="852" on="0"/>
        <pt x="814" y="716" on="1"/>
        <pt x="814" y="608" on="0"/>
        <pt x="775" y="403" on="0"/>
        <pt x="688" y="223" on="0"/>
        <pt x="547" y="77" on="0"/>
        <pt x="444" y="28" on="1"/>
        <pt x="418" y="16" on="0"/>
        <pt x="356" y="-4" on="0"/>
        <pt x="290" y="-18" on="0"/>
        <pt x="226" y="-26" on="0"/>
        <pt x="198" y="-26" on="1"/>
        <pt x="187" y="-26" on="0"/>
        <pt x="160" y="-25" on="0"/>
        <pt x="136" y="-18" on="0"/>
        <pt x="120" y="-2" on="0"/>
        <pt x="120" y="12" on="1"/>
        <pt x="120" y="24" on="0"/>
        <pt x="130" y="50" on="0"/>
        <pt x="147" y="74" on="0"/>
        <pt x="169" y="93" on="0"/>
        <pt x="180" y="98" on="1"/>
        <pt x="174" y="107" on="0"/>
        <pt x="165" y="185" on="0"/>
        <pt x="157" y="294" on="0"/>
        <pt x="152" y="419" on="0"/>
        <pt x="149" y="533" on="0"/>
        <pt x="146" y="620" on="0"/>
        <pt x="146" y="636" on="1"/>
        <pt x="125" y="634" on="0"/>
        <pt x="83" y="634" on="0"/>
        <pt x="62" y="634" on="1"/>
        <pt x="54" y="634" on="0"/>
        <pt x="36" y="635" on="0"/>
        <pt x="21" y="640" on="0"/>
        <pt x="12" y="651" on="0"/>
      </contour>
    </TTGlyph>
    <TTGlyph name="E" xMin="80" yMin="0" xMax="768" yMax="1391">
      <contour>
        <pt x="768" y="218" on="1"/>
        <pt x="768" y="201" on="0"/>
        <pt x="741" y="169" on="0"/>
        <pt x="703" y="139" on="0"/>
        <pt x="663" y="114" on="0"/>
        <pt x="650" y="106" on="1"/>
        <pt x="616" y="84" on="0"/>
        <pt x="549" y="46" on="0"/>
        <pt x="478" y="18" on="0"/>
        <pt x="403" y="2" on="0"/>
        <pt x="362" y="2" on="1"/>
        <pt x="346" y="0" on="1"/>
        <pt x="313" y="0" on="0"/>
        <pt x="248" y="15" on="0"/>
        <pt x="192" y="46" on="0"/>
        <pt x="148" y="94" on="0"/>
        <pt x="136" y="128" on="1"/>
        <pt x="127" y="155" on="0"/>
        <pt x="117" y="229" on="0"/>
        <pt x="112" y="309" on="0"/>
        <pt x="109" y="386" on="0"/>
        <pt x="108" y="416" on="1"/>
        <pt x="93" y="722" on="0"/>
        <pt x="84" y="1028" on="1"/>
        <pt x="82" y="1063" on="0"/>
        <pt x="80" y="1133" on="0"/>
        <pt x="80" y="1168" on="1"/>
        <pt x="80" y="1228" on="0"/>
        <pt x="94" y="1312" on="0"/>
        <pt x="136" y="1366" on="0"/>
        <pt x="215" y="1390" on="0"/>
        <pt x="280" y="1390" on="1"/>
        <pt x="345" y="1390" on="0"/>
        <pt x="476" y="1388" on="0"/>
        <pt x="542" y="1388" on="1"/>
        <pt x="562" y="1388" on="0"/>
        <pt x="602" y="1391" on="0"/>
        <pt x="622" y="1386" on="1"/>
        <pt x="634" y="1384" on="0"/>
        <pt x="652" y="1375" on="0"/>
        <pt x="652" y="1360" on="1"/>
        <pt x="652" y="1324" on="0"/>
        <pt x="604" y="1289" on="0"/>
        <pt x="538" y="1277" on="0"/>
        <pt x="467" y="1278" on="0"/>
        <pt x="444" y="1278" on="1"/>
        <pt x="314" y="1278" on="1"/>
        <pt x="294" y="1278" on="0"/>
        <pt x="254" y="1278" on="0"/>
        <pt x="234" y="1276" on="1"/>
        <pt x="228" y="1261" on="0"/>
        <pt x="224" y="1229" on="0"/>
        <pt x="224" y="1212" on="1"/>
        <pt x="224" y="1103" on="0"/>
        <pt x="235" y="891" on="0"/>
        <pt x="240" y="782" on="1"/>
        <pt x="302" y="787" on="0"/>
        <pt x="424" y="801" on="0"/>
        <pt x="486" y="810" on="1"/>
        <pt x="495" y="810" on="0"/>
        <pt x="510" y="812" on="0"/>
        <pt x="518" y="812" on="1"/>
        <pt x="539" y="812" on="0"/>
        <pt x="556" y="790" on="0"/>
        <pt x="556" y="770" on="1"/>
        <pt x="556" y="756" on="0"/>
        <pt x="553" y="732" on="0"/>
        <pt x="548" y="720" on="1"/>
        <pt x="541" y="700" on="0"/>
        <pt x="509" y="682" on="0"/>
        <pt x="469" y="675" on="0"/>
        <pt x="426" y="675" on="0"/>
        <pt x="410" y="674" on="1"/>
        <pt x="368" y="672" on="0"/>
        <pt x="287" y="670" on="0"/>
        <pt x="246" y="668" on="1"/>
        <pt x="247" y="647" on="0"/>
        <pt x="251" y="563" on="0"/>
        <pt x="256" y="458" on="0"/>
        <pt x="263" y="346" on="0"/>
        <pt x="271" y="247" on="0"/>
        <pt x="281" y="173" on="0"/>
        <pt x="286" y="160" on="1"/>
        <pt x="297" y="139" on="0"/>
        <pt x="325" y="126" on="0"/>
        <pt x="348" y="126" on="1"/>
        <pt x="385" y="126" on="0"/>
        <pt x="467" y="155" on="0"/>
        <pt x="545" y="200" on="0"/>
        <pt x="616" y="254" on="0"/>
        <pt x="642" y="280" on="1"/>
        <pt x="653" y="289" on="0"/>
        <pt x="675" y="308" on="0"/>
        <pt x="690" y="308" on="1"/>
        <pt x="705" y="308" on="0"/>
        <pt x="733" y="290" on="0"/>
        <pt x="755" y="263" on="0"/>
        <pt x="768" y="231" on="0"/>
      </contour>
    </TTGlyph>
    <TTGlyph name="Eacute" xMin="80" yMin="0" xMax="768" yMax="1700">
      <component glyphName="E" x="0" y="0" flags="0x204"/>
      <component glyphName="acute" x="328" y="334" flags="0x4"/>
    </TTGlyph>
    <TTGlyph name="Ebreve" xMin="80" yMin="0" xMax="768" yMax="1724">
      <component glyphName="E" x="0" y="0" flags="0x204"/>
      <component glyphName="breve" x="264" y="428" flags="0x4"/>
    </TTGlyph>
    <TTGlyph name="Ecaron" xMin="80" yMin="0" xMax="768" yMax="1756">
      <component glyphName="E" x="0" y="0" flags="0x204"/>
      <component glyphName="caron" x="216" y="426" flags="0x4"/>
    </TTGlyph>
    <TTGlyph name="Ecircumflex" xMin="80" yMin="0" xMax="768" yMax="1756">
      <component glyphName="E" x="0" y="0" flags="0x204"/>
      <component glyphName="circumflex" x="230" y="436" flags="0x4"/>
    </TTGlyph>
    <TTGlyph name="Edieresis" xMin="80" yMin="0" xMax="768" yMax="1620">
      <component glyphName="E" x="0" y="0" flags="0x204"/>
      <component glyphName="dieresis" x="162" y="286" flags="0x4"/>
    </TTGlyph>
    <TTGlyph name="Edotaccent" xMin="80" yMin="0" xMax="768" yMax="1609">
      <component glyphName="E" x="0" y="0" flags="0x204"/>
      <component glyphName="dotaccent" x="331" y="275" flags="0x4"/>
    </TTGlyph>
    <TTGlyph name="Egrave" xMin="80" yMin="0" xMax="768" yMax="1704">
      <component glyphName="E" x="0" y="0" flags="0x204"/>
      <component glyphName="grave" x="176" y="338" flags="0x4"/>
    </TTGlyph>
    <TTGlyph name="Emacron" xMin="80" yMin="0" xMax="768" yMax="1566">
      <component glyphName="E" x="0" y="0" flags="0x204"/>
      <component glyphName="macron" x="202" y="328" flags="0x4"/>
    </TTGlyph>
    <TTGlyph name="Eng" xMin="27" yMin="-621" xMax="708" yMax="1468">
      <contour>
        <pt x="708" y="82" on="1"/>
        <pt x="708" y="22" on="0"/>
        <pt x="705" y="-128" on="0"/>
        <pt x="688" y="-285" on="0"/>
        <pt x="649" y="-434" on="0"/>
        <pt x="577" y="-550" on="0"/>
        <pt x="466" y="-621" on="0"/>
        <pt x="385" y="-621" on="1"/>
        <pt x="300" y="-621" on="0"/>
        <pt x="167" y="-567" on="0"/>
        <pt x="75" y="-471" on="0"/>
        <pt x="27" y="-339" on="0"/>
        <pt x="27" y="-261" on="1"/>
        <pt x="27" y="-245" on="0"/>
        <pt x="30" y="-173" on="0"/>
        <pt x="43" y="-98" on="0"/>
        <pt x="70" y="-41" on="0"/>
        <pt x="93" y="-41" on="1"/>
        <pt x="106" y="-41" on="0"/>
        <pt x="145" y="-54" on="0"/>
        <pt x="180" y="-76" on="0"/>
        <pt x="205" y="-105" on="0"/>
        <pt x="205" y="-121" on="1"/>
        <pt x="205" y="-159" on="0"/>
        <pt x="187" y="-231" on="0"/>
        <pt x="187" y="-269" on="1"/>
        <pt x="187" y="-310" on="0"/>
        <pt x="211" y="-392" on="0"/>
        <pt x="259" y="-458" on="0"/>
        <pt x="332" y="-499" on="0"/>
        <pt x="381" y="-499" on="1"/>
        <pt x="419" y="-499" on="0"/>
        <pt x="476" y="-451" on="0"/>
        <pt x="515" y="-371" on="0"/>
        <pt x="540" y="-264" on="0"/>
        <pt x="554" y="-146" on="0"/>
        <pt x="559" y="-24" on="0"/>
        <pt x="559" y="31" on="1"/>
        <pt x="540" y="58" on="0"/>
        <pt x="511" y="128" on="0"/>
        <pt x="486" y="204" on="0"/>
        <pt x="466" y="278" on="0"/>
        <pt x="456" y="310" on="1"/>
        <pt x="402" y="478" on="0"/>
        <pt x="309" y="812" on="0"/>
        <pt x="256" y="980" on="1"/>
        <pt x="251" y="763" on="0"/>
        <pt x="246" y="333" on="0"/>
        <pt x="246" y="116" on="1"/>
        <pt x="246" y="105" on="0"/>
        <pt x="244" y="77" on="0"/>
        <pt x="236" y="52" on="0"/>
        <pt x="219" y="34" on="0"/>
        <pt x="204" y="34" on="1"/>
        <pt x="153" y="34" on="0"/>
        <pt x="100" y="89" on="0"/>
        <pt x="100" y="140" on="1"/>
        <pt x="100" y="421" on="0"/>
        <pt x="102" y="973" on="0"/>
        <pt x="102" y="1252" on="1"/>
        <pt x="102" y="1394" on="1"/>
        <pt x="102" y="1417" on="0"/>
        <pt x="119" y="1448" on="0"/>
        <pt x="148" y="1448" on="1"/>
        <pt x="168" y="1448" on="0"/>
        <pt x="210" y="1437" on="0"/>
        <pt x="243" y="1415" on="0"/>
        <pt x="264" y="1380" on="0"/>
        <pt x="264" y="1356" on="1"/>
        <pt x="306" y="1276" on="0"/>
        <pt x="363" y="1106" on="0"/>
        <pt x="390" y="1020" on="1"/>
        <pt x="429" y="895" on="0"/>
        <pt x="505" y="645" on="0"/>
        <pt x="544" y="518" on="1"/>
        <pt x="538" y="707" on="0"/>
        <pt x="525" y="1084" on="0"/>
        <pt x="506" y="1272" on="1"/>
        <pt x="501" y="1313" on="0"/>
        <pt x="488" y="1391" on="0"/>
        <pt x="488" y="1432" on="1"/>
        <pt x="488" y="1453" on="0"/>
        <pt x="516" y="1468" on="0"/>
        <pt x="534" y="1468" on="1"/>
        <pt x="565" y="1468" on="0"/>
        <pt x="609" y="1458" on="0"/>
        <pt x="639" y="1434" on="0"/>
        <pt x="655" y="1393" on="0"/>
        <pt x="660" y="1362" on="1"/>
        <pt x="666" y="1308" on="0"/>
        <pt x="673" y="1199" on="0"/>
        <pt x="676" y="1146" on="1"/>
        <pt x="685" y="1012" on="0"/>
        <pt x="693" y="748" on="0"/>
        <pt x="696" y="614" on="1"/>
        <pt x="699" y="481" on="0"/>
        <pt x="708" y="216" on="0"/>
      </contour>
    </TTGlyph>
    <TTGlyph name="Eogonek" xMin="80" yMin="-139" xMax="773" yMax="1391">
      <contour>
        <pt x="773" y="-83" on="1"/>
        <pt x="773" y="-99" on="0"/>
        <pt x="744" y="-120" on="0"/>
        <pt x="705" y="-133" on="0"/>
        <pt x="665" y="-139" on="0"/>
        <pt x="653" y="-139" on="1"/>
        <pt x="626" y="-139" on="0"/>
        <pt x="571" y="-120" on="0"/>
        <pt x="527" y="-86" on="0"/>
        <pt x="499" y="-38" on="0"/>
        <pt x="499" y="-9" on="1"/>
        <pt x="499" y="7" on="0"/>
        <pt x="504" y="29" on="1"/>
        <pt x="471" y="16" on="0"/>
        <pt x="400" y="2" on="0"/>
        <pt x="362" y="2" on="1"/>
        <pt x="346" y="0" on="1"/>
        <pt x="313" y="0" on="0"/>
        <pt x="248" y="15" on="0"/>
        <pt x="192" y="46" on="0"/>
        <pt x="148" y="94" on="0"/>
        <pt x="136" y="128" on="1"/>
        <pt x="127" y="155" on="0"/>
        <pt x="117" y="229" on="0"/>
        <pt x="112" y="309" on="0"/>
        <pt x="109" y="386" on="0"/>
        <pt x="108" y="416" on="1"/>
        <pt x="93" y="722" on="0"/>
        <pt x="84" y="1028" on="1"/>
        <pt x="82" y="1063" on="0"/>
        <pt x="80" y="1133" on="0"/>
        <pt x="80" y="1168" on="1"/>
        <pt x="80" y="1228" on="0"/>
        <pt x="94" y="1312" on="0"/>
        <pt x="136" y="1366" on="0"/>
        <pt x="215" y="1390" on="0"/>
        <pt x="280" y="1390" on="1"/>
        <pt x="345" y="1390" on="0"/>
        <pt x="476" y="1388" on="0"/>
        <pt x="542" y="1388" on="1"/>
        <pt x="562" y="1388" on="0"/>
        <pt x="602" y="1391" on="0"/>
        <pt x="622" y="1386" on="1"/>
        <pt x="634" y="1384" on="0"/>
        <pt x="652" y="1375" on="0"/>
        <pt x="652" y="1360" on="1"/>
        <pt x="652" y="1324" on="0"/>
        <pt x="604" y="1289" on="0"/>
        <pt x="538" y="1277" on="0"/>
        <pt x="467" y="1278" on="0"/>
        <pt x="444" y="1278" on="1"/>
        <pt x="314" y="1278" on="1"/>
        <pt x="294" y="1278" on="0"/>
        <pt x="254" y="1278" on="0"/>
        <pt x="234" y="1276" on="1"/>
        <pt x="228" y="1261" on="0"/>
        <pt x="224" y="1229" on="0"/>
        <pt x="224" y="1212" on="1"/>
        <pt x="224" y="1103" on="0"/>
        <pt x="235" y="891" on="0"/>
        <pt x="240" y="782" on="1"/>
        <pt x="302" y="787" on="0"/>
        <pt x="424" y="801" on="0"/>
        <pt x="486" y="810" on="1"/>
        <pt x="495" y="810" on="0"/>
        <pt x="510" y="812" on="0"/>
        <pt x="518" y="812" on="1"/>
        <pt x="539" y="812" on="0"/>
        <pt x="556" y="790" on="0"/>
        <pt x="556" y="770" on="1"/>
        <pt x="556" y="756" on="0"/>
        <pt x="553" y="732" on="0"/>
        <pt x="548" y="720" on="1"/>
        <pt x="541" y="700" on="0"/>
        <pt x="509" y="682" on="0"/>
        <pt x="469" y="675" on="0"/>
        <pt x="426" y="675" on="0"/>
        <pt x="410" y="674" on="1"/>
        <pt x="246" y="668" on="1"/>
        <pt x="247" y="647" on="0"/>
        <pt x="251" y="563" on="0"/>
        <pt x="256" y="458" on="0"/>
        <pt x="263" y="346" on="0"/>
        <pt x="271" y="247" on="0"/>
        <pt x="281" y="173" on="0"/>
        <pt x="286" y="160" on="1"/>
        <pt x="297" y="139" on="0"/>
        <pt x="325" y="126" on="0"/>
        <pt x="348" y="126" on="1"/>
        <pt x="385" y="126" on="0"/>
        <pt x="467" y="155" on="0"/>
        <pt x="545" y="200" on="0"/>
        <pt x="616" y="254" on="0"/>
        <pt x="642" y="280" on="1"/>
        <pt x="653" y="289" on="0"/>
        <pt x="675" y="308" on="0"/>
        <pt x="690" y="308" on="1"/>
        <pt x="705" y="308" on="0"/>
        <pt x="733" y="290" on="0"/>
        <pt x="755" y="263" on="0"/>
        <pt x="768" y="231" on="0"/>
        <pt x="768" y="218" on="1"/>
        <pt x="768" y="198" on="0"/>
        <pt x="729" y="158" on="0"/>
        <pt x="705" y="141" on="1"/>
        <pt x="695" y="124" on="0"/>
        <pt x="661" y="86" on="0"/>
        <pt x="629" y="46" on="0"/>
        <pt x="605" y="4" on="0"/>
        <pt x="605" y="-15" on="1"/>
        <pt x="605" y="-35" on="0"/>
        <pt x="641" y="-61" on="0"/>
        <pt x="659" y="-61" on="1"/>
        <pt x="672" y="-61" on="0"/>
        <pt x="695" y="-54" on="0"/>
        <pt x="715" y="-45" on="0"/>
        <pt x="732" y="-37" on="0"/>
        <pt x="739" y="-37" on="1"/>
        <pt x="757" y="-37" on="0"/>
        <pt x="773" y="-68" on="0"/>
      </contour>
    </TTGlyph>
    <TTGlyph name="Eth" xMin="12" yMin="-26" xMax="814" yMax="1442">
      <contour>
        <pt x="296" y="744" on="1"/>
        <pt x="305" y="744" on="0"/>
        <pt x="348" y="746" on="0"/>
        <pt x="393" y="743" on="0"/>
        <pt x="428" y="730" on="0"/>
        <pt x="428" y="716" on="1"/>
        <pt x="428" y="689" on="0"/>
        <pt x="402" y="660" on="0"/>
        <pt x="363" y="648" on="0"/>
        <pt x="319" y="646" on="0"/>
        <pt x="300" y="646" on="1"/>
        <pt x="305" y="554" on="0"/>
        <pt x="314" y="373" on="0"/>
        <pt x="320" y="282" on="1"/>
        <pt x="323" y="203" on="0"/>
        <pt x="332" y="128" on="1"/>
        <pt x="426" y="159" on="0"/>
        <pt x="554" y="289" on="0"/>
        <pt x="631" y="456" on="0"/>
        <pt x="664" y="645" on="0"/>
        <pt x="664" y="734" on="1"/>
        <pt x="664" y="834" on="0"/>
        <pt x="616" y="1012" on="0"/>
        <pt x="521" y="1159" on="0"/>
        <pt x="378" y="1272" on="0"/>
        <pt x="284" y="1308" on="1"/>
        <pt x="284" y="1304" on="1"/>
        <pt x="284" y="1023" on="0"/>
      </contour>
      <contour>
        <pt x="12" y="662" on="1"/>
        <pt x="12" y="676" on="0"/>
        <pt x="18" y="688" on="1"/>
        <pt x="28" y="715" on="0"/>
        <pt x="51" y="739" on="0"/>
        <pt x="81" y="747" on="0"/>
        <pt x="119" y="744" on="0"/>
        <pt x="144" y="744" on="1"/>
        <pt x="142" y="803" on="0"/>
        <pt x="142" y="917" on="0"/>
        <pt x="142" y="974" on="1"/>
        <pt x="142" y="1068" on="0"/>
        <pt x="146" y="1250" on="0"/>
        <pt x="146" y="1344" on="1"/>
        <pt x="135" y="1344" on="0"/>
        <pt x="116" y="1356" on="0"/>
        <pt x="116" y="1368" on="1"/>
        <pt x="116" y="1384" on="0"/>
        <pt x="133" y="1411" on="0"/>
        <pt x="159" y="1431" on="0"/>
        <pt x="190" y="1442" on="0"/>
        <pt x="204" y="1442" on="1"/>
        <pt x="218" y="1442" on="0"/>
        <pt x="242" y="1437" on="0"/>
        <pt x="256" y="1434" on="1"/>
        <pt x="389" y="1402" on="0"/>
        <pt x="597" y="1272" on="0"/>
        <pt x="740" y="1087" on="0"/>
        <pt x="814" y="852" on="0"/>
        <pt x="814" y="716" on="1"/>
        <pt x="814" y="608" on="0"/>
        <pt x="775" y="403" on="0"/>
        <pt x="688" y="223" on="0"/>
        <pt x="547" y="77" on="0"/>
        <pt x="444" y="28" on="1"/>
        <pt x="418" y="16" on="0"/>
        <pt x="356" y="-4" on="0"/>
        <pt x="290" y="-18" on="0"/>
        <pt x="226" y="-26" on="0"/>
        <pt x="198" y="-26" on="1"/>
        <pt x="187" y="-26" on="0"/>
        <pt x="160" y="-25" on="0"/>
        <pt x="136" y="-18" on="0"/>
        <pt x="120" y="-2" on="0"/>
        <pt x="120" y="12" on="1"/>
        <pt x="120" y="24" on="0"/>
        <pt x="130" y="50" on="0"/>
        <pt x="147" y="74" on="0"/>
        <pt x="169" y="93" on="0"/>
        <pt x="180" y="98" on="1"/>
        <pt x="174" y="107" on="0"/>
        <pt x="165" y="185" on="0"/>
        <pt x="157" y="294" on="0"/>
        <pt x="152" y="419" on="0"/>
        <pt x="149" y="533" on="0"/>
        <pt x="146" y="620" on="0"/>
        <pt x="146" y="636" on="1"/>
        <pt x="125" y="634" on="0"/>
        <pt x="83" y="634" on="0"/>
        <pt x="62" y="634" on="1"/>
        <pt x="54" y="634" on="0"/>
        <pt x="36" y="635" on="0"/>
        <pt x="21" y="640" on="0"/>
        <pt x="12" y="651" on="0"/>
      </contour>
    </TTGlyph>
    <TTGlyph name="Euro" xMin="15" yMin="272" xMax="607" yMax="1202">
      <contour>
        <pt x="371" y="728" on="1"/>
        <pt x="371" y="708" on="0"/>
        <pt x="349" y="684" on="0"/>
        <pt x="317" y="672" on="0"/>
        <pt x="281" y="669" on="0"/>
        <pt x="267" y="668" on="1"/>
        <pt x="269" y="651" on="0"/>
        <pt x="277" y="593" on="0"/>
        <pt x="291" y="525" on="0"/>
        <pt x="310" y="454" on="0"/>
        <pt x="338" y="396" on="0"/>
        <pt x="374" y="360" on="0"/>
        <pt x="397" y="360" on="1"/>
        <pt x="417" y="360" on="0"/>
        <pt x="450" y="392" on="0"/>
        <pt x="474" y="437" on="0"/>
        <pt x="490" y="485" on="0"/>
        <pt x="493" y="502" on="1"/>
        <pt x="495" y="514" on="0"/>
        <pt x="497" y="545" on="0"/>
        <pt x="509" y="554" on="1"/>
        <pt x="512" y="557" on="0"/>
        <pt x="522" y="558" on="0"/>
        <pt x="527" y="558" on="1"/>
        <pt x="539" y="558" on="0"/>
        <pt x="567" y="551" on="0"/>
        <pt x="591" y="536" on="0"/>
        <pt x="607" y="514" on="0"/>
        <pt x="607" y="500" on="1"/>
        <pt x="607" y="479" on="0"/>
        <pt x="593" y="440" on="0"/>
        <pt x="585" y="422" on="1"/>
        <pt x="571" y="390" on="0"/>
        <pt x="537" y="336" on="0"/>
        <pt x="492" y="295" on="0"/>
        <pt x="434" y="272" on="0"/>
        <pt x="397" y="272" on="1"/>
        <pt x="349" y="272" on="0"/>
        <pt x="280" y="309" on="0"/>
        <pt x="231" y="371" on="0"/>
        <pt x="199" y="451" on="0"/>
        <pt x="178" y="536" on="0"/>
        <pt x="167" y="621" on="0"/>
        <pt x="163" y="656" on="1"/>
        <pt x="134" y="653" on="0"/>
        <pt x="76" y="648" on="0"/>
        <pt x="47" y="648" on="1"/>
        <pt x="33" y="648" on="0"/>
        <pt x="15" y="659" on="0"/>
        <pt x="15" y="674" on="1"/>
        <pt x="15" y="706" on="0"/>
        <pt x="42" y="736" on="0"/>
        <pt x="84" y="745" on="0"/>
        <pt x="133" y="743" on="0"/>
        <pt x="155" y="744" on="1"/>
        <pt x="155" y="752" on="1"/>
        <pt x="135" y="750" on="0"/>
        <pt x="99" y="746" on="0"/>
        <pt x="81" y="746" on="1"/>
        <pt x="49" y="746" on="0"/>
        <pt x="49" y="774" on="1"/>
        <pt x="49" y="800" on="0"/>
        <pt x="67" y="828" on="0"/>
        <pt x="96" y="841" on="0"/>
        <pt x="133" y="843" on="0"/>
        <pt x="153" y="844" on="1"/>
        <pt x="155" y="899" on="0"/>
        <pt x="179" y="1024" on="0"/>
        <pt x="233" y="1131" on="0"/>
        <pt x="324" y="1202" on="0"/>
        <pt x="393" y="1202" on="1"/>
        <pt x="452" y="1202" on="0"/>
        <pt x="538" y="1141" on="0"/>
        <pt x="561" y="1088" on="1"/>
        <pt x="566" y="1074" on="0"/>
        <pt x="575" y="1049" on="0"/>
        <pt x="575" y="1034" on="1"/>
        <pt x="575" y="1006" on="0"/>
        <pt x="547" y="1006" on="1"/>
        <pt x="523" y="1006" on="0"/>
        <pt x="495" y="1023" on="0"/>
        <pt x="476" y="1050" on="0"/>
        <pt x="461" y="1080" on="0"/>
        <pt x="442" y="1107" on="0"/>
        <pt x="414" y="1124" on="0"/>
        <pt x="391" y="1124" on="1"/>
        <pt x="364" y="1124" on="0"/>
        <pt x="324" y="1094" on="0"/>
        <pt x="295" y="1046" on="0"/>
        <pt x="277" y="987" on="0"/>
        <pt x="265" y="926" on="0"/>
        <pt x="260" y="871" on="0"/>
        <pt x="259" y="852" on="1"/>
        <pt x="286" y="854" on="0"/>
        <pt x="340" y="856" on="0"/>
        <pt x="369" y="856" on="1"/>
        <pt x="380" y="856" on="0"/>
        <pt x="403" y="849" on="0"/>
        <pt x="403" y="834" on="1"/>
        <pt x="403" y="810" on="0"/>
        <pt x="370" y="785" on="0"/>
        <pt x="325" y="773" on="0"/>
        <pt x="275" y="770" on="0"/>
        <pt x="259" y="768" on="1"/>
        <pt x="261" y="748" on="1"/>
        <pt x="278" y="750" on="0"/>
        <pt x="313" y="750" on="0"/>
        <pt x="331" y="750" on="1"/>
        <pt x="343" y="750" on="0"/>
        <pt x="371" y="744" on="0"/>
      </contour>
    </TTGlyph>
    <TTGlyph name="F" xMin="81" yMin="0" xMax="653" yMax="1391">
      <contour>
        <pt x="653" y="1360" on="1"/>
        <pt x="653" y="1330" on="0"/>
        <pt x="621" y="1296" on="0"/>
        <pt x="573" y="1280" on="0"/>
        <pt x="519" y="1276" on="0"/>
        <pt x="497" y="1276" on="1"/>
        <pt x="453" y="1276" on="0"/>
        <pt x="365" y="1278" on="0"/>
        <pt x="321" y="1278" on="1"/>
        <pt x="300" y="1278" on="0"/>
        <pt x="258" y="1278" on="0"/>
        <pt x="237" y="1276" on="1"/>
        <pt x="229" y="1259" on="0"/>
        <pt x="225" y="1224" on="0"/>
        <pt x="225" y="1206" on="1"/>
        <pt x="225" y="1112" on="0"/>
        <pt x="239" y="928" on="0"/>
        <pt x="247" y="834" on="1"/>
        <pt x="307" y="839" on="0"/>
        <pt x="427" y="853" on="0"/>
        <pt x="489" y="862" on="1"/>
        <pt x="497" y="862" on="0"/>
        <pt x="511" y="864" on="0"/>
        <pt x="519" y="864" on="1"/>
        <pt x="559" y="864" on="0"/>
        <pt x="559" y="820" on="1"/>
        <pt x="559" y="808" on="0"/>
        <pt x="554" y="784" on="0"/>
        <pt x="549" y="772" on="1"/>
        <pt x="542" y="752" on="0"/>
        <pt x="510" y="733" on="0"/>
        <pt x="470" y="726" on="0"/>
        <pt x="427" y="727" on="0"/>
        <pt x="411" y="726" on="1"/>
        <pt x="255" y="720" on="1"/>
        <pt x="261" y="625" on="0"/>
        <pt x="275" y="439" on="0"/>
        <pt x="283" y="344" on="1"/>
        <pt x="291" y="272" on="0"/>
        <pt x="302" y="126" on="0"/>
        <pt x="313" y="54" on="1"/>
        <pt x="313" y="38" on="1"/>
        <pt x="313" y="15" on="0"/>
        <pt x="287" y="0" on="0"/>
        <pt x="267" y="0" on="1"/>
        <pt x="230" y="0" on="0"/>
        <pt x="197" y="12" on="1"/>
        <pt x="175" y="20" on="0"/>
        <pt x="153" y="43" on="0"/>
        <pt x="144" y="72" on="0"/>
        <pt x="142" y="106" on="0"/>
        <pt x="141" y="126" on="1"/>
        <pt x="132" y="277" on="0"/>
        <pt x="110" y="576" on="0"/>
        <pt x="101" y="728" on="1"/>
        <pt x="95" y="840" on="0"/>
        <pt x="81" y="1060" on="0"/>
        <pt x="81" y="1172" on="1"/>
        <pt x="81" y="1231" on="0"/>
        <pt x="96" y="1314" on="0"/>
        <pt x="138" y="1366" on="0"/>
        <pt x="216" y="1390" on="0"/>
        <pt x="279" y="1390" on="1"/>
        <pt x="344" y="1390" on="0"/>
        <pt x="472" y="1388" on="0"/>
        <pt x="537" y="1388" on="1"/>
        <pt x="560" y="1388" on="0"/>
        <pt x="602" y="1391" on="0"/>
        <pt x="623" y="1386" on="1"/>
        <pt x="635" y="1384" on="0"/>
        <pt x="653" y="1375" on="0"/>
      </contour>
    </TTGlyph>
    <TTGlyph name="G" xMin="53" yMin="-60" xMax="841" yMax="1424">
      <contour>
        <pt x="841" y="718" on="1"/>
        <pt x="841" y="686" on="0"/>
        <pt x="818" y="651" on="0"/>
        <pt x="780" y="633" on="0"/>
        <pt x="733" y="629" on="0"/>
        <pt x="709" y="628" on="1"/>
        <pt x="763" y="572" on="0"/>
        <pt x="827" y="426" on="0"/>
        <pt x="827" y="348" on="1"/>
        <pt x="827" y="271" on="0"/>
        <pt x="775" y="124" on="0"/>
        <pt x="679" y="10" on="0"/>
        <pt x="545" y="-60" on="0"/>
        <pt x="463" y="-60" on="1"/>
        <pt x="398" y="-60" on="0"/>
        <pt x="294" y="-10" on="0"/>
        <pt x="212" y="77" on="0"/>
        <pt x="150" y="192" on="0"/>
        <pt x="106" y="323" on="0"/>
        <pt x="77" y="463" on="0"/>
        <pt x="60" y="597" on="0"/>
        <pt x="53" y="718" on="0"/>
        <pt x="53" y="766" on="1"/>
        <pt x="53" y="822" on="0"/>
        <pt x="64" y="950" on="0"/>
        <pt x="90" y="1080" on="0"/>
        <pt x="134" y="1204" on="0"/>
        <pt x="202" y="1309" on="0"/>
        <pt x="295" y="1388" on="0"/>
        <pt x="357" y="1408" on="1"/>
        <pt x="380" y="1416" on="0"/>
        <pt x="426" y="1424" on="0"/>
        <pt x="449" y="1424" on="1"/>
        <pt x="549" y="1424" on="0"/>
        <pt x="682" y="1316" on="0"/>
        <pt x="715" y="1224" on="1"/>
        <pt x="721" y="1210" on="0"/>
        <pt x="729" y="1181" on="0"/>
        <pt x="729" y="1166" on="1"/>
        <pt x="729" y="1148" on="0"/>
        <pt x="703" y="1138" on="0"/>
        <pt x="689" y="1138" on="1"/>
        <pt x="653" y="1138" on="0"/>
        <pt x="609" y="1164" on="0"/>
        <pt x="579" y="1202" on="0"/>
        <pt x="556" y="1248" on="0"/>
        <pt x="528" y="1286" on="0"/>
        <pt x="486" y="1312" on="0"/>
        <pt x="451" y="1312" on="1"/>
        <pt x="401" y="1312" on="0"/>
        <pt x="325" y="1256" on="0"/>
        <pt x="269" y="1165" on="0"/>
        <pt x="231" y="1050" on="0"/>
        <pt x="209" y="935" on="0"/>
        <pt x="199" y="829" on="0"/>
        <pt x="199" y="792" on="1"/>
        <pt x="199" y="753" on="0"/>
        <pt x="209" y="615" on="0"/>
        <pt x="232" y="453" on="0"/>
        <pt x="271" y="286" on="0"/>
        <pt x="330" y="150" on="0"/>
        <pt x="411" y="64" on="0"/>
        <pt x="465" y="64" on="1"/>
        <pt x="512" y="64" on="0"/>
        <pt x="588" y="119" on="0"/>
        <pt x="641" y="202" on="0"/>
        <pt x="669" y="297" on="0"/>
        <pt x="669" y="338" on="1"/>
        <pt x="669" y="377" on="0"/>
        <pt x="647" y="454" on="0"/>
        <pt x="607" y="523" on="0"/>
        <pt x="551" y="582" on="0"/>
        <pt x="517" y="602" on="1"/>
        <pt x="505" y="610" on="0"/>
        <pt x="476" y="623" on="0"/>
        <pt x="461" y="628" on="1"/>
        <pt x="453" y="629" on="0"/>
        <pt x="407" y="632" on="0"/>
        <pt x="359" y="638" on="0"/>
        <pt x="321" y="651" on="0"/>
        <pt x="321" y="664" on="1"/>
        <pt x="321" y="682" on="0"/>
        <pt x="333" y="720" on="0"/>
        <pt x="356" y="750" on="0"/>
        <pt x="387" y="770" on="0"/>
        <pt x="407" y="770" on="1"/>
        <pt x="436" y="770" on="0"/>
        <pt x="503" y="753" on="0"/>
        <pt x="529" y="742" on="1"/>
        <pt x="579" y="745" on="0"/>
        <pt x="677" y="752" on="0"/>
        <pt x="725" y="758" on="1"/>
        <pt x="742" y="760" on="0"/>
        <pt x="775" y="766" on="0"/>
        <pt x="793" y="766" on="1"/>
        <pt x="817" y="766" on="0"/>
        <pt x="841" y="744" on="0"/>
      </contour>
    </TTGlyph>
    <TTGlyph name="Gbreve" xMin="53" yMin="-60" xMax="841" yMax="1740">
      <component glyphName="G" x="0" y="0" flags="0x204"/>
      <component glyphName="breve" x="312" y="444" flags="0x4"/>
    </TTGlyph>
    <TTGlyph name="Gcircumflex" xMin="53" yMin="-60" xMax="841" yMax="1760">
      <component glyphName="G" x="0" y="0" flags="0x204"/>
      <component glyphName="circumflex" x="310" y="440" flags="0x4"/>
    </TTGlyph>
    <TTGlyph name="Gcommaaccent" xMin="53" yMin="-414" xMax="841" yMax="1424">
      <component glyphName="G" x="0" y="0" flags="0x204"/>
      <component glyphName="uni0326" x="397" y="-62" flags="0x4"/>
    </TTGlyph>
    <TTGlyph name="Gdotaccent" xMin="53" yMin="-60" xMax="841" yMax="1639">
      <component glyphName="G" x="0" y="0" flags="0x204"/>
      <component glyphName="dotaccent" x="369" y="305" flags="0x4"/>
    </TTGlyph>
    <TTGlyph name="H" xMin="66" yMin="-2" xMax="838" yMax="1440">
      <contour>
        <pt x="838" y="778" on="1"/>
        <pt x="838" y="733" on="0"/>
        <pt x="792" y="696" on="0"/>
        <pt x="750" y="688" on="1"/>
        <pt x="759" y="534" on="0"/>
        <pt x="764" y="230" on="0"/>
        <pt x="764" y="76" on="1"/>
        <pt x="764" y="52" on="0"/>
        <pt x="744" y="26" on="0"/>
        <pt x="718" y="26" on="1"/>
        <pt x="696" y="26" on="0"/>
        <pt x="653" y="36" on="0"/>
        <pt x="619" y="57" on="0"/>
        <pt x="598" y="92" on="0"/>
        <pt x="598" y="118" on="1"/>
        <pt x="598" y="430" on="1"/>
        <pt x="598" y="489" on="0"/>
        <pt x="598" y="607" on="0"/>
        <pt x="596" y="666" on="1"/>
        <pt x="510" y="654" on="0"/>
        <pt x="338" y="637" on="0"/>
        <pt x="252" y="634" on="1"/>
        <pt x="255" y="421" on="0"/>
        <pt x="264" y="208" on="1"/>
        <pt x="267" y="164" on="0"/>
        <pt x="274" y="80" on="0"/>
        <pt x="274" y="38" on="1"/>
        <pt x="274" y="18" on="0"/>
        <pt x="252" y="-2" on="0"/>
        <pt x="232" y="-2" on="1"/>
        <pt x="217" y="-2" on="0"/>
        <pt x="183" y="3" on="0"/>
        <pt x="150" y="15" on="0"/>
        <pt x="122" y="33" on="0"/>
        <pt x="114" y="46" on="1"/>
        <pt x="111" y="51" on="0"/>
        <pt x="107" y="101" on="0"/>
        <pt x="104" y="177" on="0"/>
        <pt x="102" y="273" on="0"/>
        <pt x="102" y="375" on="0"/>
        <pt x="102" y="474" on="0"/>
        <pt x="102" y="558" on="0"/>
        <pt x="102" y="620" on="0"/>
        <pt x="102" y="632" on="1"/>
        <pt x="88" y="632" on="0"/>
        <pt x="66" y="645" on="0"/>
        <pt x="66" y="660" on="1"/>
        <pt x="66" y="678" on="0"/>
        <pt x="87" y="711" on="0"/>
        <pt x="102" y="722" on="1"/>
        <pt x="102" y="1326" on="1"/>
        <pt x="102" y="1346" on="0"/>
        <pt x="117" y="1370" on="0"/>
        <pt x="138" y="1370" on="1"/>
        <pt x="172" y="1370" on="0"/>
        <pt x="213" y="1350" on="0"/>
        <pt x="234" y="1315" on="0"/>
        <pt x="241" y="1266" on="0"/>
        <pt x="242" y="1238" on="1"/>
        <pt x="245" y="1116" on="0"/>
        <pt x="247" y="872" on="0"/>
        <pt x="250" y="750" on="1"/>
        <pt x="336" y="758" on="0"/>
        <pt x="506" y="775" on="0"/>
        <pt x="592" y="792" on="1"/>
        <pt x="587" y="898" on="0"/>
        <pt x="572" y="1106" on="0"/>
        <pt x="558" y="1212" on="1"/>
        <pt x="550" y="1262" on="0"/>
        <pt x="528" y="1361" on="0"/>
        <pt x="528" y="1412" on="1"/>
        <pt x="528" y="1430" on="0"/>
        <pt x="555" y="1440" on="0"/>
        <pt x="570" y="1440" on="1"/>
        <pt x="594" y="1440" on="0"/>
        <pt x="643" y="1424" on="0"/>
        <pt x="658" y="1404" on="1"/>
        <pt x="667" y="1391" on="0"/>
        <pt x="687" y="1308" on="0"/>
        <pt x="704" y="1194" on="0"/>
        <pt x="720" y="1062" on="0"/>
        <pt x="732" y="941" on="0"/>
        <pt x="741" y="844" on="0"/>
        <pt x="742" y="822" on="1"/>
        <pt x="754" y="825" on="0"/>
        <pt x="780" y="830" on="0"/>
        <pt x="792" y="830" on="1"/>
        <pt x="816" y="830" on="0"/>
        <pt x="838" y="801" on="0"/>
      </contour>
    </TTGlyph>
    <TTGlyph name="Hbar" xMin="59" yMin="-2" xMax="838" yMax="1440">
      <contour>
        <pt x="838" y="778" on="1"/>
        <pt x="838" y="733" on="0"/>
        <pt x="792" y="696" on="0"/>
        <pt x="750" y="688" on="1"/>
        <pt x="759" y="534" on="0"/>
        <pt x="764" y="230" on="0"/>
        <pt x="764" y="76" on="1"/>
        <pt x="764" y="52" on="0"/>
        <pt x="744" y="26" on="0"/>
        <pt x="718" y="26" on="1"/>
        <pt x="696" y="26" on="0"/>
        <pt x="653" y="36" on="0"/>
        <pt x="619" y="57" on="0"/>
        <pt x="598" y="92" on="0"/>
        <pt x="598" y="118" on="1"/>
        <pt x="598" y="430" on="1"/>
        <pt x="598" y="489" on="0"/>
        <pt x="598" y="607" on="0"/>
        <pt x="596" y="666" on="1"/>
        <pt x="510" y="654" on="0"/>
        <pt x="338" y="637" on="0"/>
        <pt x="252" y="634" on="1"/>
        <pt x="255" y="421" on="0"/>
        <pt x="264" y="208" on="1"/>
        <pt x="267" y="164" on="0"/>
        <pt x="274" y="80" on="0"/>
        <pt x="274" y="38" on="1"/>
        <pt x="274" y="18" on="0"/>
        <pt x="252" y="-2" on="0"/>
        <pt x="232" y="-2" on="1"/>
        <pt x="217" y="-2" on="0"/>
        <pt x="183" y="3" on="0"/>
        <pt x="150" y="15" on="0"/>
        <pt x="122" y="33" on="0"/>
        <pt x="114" y="46" on="1"/>
        <pt x="111" y="51" on="0"/>
        <pt x="107" y="101" on="0"/>
        <pt x="104" y="177" on="0"/>
        <pt x="102" y="273" on="0"/>
        <pt x="102" y="375" on="0"/>
        <pt x="102" y="474" on="0"/>
        <pt x="102" y="558" on="0"/>
        <pt x="102" y="620" on="0"/>
        <pt x="102" y="632" on="1"/>
        <pt x="88" y="632" on="0"/>
        <pt x="66" y="645" on="0"/>
        <pt x="66" y="660" on="1"/>
        <pt x="66" y="678" on="0"/>
        <pt x="87" y="711" on="0"/>
        <pt x="102" y="722" on="1"/>
        <pt x="102" y="849" on="1"/>
        <pt x="85" y="851" on="0"/>
        <pt x="62" y="861" on="0"/>
        <pt x="61" y="872" on="1"/>
        <pt x="59" y="888" on="0"/>
        <pt x="82" y="925" on="0"/>
        <pt x="102" y="938" on="1"/>
        <pt x="102" y="1326" on="1"/>
        <pt x="102" y="1346" on="0"/>
        <pt x="117" y="1370" on="0"/>
        <pt x="138" y="1370" on="1"/>
        <pt x="172" y="1370" on="0"/>
        <pt x="213" y="1350" on="0"/>
        <pt x="234" y="1315" on="0"/>
        <pt x="241" y="1266" on="0"/>
        <pt x="242" y="1238" on="1"/>
        <pt x="244" y="1170" on="0"/>
        <pt x="245" y="1036" on="0"/>
        <pt x="246" y="968" on="1"/>
        <pt x="282" y="973" on="0"/>
        <pt x="366" y="983" on="0"/>
        <pt x="454" y="993" on="0"/>
        <pt x="540" y="1002" on="0"/>
        <pt x="579" y="1006" on="1"/>
        <pt x="571" y="1109" on="0"/>
        <pt x="558" y="1212" on="1"/>
        <pt x="550" y="1262" on="0"/>
        <pt x="528" y="1361" on="0"/>
        <pt x="528" y="1412" on="1"/>
        <pt x="528" y="1430" on="0"/>
        <pt x="555" y="1440" on="0"/>
        <pt x="570" y="1440" on="1"/>
        <pt x="594" y="1440" on="0"/>
        <pt x="643" y="1424" on="0"/>
        <pt x="658" y="1404" on="1"/>
        <pt x="667" y="1392" on="0"/>
        <pt x="685" y="1313" on="0"/>
        <pt x="703" y="1205" on="0"/>
        <pt x="718" y="1079" on="0"/>
        <pt x="724" y="1019" on="1"/>
        <pt x="756" y="1022" on="0"/>
        <pt x="804" y="1013" on="0"/>
        <pt x="806" y="990" on="1"/>
        <pt x="808" y="958" on="0"/>
        <pt x="774" y="910" on="0"/>
        <pt x="736" y="897" on="1"/>
        <pt x="742" y="822" on="1"/>
        <pt x="754" y="825" on="0"/>
        <pt x="780" y="830" on="0"/>
        <pt x="792" y="830" on="1"/>
        <pt x="816" y="830" on="0"/>
        <pt x="838" y="801" on="0"/>
      </contour>
      <contour>
        <pt x="247" y="857" on="1"/>
        <pt x="250" y="750" on="1"/>
        <pt x="336" y="758" on="0"/>
        <pt x="506" y="775" on="0"/>
        <pt x="592" y="792" on="1"/>
        <pt x="588" y="879" on="1"/>
        <pt x="502" y="873" on="0"/>
        <pt x="334" y="863" on="0"/>
      </contour>
    </TTGlyph>
    <TTGlyph name="Hcircumflex" xMin="66" yMin="-2" xMax="838" yMax="1764">
      <component glyphName="H" x="0" y="0" flags="0x204"/>
      <component glyphName="circumflex" x="241" y="444" flags="0x4"/>
    </TTGlyph>
    <TTGlyph name="I" xMin="-7" yMin="-6" xMax="659" yMax="1446">
      <contour>
        <pt x="659" y="144" on="1"/>
        <pt x="659" y="115" on="0"/>
        <pt x="629" y="64" on="0"/>
        <pt x="603" y="52" on="1"/>
        <pt x="595" y="48" on="0"/>
        <pt x="533" y="41" on="0"/>
        <pt x="461" y="35" on="0"/>
        <pt x="396" y="29" on="0"/>
        <pt x="383" y="28" on="1"/>
        <pt x="380" y="11" on="0"/>
        <pt x="354" y="-2" on="0"/>
        <pt x="339" y="-2" on="1"/>
        <pt x="322" y="-2" on="0"/>
        <pt x="278" y="8" on="0"/>
        <pt x="261" y="14" on="1"/>
        <pt x="216" y="8" on="0"/>
        <pt x="124" y="-6" on="0"/>
        <pt x="77" y="-6" on="1"/>
        <pt x="41" y="-6" on="0"/>
        <pt x="41" y="28" on="1"/>
        <pt x="41" y="62" on="0"/>
        <pt x="79" y="98" on="0"/>
        <pt x="133" y="116" on="0"/>
        <pt x="195" y="122" on="0"/>
        <pt x="219" y="126" on="1"/>
        <pt x="214" y="410" on="0"/>
        <pt x="203" y="970" on="0"/>
        <pt x="203" y="1254" on="1"/>
        <pt x="162" y="1251" on="0"/>
        <pt x="84" y="1246" on="0"/>
        <pt x="45" y="1246" on="1"/>
        <pt x="37" y="1246" on="0"/>
        <pt x="19" y="1247" on="0"/>
        <pt x="4" y="1252" on="0"/>
        <pt x="-7" y="1263" on="0"/>
        <pt x="-7" y="1274" on="1"/>
        <pt x="-7" y="1293" on="0"/>
        <pt x="9" y="1322" on="0"/>
        <pt x="36" y="1341" on="0"/>
        <pt x="68" y="1353" on="0"/>
        <pt x="85" y="1356" on="1"/>
        <pt x="128" y="1364" on="0"/>
        <pt x="217" y="1375" on="0"/>
        <pt x="306" y="1386" on="0"/>
        <pt x="395" y="1398" on="0"/>
        <pt x="439" y="1408" on="1"/>
        <pt x="481" y="1417" on="0"/>
        <pt x="565" y="1446" on="0"/>
        <pt x="609" y="1446" on="1"/>
        <pt x="633" y="1446" on="0"/>
        <pt x="649" y="1411" on="0"/>
        <pt x="649" y="1390" on="1"/>
        <pt x="649" y="1373" on="0"/>
        <pt x="642" y="1342" on="0"/>
        <pt x="631" y="1328" on="1"/>
        <pt x="625" y="1320" on="0"/>
        <pt x="584" y="1305" on="0"/>
        <pt x="527" y="1293" on="0"/>
        <pt x="462" y="1282" on="0"/>
        <pt x="401" y="1273" on="0"/>
        <pt x="351" y="1267" on="0"/>
        <pt x="339" y="1266" on="1"/>
        <pt x="350" y="1127" on="0"/>
        <pt x="359" y="849" on="0"/>
        <pt x="365" y="571" on="0"/>
        <pt x="371" y="293" on="0"/>
        <pt x="379" y="154" on="1"/>
        <pt x="436" y="163" on="0"/>
        <pt x="552" y="180" on="0"/>
        <pt x="611" y="180" on="1"/>
        <pt x="628" y="180" on="0"/>
        <pt x="659" y="165" on="0"/>
      </contour>
    </TTGlyph>
    <TTGlyph name="IJ" xMin="-7" yMin="-6" xMax="1557" yMax="1446">
      <component glyphName="I" x="0" y="0" flags="0x4"/>
      <component glyphName="J" x="664" y="0" flags="0x4"/>
    </TTGlyph>
    <TTGlyph name="Iacute" xMin="-10" yMin="-6" xMax="656" yMax="1700">
      <component glyphName="I" x="-3" y="0" flags="0x4"/>
      <component glyphName="acute" x="259" y="334" flags="0x4"/>
    </TTGlyph>
    <TTGlyph name="Ibreve" xMin="-7" yMin="-6" xMax="659" yMax="1717">
      <component glyphName="I" x="0" y="0" flags="0x204"/>
      <component glyphName="breve" x="159" y="421" flags="0x4"/>
    </TTGlyph>
    <TTGlyph name="Icircumflex" xMin="-7" yMin="-6" xMax="659" yMax="1752">
      <component glyphName="I" x="0" y="0" flags="0x204"/>
      <component glyphName="circumflex" x="139" y="432" flags="0x4"/>
    </TTGlyph>
    <TTGlyph name="Idieresis" xMin="-7" yMin="-6" xMax="659" yMax="1628">
      <component glyphName="I" x="0" y="0" flags="0x204"/>
      <component glyphName="dieresis" x="71" y="294" flags="0x4"/>
    </TTGlyph>
    <TTGlyph name="Idotaccent" xMin="-7" yMin="-6" xMax="659" yMax="1607">
      <component glyphName="I" x="0" y="0" flags="0x204"/>
      <component glyphName="dotaccent" x="226" y="273" flags="0x4"/>
    </TTGlyph>
    <TTGlyph name="Igrave" xMin="-7" yMin="-6" xMax="659" yMax="1700">
      <component glyphName="I" x="0" y="0" flags="0x204"/>
      <component glyphName="grave" x="47" y="334" flags="0x4"/>
    </TTGlyph>
    <TTGlyph name="Imacron" xMin="-7" yMin="-6" xMax="659" yMax="1571">
      <component glyphName="I" x="0" y="0" flags="0x204"/>
      <component glyphName="macron" x="101" y="333" flags="0x4"/>
    </TTGlyph>
    <TTGlyph name="Iogonek" xMin="-7" yMin="-246" xMax="659" yMax="1446">
      <contour>
        <pt x="478" y="-190" on="1"/>
        <pt x="478" y="-206" on="0"/>
        <pt x="449" y="-227" on="0"/>
        <pt x="410" y="-240" on="0"/>
        <pt x="370" y="-246" on="0"/>
        <pt x="358" y="-246" on="1"/>
        <pt x="331" y="-246" on="0"/>
        <pt x="276" y="-227" on="0"/>
        <pt x="232" y="-193" on="0"/>
        <pt x="204" y="-145" on="0"/>
        <pt x="204" y="-116" on="1"/>
        <pt x="204" y="-87" on="0"/>
        <pt x="231" y="-19" on="0"/>
        <pt x="252" y="13" on="1"/>
        <pt x="209" y="7" on="0"/>
        <pt x="122" y="-6" on="0"/>
        <pt x="77" y="-6" on="1"/>
        <pt x="41" y="-6" on="0"/>
        <pt x="41" y="28" on="1"/>
        <pt x="41" y="62" on="0"/>
        <pt x="79" y="98" on="0"/>
        <pt x="133" y="116" on="0"/>
        <pt x="195" y="122" on="0"/>
        <pt x="219" y="126" on="1"/>
        <pt x="214" y="410" on="0"/>
        <pt x="203" y="970" on="0"/>
        <pt x="203" y="1254" on="1"/>
        <pt x="162" y="1251" on="0"/>
        <pt x="84" y="1246" on="0"/>
        <pt x="45" y="1246" on="1"/>
        <pt x="37" y="1246" on="0"/>
        <pt x="19" y="1247" on="0"/>
        <pt x="4" y="1252" on="0"/>
        <pt x="-7" y="1263" on="0"/>
        <pt x="-7" y="1274" on="1"/>
        <pt x="-7" y="1293" on="0"/>
        <pt x="9" y="1322" on="0"/>
        <pt x="36" y="1341" on="0"/>
        <pt x="68" y="1353" on="0"/>
        <pt x="85" y="1356" on="1"/>
        <pt x="128" y="1364" on="0"/>
        <pt x="217" y="1375" on="0"/>
        <pt x="306" y="1386" on="0"/>
        <pt x="395" y="1398" on="0"/>
        <pt x="439" y="1408" on="1"/>
        <pt x="481" y="1417" on="0"/>
        <pt x="565" y="1446" on="0"/>
        <pt x="609" y="1446" on="1"/>
        <pt x="633" y="1446" on="0"/>
        <pt x="649" y="1411" on="0"/>
        <pt x="649" y="1390" on="1"/>
        <pt x="649" y="1373" on="0"/>
        <pt x="642" y="1342" on="0"/>
        <pt x="631" y="1328" on="1"/>
        <pt x="625" y="1320" on="0"/>
        <pt x="584" y="1305" on="0"/>
        <pt x="527" y="1293" on="0"/>
        <pt x="462" y="1282" on="0"/>
        <pt x="401" y="1273" on="0"/>
        <pt x="351" y="1267" on="0"/>
        <pt x="339" y="1266" on="1"/>
        <pt x="350" y="1127" on="0"/>
        <pt x="359" y="849" on="0"/>
        <pt x="365" y="571" on="0"/>
        <pt x="371" y="293" on="0"/>
        <pt x="379" y="154" on="1"/>
        <pt x="436" y="163" on="0"/>
        <pt x="552" y="180" on="0"/>
        <pt x="611" y="180" on="1"/>
        <pt x="628" y="180" on="0"/>
        <pt x="659" y="165" on="0"/>
        <pt x="659" y="144" on="1"/>
        <pt x="659" y="115" on="0"/>
        <pt x="629" y="64" on="0"/>
        <pt x="603" y="52" on="1"/>
        <pt x="596" y="49" on="0"/>
        <pt x="549" y="42" on="0"/>
        <pt x="490" y="37" on="0"/>
        <pt x="428" y="32" on="0"/>
        <pt x="407" y="30" on="1"/>
        <pt x="396" y="14" on="0"/>
        <pt x="363" y="-23" on="0"/>
        <pt x="332" y="-63" on="0"/>
        <pt x="310" y="-103" on="0"/>
        <pt x="310" y="-122" on="1"/>
        <pt x="310" y="-142" on="0"/>
        <pt x="346" y="-168" on="0"/>
        <pt x="364" y="-168" on="1"/>
        <pt x="377" y="-168" on="0"/>
        <pt x="400" y="-161" on="0"/>
        <pt x="420" y="-152" on="0"/>
        <pt x="437" y="-144" on="0"/>
        <pt x="444" y="-144" on="1"/>
        <pt x="462" y="-144" on="0"/>
        <pt x="478" y="-175" on="0"/>
      </contour>
    </TTGlyph>
    <TTGlyph name="Itilde" xMin="-7" yMin="-6" xMax="659" yMax="1704">
      <component glyphName="I" x="0" y="0" flags="0x204"/>
      <component glyphName="tilde" x="114" y="416" flags="0x4"/>
    </TTGlyph>
    <TTGlyph name="J" xMin="13" yMin="-6" xMax="893" yMax="1410">
      <contour>
        <pt x="893" y="1364" on="1"/>
        <pt x="893" y="1324" on="0"/>
        <pt x="858" y="1285" on="0"/>
        <pt x="804" y="1269" on="0"/>
        <pt x="741" y="1266" on="0"/>
        <pt x="713" y="1262" on="1"/>
        <pt x="659" y="1256" on="1"/>
        <pt x="682" y="1079" on="0"/>
        <pt x="693" y="726" on="0"/>
        <pt x="693" y="546" on="1"/>
        <pt x="693" y="490" on="0"/>
        <pt x="687" y="365" on="0"/>
        <pt x="665" y="242" on="0"/>
        <pt x="623" y="130" on="0"/>
        <pt x="551" y="45" on="0"/>
        <pt x="445" y="-6" on="0"/>
        <pt x="371" y="-6" on="1"/>
        <pt x="286" y="-6" on="0"/>
        <pt x="153" y="67" on="0"/>
        <pt x="61" y="185" on="0"/>
        <pt x="13" y="336" on="0"/>
        <pt x="13" y="414" on="1"/>
        <pt x="13" y="430" on="0"/>
        <pt x="16" y="502" on="0"/>
        <pt x="29" y="577" on="0"/>
        <pt x="56" y="634" on="0"/>
        <pt x="79" y="634" on="1"/>
        <pt x="92" y="634" on="0"/>
        <pt x="131" y="621" on="0"/>
        <pt x="166" y="599" on="0"/>
        <pt x="191" y="570" on="0"/>
        <pt x="191" y="554" on="1"/>
        <pt x="191" y="516" on="0"/>
        <pt x="173" y="444" on="0"/>
        <pt x="173" y="406" on="1"/>
        <pt x="173" y="365" on="0"/>
        <pt x="197" y="265" on="0"/>
        <pt x="245" y="176" on="0"/>
        <pt x="318" y="116" on="0"/>
        <pt x="367" y="116" on="1"/>
        <pt x="403" y="116" on="0"/>
        <pt x="454" y="143" on="0"/>
        <pt x="489" y="188" on="0"/>
        <pt x="510" y="246" on="0"/>
        <pt x="517" y="276" on="1"/>
        <pt x="540" y="377" on="0"/>
        <pt x="547" y="584" on="0"/>
        <pt x="547" y="690" on="1"/>
        <pt x="547" y="827" on="0"/>
        <pt x="534" y="1101" on="0"/>
        <pt x="517" y="1238" on="1"/>
        <pt x="449" y="1230" on="0"/>
        <pt x="317" y="1212" on="0"/>
        <pt x="249" y="1212" on="1"/>
        <pt x="232" y="1212" on="0"/>
        <pt x="213" y="1226" on="0"/>
        <pt x="213" y="1244" on="1"/>
        <pt x="213" y="1279" on="0"/>
        <pt x="255" y="1316" on="0"/>
        <pt x="287" y="1324" on="1"/>
        <pt x="340" y="1339" on="0"/>
        <pt x="451" y="1352" on="0"/>
        <pt x="505" y="1360" on="1"/>
        <pt x="505" y="1376" on="1"/>
        <pt x="505" y="1393" on="0"/>
        <pt x="529" y="1402" on="0"/>
        <pt x="543" y="1402" on="1"/>
        <pt x="564" y="1402" on="0"/>
        <pt x="604" y="1390" on="0"/>
        <pt x="621" y="1376" on="1"/>
        <pt x="677" y="1385" on="0"/>
        <pt x="788" y="1410" on="0"/>
        <pt x="847" y="1410" on="1"/>
        <pt x="868" y="1410" on="0"/>
        <pt x="893" y="1385" on="0"/>
      </contour>
    </TTGlyph>
    <TTGlyph name="Jcircumflex" xMin="13" yMin="-6" xMax="893" yMax="1746">
      <component glyphName="J" x="0" y="0" flags="0x204"/>
      <component glyphName="circumflex" x="449" y="426" flags="0x4"/>
    </TTGlyph>
    <TTGlyph name="K" xMin="75" yMin="-38" xMax="779" yMax="1418">
      <contour>
        <pt x="779" y="16" on="1"/>
        <pt x="779" y="2" on="0"/>
        <pt x="753" y="-18" on="0"/>
        <pt x="717" y="-30" on="0"/>
        <pt x="680" y="-36" on="0"/>
        <pt x="669" y="-36" on="1"/>
        <pt x="666" y="-36" on="0"/>
        <pt x="662" y="-38" on="0"/>
        <pt x="659" y="-36" on="1"/>
        <pt x="639" y="-32" on="0"/>
        <pt x="609" y="-13" on="0"/>
        <pt x="585" y="12" on="0"/>
        <pt x="563" y="42" on="0"/>
        <pt x="551" y="58" on="1"/>
        <pt x="471" y="159" on="0"/>
        <pt x="330" y="372" on="0"/>
        <pt x="273" y="490" on="1"/>
        <pt x="261" y="476" on="1"/>
        <pt x="261" y="90" on="1"/>
        <pt x="261" y="79" on="0"/>
        <pt x="259" y="52" on="0"/>
        <pt x="251" y="28" on="0"/>
        <pt x="235" y="12" on="0"/>
        <pt x="221" y="12" on="1"/>
        <pt x="189" y="12" on="0"/>
        <pt x="148" y="32" on="0"/>
        <pt x="125" y="67" on="0"/>
        <pt x="117" y="115" on="0"/>
        <pt x="117" y="144" on="1"/>
        <pt x="117" y="238" on="0"/>
        <pt x="113" y="424" on="0"/>
        <pt x="113" y="518" on="1"/>
        <pt x="113" y="559" on="0"/>
        <pt x="119" y="637" on="0"/>
        <pt x="119" y="678" on="1"/>
        <pt x="119" y="821" on="0"/>
        <pt x="97" y="1104" on="0"/>
        <pt x="85" y="1246" on="1"/>
        <pt x="82" y="1279" on="0"/>
        <pt x="75" y="1345" on="0"/>
        <pt x="75" y="1378" on="1"/>
        <pt x="75" y="1402" on="0"/>
        <pt x="107" y="1418" on="0"/>
        <pt x="125" y="1418" on="1"/>
        <pt x="181" y="1418" on="0"/>
        <pt x="245" y="1372" on="0"/>
        <pt x="245" y="1312" on="1"/>
        <pt x="245" y="1221" on="0"/>
        <pt x="251" y="1134" on="1"/>
        <pt x="256" y="1025" on="0"/>
        <pt x="259" y="811" on="0"/>
        <pt x="261" y="702" on="1"/>
        <pt x="369" y="837" on="0"/>
        <pt x="493" y="1148" on="0"/>
        <pt x="525" y="1318" on="1"/>
        <pt x="526" y="1328" on="0"/>
        <pt x="531" y="1358" on="0"/>
        <pt x="540" y="1387" on="0"/>
        <pt x="557" y="1408" on="0"/>
        <pt x="571" y="1408" on="1"/>
        <pt x="587" y="1408" on="0"/>
        <pt x="621" y="1397" on="0"/>
        <pt x="648" y="1377" on="0"/>
        <pt x="665" y="1349" on="0"/>
        <pt x="665" y="1332" on="1"/>
        <pt x="665" y="1288" on="0"/>
        <pt x="644" y="1206" on="0"/>
        <pt x="633" y="1164" on="1"/>
        <pt x="612" y="1079" on="0"/>
        <pt x="565" y="935" on="0"/>
        <pt x="504" y="802" on="0"/>
        <pt x="424" y="673" on="0"/>
        <pt x="369" y="604" on="1"/>
        <pt x="411" y="520" on="1"/>
        <pt x="464" y="419" on="0"/>
        <pt x="594" y="228" on="0"/>
        <pt x="671" y="142" on="1"/>
        <pt x="697" y="113" on="0"/>
        <pt x="752" y="64" on="0"/>
        <pt x="773" y="32" on="1"/>
        <pt x="779" y="26" on="0"/>
      </contour>
    </TTGlyph>
    <TTGlyph name="Kcommaaccent" xMin="75" yMin="-354" xMax="779" yMax="1418">
      <component glyphName="K" x="0" y="0" flags="0x204"/>
      <component glyphName="uni0326" x="307" y="-2" flags="0x4"/>
    </TTGlyph>
    <TTGlyph name="L" xMin="103" yMin="-14" xMax="659" yMax="1432">
      <contour>
        <pt x="659" y="146" on="1"/>
        <pt x="659" y="123" on="0"/>
        <pt x="610" y="81" on="0"/>
        <pt x="533" y="46" on="0"/>
        <pt x="440" y="17" on="0"/>
        <pt x="351" y="-3" on="0"/>
        <pt x="277" y="-14" on="0"/>
        <pt x="259" y="-14" on="1"/>
        <pt x="225" y="-14" on="0"/>
        <pt x="168" y="2" on="0"/>
        <pt x="126" y="35" on="0"/>
        <pt x="103" y="87" on="0"/>
        <pt x="103" y="124" on="1"/>
        <pt x="103" y="391" on="0"/>
        <pt x="107" y="921" on="0"/>
        <pt x="107" y="1190" on="1"/>
        <pt x="107" y="1232" on="0"/>
        <pt x="103" y="1314" on="0"/>
        <pt x="103" y="1356" on="1"/>
        <pt x="103" y="1366" on="0"/>
        <pt x="105" y="1393" on="0"/>
        <pt x="113" y="1416" on="0"/>
        <pt x="129" y="1432" on="0"/>
        <pt x="143" y="1432" on="1"/>
        <pt x="157" y="1432" on="0"/>
        <pt x="188" y="1424" on="0"/>
        <pt x="215" y="1408" on="0"/>
        <pt x="236" y="1385" on="0"/>
        <pt x="241" y="1370" on="1"/>
        <pt x="246" y="1352" on="0"/>
        <pt x="245" y="1311" on="0"/>
        <pt x="245" y="1290" on="1"/>
        <pt x="250" y="1024" on="0"/>
        <pt x="255" y="500" on="0"/>
        <pt x="255" y="234" on="1"/>
        <pt x="255" y="204" on="0"/>
        <pt x="256" y="144" on="0"/>
        <pt x="259" y="114" on="1"/>
        <pt x="286" y="115" on="0"/>
        <pt x="364" y="131" on="0"/>
        <pt x="443" y="156" on="0"/>
        <pt x="513" y="188" on="0"/>
        <pt x="533" y="206" on="1"/>
        <pt x="542" y="215" on="0"/>
        <pt x="562" y="234" on="0"/>
        <pt x="577" y="234" on="1"/>
        <pt x="590" y="234" on="0"/>
        <pt x="619" y="216" on="0"/>
        <pt x="643" y="189" on="0"/>
        <pt x="659" y="159" on="0"/>
      </contour>
    </TTGlyph>
    <TTGlyph name="Lacute" xMin="103" yMin="-14" xMax="659" yMax="1732">
      <component glyphName="L" x="0" y="0" flags="0x204"/>
      <component glyphName="acute" x="191" y="366" flags="0x4"/>
    </TTGlyph>
    <TTGlyph name="Lcaron" xMin="103" yMin="-14" xMax="659" yMax="1832">
      <component glyphName="L" x="0" y="0" flags="0x204"/>
      <component glyphName="quoteright" x="189" y="458" flags="0x4"/>
    </TTGlyph>
    <TTGlyph name="Lcommaaccent" xMin="103" yMin="-384" xMax="659" yMax="1432">
      <component glyphName="L" x="0" y="0" flags="0x204"/>
      <component glyphName="uni0326" x="277" y="-32" flags="0x4"/>
    </TTGlyph>
    <TTGlyph name="Ldot" xMin="103" yMin="-14" xMax="659" yMax="1432">
      <component glyphName="L" x="0" y="0" flags="0x204"/>
      <component glyphName="periodcentered" x="316" y="17" flags="0x4"/>
    </TTGlyph>
    <TTGlyph name="Lslash" xMin="33" yMin="-14" xMax="693" yMax="1432">
      <contour>
        <pt x="33" y="568" on="1"/>
        <pt x="33" y="577" on="0"/>
        <pt x="37" y="595" on="0"/>
        <pt x="39" y="604" on="1"/>
        <pt x="46" y="629" on="0"/>
        <pt x="58" y="662" on="0"/>
        <pt x="74" y="686" on="0"/>
        <pt x="98" y="701" on="0"/>
        <pt x="117" y="708" on="1"/>
        <pt x="141" y="716" on="1"/>
        <pt x="141" y="1190" on="1"/>
        <pt x="141" y="1232" on="0"/>
        <pt x="137" y="1314" on="0"/>
        <pt x="137" y="1356" on="1"/>
        <pt x="137" y="1366" on="0"/>
        <pt x="139" y="1393" on="0"/>
        <pt x="147" y="1416" on="0"/>
        <pt x="163" y="1432" on="0"/>
        <pt x="177" y="1432" on="1"/>
        <pt x="206" y="1432" on="0"/>
        <pt x="267" y="1400" on="0"/>
        <pt x="275" y="1370" on="1"/>
        <pt x="281" y="1352" on="0"/>
        <pt x="281" y="1311" on="0"/>
        <pt x="281" y="1290" on="1"/>
        <pt x="283" y="1160" on="0"/>
        <pt x="285" y="902" on="0"/>
        <pt x="287" y="772" on="1"/>
        <pt x="389" y="810" on="1"/>
        <pt x="396" y="812" on="0"/>
        <pt x="417" y="819" on="0"/>
        <pt x="438" y="819" on="0"/>
        <pt x="452" y="809" on="0"/>
        <pt x="451" y="796" on="1"/>
        <pt x="451" y="763" on="0"/>
        <pt x="417" y="701" on="0"/>
        <pt x="391" y="686" on="1"/>
        <pt x="371" y="674" on="0"/>
        <pt x="331" y="657" on="0"/>
        <pt x="311" y="648" on="1"/>
        <pt x="289" y="638" on="1"/>
        <pt x="289" y="537" on="0"/>
        <pt x="291" y="337" on="0"/>
        <pt x="291" y="234" on="1"/>
        <pt x="291" y="204" on="0"/>
        <pt x="290" y="144" on="0"/>
        <pt x="295" y="114" on="1"/>
        <pt x="321" y="115" on="0"/>
        <pt x="399" y="131" on="0"/>
        <pt x="478" y="156" on="0"/>
        <pt x="548" y="188" on="0"/>
        <pt x="567" y="206" on="1"/>
        <pt x="578" y="215" on="0"/>
        <pt x="598" y="234" on="0"/>
        <pt x="613" y="234" on="1"/>
        <pt x="626" y="234" on="0"/>
        <pt x="654" y="216" on="0"/>
        <pt x="678" y="189" on="0"/>
        <pt x="693" y="159" on="0"/>
        <pt x="693" y="146" on="1"/>
        <pt x="693" y="123" on="0"/>
        <pt x="644" y="81" on="0"/>
        <pt x="568" y="46" on="0"/>
        <pt x="475" y="17" on="0"/>
        <pt x="386" y="-3" on="0"/>
        <pt x="312" y="-14" on="0"/>
        <pt x="293" y="-14" on="1"/>
        <pt x="259" y="-14" on="0"/>
        <pt x="203" y="2" on="0"/>
        <pt x="162" y="35" on="0"/>
        <pt x="139" y="87" on="0"/>
        <pt x="139" y="124" on="1"/>
        <pt x="139" y="570" on="1"/>
        <pt x="125" y="564" on="0"/>
        <pt x="96" y="553" on="0"/>
        <pt x="81" y="548" on="1"/>
        <pt x="73" y="545" on="0"/>
        <pt x="57" y="540" on="0"/>
        <pt x="42" y="542" on="0"/>
        <pt x="33" y="554" on="0"/>
      </contour>
    </TTGlyph>
    <TTGlyph name="M" xMin="98" yMin="-46" xMax="890" yMax="1452">
      <contour>
        <pt x="890" y="-2" on="1"/>
        <pt x="890" y="-22" on="0"/>
        <pt x="871" y="-46" on="0"/>
        <pt x="848" y="-46" on="1"/>
        <pt x="836" y="-46" on="0"/>
        <pt x="810" y="-41" on="0"/>
        <pt x="798" y="-36" on="1"/>
        <pt x="773" y="-29" on="0"/>
        <pt x="744" y="-17" on="0"/>
        <pt x="729" y="2" on="0"/>
        <pt x="725" y="32" on="0"/>
        <pt x="724" y="58" on="1"/>
        <pt x="716" y="263" on="0"/>
        <pt x="697" y="666" on="0"/>
        <pt x="676" y="870" on="1"/>
        <pt x="662" y="801" on="0"/>
        <pt x="636" y="663" on="0"/>
        <pt x="622" y="592" on="1"/>
        <pt x="608" y="518" on="0"/>
        <pt x="583" y="364" on="0"/>
        <pt x="556" y="292" on="1"/>
        <pt x="545" y="263" on="0"/>
        <pt x="513" y="230" on="0"/>
        <pt x="480" y="230" on="1"/>
        <pt x="456" y="230" on="0"/>
        <pt x="426" y="247" on="0"/>
        <pt x="412" y="264" on="1"/>
        <pt x="399" y="278" on="0"/>
        <pt x="369" y="358" on="0"/>
        <pt x="336" y="465" on="0"/>
        <pt x="304" y="587" on="0"/>
        <pt x="276" y="700" on="0"/>
        <pt x="254" y="794" on="0"/>
        <pt x="248" y="818" on="1"/>
        <pt x="248" y="682" on="1"/>
        <pt x="248" y="549" on="0"/>
        <pt x="258" y="285" on="0"/>
        <pt x="270" y="154" on="1"/>
        <pt x="273" y="125" on="0"/>
        <pt x="284" y="67" on="0"/>
        <pt x="284" y="38" on="1"/>
        <pt x="284" y="12" on="0"/>
        <pt x="249" y="-4" on="0"/>
        <pt x="228" y="-4" on="1"/>
        <pt x="171" y="-4" on="0"/>
        <pt x="110" y="45" on="0"/>
        <pt x="110" y="104" on="1"/>
        <pt x="110" y="225" on="0"/>
        <pt x="98" y="463" on="0"/>
        <pt x="98" y="584" on="1"/>
        <pt x="98" y="601" on="0"/>
        <pt x="99" y="685" on="0"/>
        <pt x="101" y="800" on="0"/>
        <pt x="104" y="935" on="0"/>
        <pt x="108" y="1073" on="0"/>
        <pt x="112" y="1204" on="0"/>
        <pt x="116" y="1308" on="0"/>
        <pt x="121" y="1377" on="0"/>
        <pt x="124" y="1384" on="1"/>
        <pt x="129" y="1398" on="0"/>
        <pt x="142" y="1406" on="0"/>
        <pt x="156" y="1406" on="1"/>
        <pt x="194" y="1406" on="0"/>
        <pt x="245" y="1373" on="0"/>
        <pt x="254" y="1334" on="1"/>
        <pt x="268" y="1313" on="0"/>
        <pt x="304" y="1202" on="0"/>
        <pt x="344" y="1054" on="0"/>
        <pt x="385" y="883" on="0"/>
        <pt x="422" y="725" on="0"/>
        <pt x="453" y="593" on="0"/>
        <pt x="462" y="558" on="1"/>
        <pt x="491" y="730" on="0"/>
        <pt x="551" y="1070" on="0"/>
        <pt x="578" y="1242" on="1"/>
        <pt x="583" y="1271" on="0"/>
        <pt x="594" y="1327" on="0"/>
        <pt x="594" y="1356" on="1"/>
        <pt x="594" y="1374" on="0"/>
        <pt x="584" y="1405" on="0"/>
        <pt x="584" y="1422" on="1"/>
        <pt x="584" y="1443" on="0"/>
        <pt x="611" y="1452" on="0"/>
        <pt x="628" y="1452" on="1"/>
        <pt x="644" y="1452" on="0"/>
        <pt x="688" y="1442" on="0"/>
        <pt x="729" y="1422" on="0"/>
        <pt x="758" y="1392" on="0"/>
        <pt x="758" y="1372" on="1"/>
        <pt x="758" y="1337" on="0"/>
        <pt x="752" y="1298" on="1"/>
        <pt x="788" y="1129" on="0"/>
        <pt x="836" y="790" on="0"/>
        <pt x="848" y="618" on="1"/>
        <pt x="860" y="470" on="0"/>
        <pt x="875" y="178" on="0"/>
        <pt x="886" y="32" on="1"/>
        <pt x="888" y="23" on="0"/>
        <pt x="890" y="7" on="0"/>
      </contour>
    </TTGlyph>
    <TTGlyph name="N" xMin="100" yMin="-14" xMax="708" yMax="1468">
      <contour>
        <pt x="708" y="82" on="1"/>
        <pt x="708" y="64" on="0"/>
        <pt x="701" y="29" on="0"/>
        <pt x="684" y="2" on="0"/>
        <pt x="656" y="-14" on="0"/>
        <pt x="634" y="-14" on="1"/>
        <pt x="607" y="-14" on="0"/>
        <pt x="574" y="9" on="0"/>
        <pt x="560" y="30" on="1"/>
        <pt x="541" y="57" on="0"/>
        <pt x="511" y="128" on="0"/>
        <pt x="487" y="203" on="0"/>
        <pt x="466" y="278" on="0"/>
        <pt x="456" y="310" on="1"/>
        <pt x="402" y="478" on="0"/>
        <pt x="309" y="812" on="0"/>
        <pt x="256" y="980" on="1"/>
        <pt x="251" y="763" on="0"/>
        <pt x="246" y="333" on="0"/>
        <pt x="246" y="116" on="1"/>
        <pt x="246" y="105" on="0"/>
        <pt x="244" y="77" on="0"/>
        <pt x="236" y="52" on="0"/>
        <pt x="219" y="34" on="0"/>
        <pt x="204" y="34" on="1"/>
        <pt x="153" y="34" on="0"/>
        <pt x="100" y="89" on="0"/>
        <pt x="100" y="140" on="1"/>
        <pt x="100" y="421" on="0"/>
        <pt x="102" y="973" on="0"/>
        <pt x="102" y="1252" on="1"/>
        <pt x="102" y="1394" on="1"/>
        <pt x="102" y="1417" on="0"/>
        <pt x="119" y="1448" on="0"/>
        <pt x="148" y="1448" on="1"/>
        <pt x="168" y="1448" on="0"/>
        <pt x="210" y="1437" on="0"/>
        <pt x="243" y="1415" on="0"/>
        <pt x="264" y="1380" on="0"/>
        <pt x="264" y="1356" on="1"/>
        <pt x="306" y="1276" on="0"/>
        <pt x="363" y="1106" on="0"/>
        <pt x="390" y="1020" on="1"/>
        <pt x="429" y="895" on="0"/>
        <pt x="505" y="645" on="0"/>
        <pt x="544" y="518" on="1"/>
        <pt x="538" y="707" on="0"/>
        <pt x="525" y="1084" on="0"/>
        <pt x="506" y="1272" on="1"/>
        <pt x="501" y="1313" on="0"/>
        <pt x="488" y="1391" on="0"/>
        <pt x="488" y="1432" on="1"/>
        <pt x="488" y="1453" on="0"/>
        <pt x="516" y="1468" on="0"/>
        <pt x="534" y="1468" on="1"/>
        <pt x="565" y="1468" on="0"/>
        <pt x="609" y="1458" on="0"/>
        <pt x="639" y="1434" on="0"/>
        <pt x="655" y="1393" on="0"/>
        <pt x="660" y="1362" on="1"/>
        <pt x="666" y="1308" on="0"/>
        <pt x="673" y="1199" on="0"/>
        <pt x="676" y="1146" on="1"/>
        <pt x="685" y="1012" on="0"/>
        <pt x="693" y="748" on="0"/>
        <pt x="696" y="614" on="1"/>
        <pt x="699" y="481" on="0"/>
        <pt x="708" y="216" on="0"/>
      </contour>
    </TTGlyph>
    <TTGlyph name="Nacute" xMin="100" yMin="-14" xMax="708" yMax="1746">
      <component glyphName="N" x="0" y="0" flags="0x204"/>
      <component glyphName="acute" x="379" y="380" flags="0x4"/>
    </TTGlyph>
    <TTGlyph name="Ncaron" xMin="100" yMin="-14" xMax="708" yMax="1793">
      <component glyphName="N" x="0" y="0" flags="0x204"/>
      <component glyphName="caron" x="224" y="463" flags="0x4"/>
    </TTGlyph>
    <TTGlyph name="Ncommaaccent" xMin="100" yMin="-364" xMax="708" yMax="1468">
      <component glyphName="N" x="0" y="0" flags="0x204"/>
      <component glyphName="uni0326" x="317" y="-12" flags="0x4"/>
    </TTGlyph>
    <TTGlyph name="Ntilde" xMin="100" yMin="-14" xMax="708" yMax="1752">
      <component glyphName="N" x="0" y="0" flags="0x204"/>
      <component glyphName="tilde" x="192" y="464" flags="0x4"/>
    </TTGlyph>
    <TTGlyph name="O" xMin="59" yMin="-14" xMax="727" yMax="1430">
      <contour>
        <pt x="727" y="768" on="1"/>
        <pt x="727" y="726" on="0"/>
        <pt x="724" y="615" on="0"/>
        <pt x="713" y="489" on="0"/>
        <pt x="692" y="357" on="0"/>
        <pt x="658" y="231" on="0"/>
        <pt x="608" y="119" on="0"/>
        <pt x="538" y="35" on="0"/>
        <pt x="446" y="-14" on="0"/>
        <pt x="387" y="-14" on="1"/>
        <pt x="328" y="-14" on="0"/>
        <pt x="232" y="41" on="0"/>
        <pt x="199" y="86" on="1"/>
        <pt x="172" y="122" on="0"/>
        <pt x="131" y="227" on="0"/>
        <pt x="100" y="351" on="0"/>
        <pt x="78" y="485" on="0"/>
        <pt x="65" y="615" on="0"/>
        <pt x="59" y="732" on="0"/>
        <pt x="59" y="776" on="1"/>
        <pt x="59" y="850" on="0"/>
        <pt x="72" y="1012" on="0"/>
        <pt x="108" y="1171" on="0"/>
        <pt x="170" y="1319" on="0"/>
        <pt x="219" y="1378" on="1"/>
        <pt x="224" y="1384" on="0"/>
        <pt x="239" y="1400" on="0"/>
        <pt x="257" y="1415" on="0"/>
        <pt x="276" y="1426" on="0"/>
        <pt x="285" y="1426" on="1"/>
        <pt x="294" y="1426" on="0"/>
        <pt x="311" y="1416" on="0"/>
        <pt x="317" y="1408" on="1"/>
        <pt x="338" y="1420" on="0"/>
        <pt x="385" y="1430" on="0"/>
        <pt x="409" y="1430" on="1"/>
        <pt x="482" y="1430" on="0"/>
        <pt x="587" y="1361" on="0"/>
        <pt x="657" y="1249" on="0"/>
        <pt x="699" y="1107" on="0"/>
        <pt x="721" y="959" on="0"/>
        <pt x="727" y="821" on="0"/>
      </contour>
      <contour>
        <pt x="571" y="724" on="1"/>
        <pt x="571" y="750" on="0"/>
        <pt x="568" y="857" on="0"/>
        <pt x="556" y="986" on="0"/>
        <pt x="535" y="1122" on="0"/>
        <pt x="499" y="1233" on="0"/>
        <pt x="446" y="1304" on="0"/>
        <pt x="409" y="1304" on="1"/>
        <pt x="394" y="1304" on="0"/>
        <pt x="370" y="1276" on="0"/>
        <pt x="348" y="1232" on="0"/>
        <pt x="330" y="1180" on="0"/>
        <pt x="312" y="1132" on="0"/>
        <pt x="296" y="1094" on="0"/>
        <pt x="287" y="1086" on="1"/>
        <pt x="284" y="1083" on="0"/>
        <pt x="271" y="1082" on="0"/>
        <pt x="265" y="1082" on="1"/>
        <pt x="248" y="1082" on="0"/>
        <pt x="233" y="1088" on="1"/>
        <pt x="216" y="1020" on="0"/>
        <pt x="203" y="885" on="0"/>
        <pt x="203" y="816" on="1"/>
        <pt x="203" y="795" on="0"/>
        <pt x="207" y="711" on="0"/>
        <pt x="215" y="603" on="0"/>
        <pt x="229" y="479" on="0"/>
        <pt x="249" y="356" on="0"/>
        <pt x="276" y="243" on="0"/>
        <pt x="312" y="156" on="0"/>
        <pt x="356" y="104" on="0"/>
        <pt x="383" y="104" on="1"/>
        <pt x="398" y="104" on="0"/>
        <pt x="422" y="121" on="0"/>
        <pt x="433" y="130" on="1"/>
        <pt x="463" y="157" on="0"/>
        <pt x="507" y="245" on="0"/>
        <pt x="537" y="351" on="0"/>
        <pt x="557" y="468" on="0"/>
        <pt x="567" y="582" on="0"/>
        <pt x="571" y="685" on="0"/>
      </contour>
    </TTGlyph>
    <TTGlyph name="OE" xMin="59" yMin="-14" xMax="1267" yMax="1430">
      <contour>
        <pt x="1267" y="218" on="1"/>
        <pt x="1267" y="201" on="0"/>
        <pt x="1240" y="169" on="0"/>
        <pt x="1202" y="139" on="0"/>
        <pt x="1162" y="114" on="0"/>
        <pt x="1149" y="106" on="1"/>
        <pt x="1115" y="84" on="0"/>
        <pt x="1048" y="46" on="0"/>
        <pt x="977" y="18" on="0"/>
        <pt x="902" y="2" on="0"/>
        <pt x="861" y="2" on="1"/>
        <pt x="845" y="0" on="1"/>
        <pt x="812" y="0" on="0"/>
        <pt x="747" y="15" on="0"/>
        <pt x="691" y="46" on="0"/>
        <pt x="647" y="94" on="0"/>
        <pt x="635" y="128" on="1"/>
        <pt x="632" y="136" on="0"/>
        <pt x="629" y="153" on="0"/>
        <pt x="627" y="162" on="1"/>
        <pt x="588" y="84" on="0"/>
        <pt x="471" y="-14" on="0"/>
        <pt x="387" y="-14" on="1"/>
        <pt x="328" y="-14" on="0"/>
        <pt x="232" y="41" on="0"/>
        <pt x="199" y="86" on="1"/>
        <pt x="172" y="122" on="0"/>
        <pt x="131" y="227" on="0"/>
        <pt x="100" y="351" on="0"/>
        <pt x="78" y="485" on="0"/>
        <pt x="65" y="615" on="0"/>
        <pt x="59" y="732" on="0"/>
        <pt x="59" y="776" on="1"/>
        <pt x="59" y="850" on="0"/>
        <pt x="72" y="1012" on="0"/>
        <pt x="108" y="1171" on="0"/>
        <pt x="170" y="1319" on="0"/>
        <pt x="219" y="1378" on="1"/>
        <pt x="224" y="1384" on="0"/>
        <pt x="239" y="1400" on="0"/>
        <pt x="257" y="1415" on="0"/>
        <pt x="276" y="1426" on="0"/>
        <pt x="285" y="1426" on="1"/>
        <pt x="294" y="1426" on="0"/>
        <pt x="311" y="1416" on="0"/>
        <pt x="317" y="1408" on="1"/>
        <pt x="338" y="1420" on="0"/>
        <pt x="385" y="1430" on="0"/>
        <pt x="409" y="1430" on="1"/>
        <pt x="475" y="1430" on="0"/>
        <pt x="572" y="1375" on="0"/>
        <pt x="607" y="1330" on="1"/>
        <pt x="627" y="1362" on="0"/>
        <pt x="708" y="1390" on="0"/>
        <pt x="779" y="1390" on="1"/>
        <pt x="844" y="1390" on="0"/>
        <pt x="975" y="1388" on="0"/>
        <pt x="1041" y="1388" on="1"/>
        <pt x="1061" y="1388" on="0"/>
        <pt x="1101" y="1391" on="0"/>
        <pt x="1121" y="1386" on="1"/>
        <pt x="1133" y="1384" on="0"/>
        <pt x="1151" y="1375" on="0"/>
        <pt x="1151" y="1360" on="1"/>
        <pt x="1151" y="1324" on="0"/>
        <pt x="1103" y="1289" on="0"/>
        <pt x="1037" y="1277" on="0"/>
        <pt x="966" y="1278" on="0"/>
        <pt x="943" y="1278" on="1"/>
        <pt x="813" y="1278" on="1"/>
        <pt x="793" y="1278" on="0"/>
        <pt x="753" y="1278" on="0"/>
        <pt x="733" y="1276" on="1"/>
        <pt x="727" y="1261" on="0"/>
        <pt x="723" y="1229" on="0"/>
        <pt x="723" y="1212" on="1"/>
        <pt x="723" y="1103" on="0"/>
        <pt x="734" y="891" on="0"/>
        <pt x="739" y="782" on="1"/>
        <pt x="801" y="787" on="0"/>
        <pt x="923" y="801" on="0"/>
        <pt x="985" y="810" on="1"/>
        <pt x="994" y="810" on="0"/>
        <pt x="1009" y="812" on="0"/>
        <pt x="1017" y="812" on="1"/>
        <pt x="1038" y="812" on="0"/>
        <pt x="1055" y="790" on="0"/>
        <pt x="1055" y="770" on="1"/>
        <pt x="1055" y="756" on="0"/>
        <pt x="1052" y="732" on="0"/>
        <pt x="1047" y="720" on="1"/>
        <pt x="1040" y="700" on="0"/>
        <pt x="1008" y="682" on="0"/>
        <pt x="968" y="675" on="0"/>
        <pt x="925" y="675" on="0"/>
        <pt x="909" y="674" on="1"/>
        <pt x="867" y="672" on="0"/>
        <pt x="786" y="670" on="0"/>
        <pt x="745" y="668" on="1"/>
        <pt x="746" y="647" on="0"/>
        <pt x="750" y="563" on="0"/>
        <pt x="755" y="458" on="0"/>
        <pt x="762" y="346" on="0"/>
        <pt x="770" y="247" on="0"/>
        <pt x="779" y="173" on="0"/>
        <pt x="785" y="160" on="1"/>
        <pt x="796" y="139" on="0"/>
        <pt x="824" y="126" on="0"/>
        <pt x="847" y="126" on="1"/>
        <pt x="884" y="126" on="0"/>
        <pt x="966" y="155" on="0"/>
        <pt x="1044" y="200" on="0"/>
        <pt x="1115" y="254" on="0"/>
        <pt x="1141" y="280" on="1"/>
        <pt x="1152" y="289" on="0"/>
        <pt x="1174" y="308" on="0"/>
        <pt x="1189" y="308" on="1"/>
        <pt x="1204" y="308" on="0"/>
        <pt x="1232" y="290" on="0"/>
        <pt x="1254" y="263" on="0"/>
        <pt x="1267" y="231" on="0"/>
      </contour>
      <contour>
        <pt x="571" y="724" on="1"/>
        <pt x="571" y="750" on="0"/>
        <pt x="568" y="857" on="0"/>
        <pt x="556" y="986" on="0"/>
        <pt x="535" y="1122" on="0"/>
        <pt x="499" y="1233" on="0"/>
        <pt x="446" y="1304" on="0"/>
        <pt x="409" y="1304" on="1"/>
        <pt x="394" y="1304" on="0"/>
        <pt x="370" y="1276" on="0"/>
        <pt x="348" y="1232" on="0"/>
        <pt x="330" y="1180" on="0"/>
        <pt x="312" y="1132" on="0"/>
        <pt x="296" y="1094" on="0"/>
        <pt x="287" y="1086" on="1"/>
        <pt x="284" y="1083" on="0"/>
        <pt x="271" y="1082" on="0"/>
        <pt x="265" y="1082" on="1"/>
        <pt x="248" y="1082" on="0"/>
        <pt x="233" y="1088" on="1"/>
        <pt x="216" y="1020" on="0"/>
        <pt x="203" y="885" on="0"/>
        <pt x="203" y="816" on="1"/>
        <pt x="203" y="795" on="0"/>
        <pt x="207" y="711" on="0"/>
        <pt x="215" y="603" on="0"/>
        <pt x="229" y="479" on="0"/>
        <pt x="249" y="356" on="0"/>
        <pt x="276" y="243" on="0"/>
        <pt x="312" y="156" on="0"/>
        <pt x="356" y="104" on="0"/>
        <pt x="383" y="104" on="1"/>
        <pt x="398" y="104" on="0"/>
        <pt x="422" y="121" on="0"/>
        <pt x="433" y="130" on="1"/>
        <pt x="463" y="157" on="0"/>
        <pt x="507" y="245" on="0"/>
        <pt x="537" y="351" on="0"/>
        <pt x="557" y="468" on="0"/>
        <pt x="567" y="582" on="0"/>
        <pt x="571" y="685" on="0"/>
      </contour>
    </TTGlyph>
    <TTGlyph name="Oacute" xMin="59" yMin="-14" xMax="727" yMax="1740">
      <component glyphName="O" x="0" y="0" flags="0x204"/>
      <component glyphName="acute" x="369" y="374" flags="0x4"/>
    </TTGlyph>
    <TTGlyph name="Obreve" xMin="59" yMin="-14" xMax="727" yMax="1764">
      <component glyphName="O" x="0" y="0" flags="0x204"/>
      <component glyphName="breve" x="286" y="468" flags="0x4"/>
    </TTGlyph>
    <TTGlyph name="Ocircumflex" xMin="59" yMin="-14" xMax="727" yMax="1778">
      <component glyphName="O" x="0" y="0" flags="0x204"/>
      <component glyphName="circumflex" x="255" y="458" flags="0x4"/>
    </TTGlyph>
    <TTGlyph name="Odieresis" xMin="59" yMin="-14" xMax="727" yMax="1646">
      <component glyphName="O" x="0" y="0" flags="0x204"/>
      <component glyphName="dieresis" x="217" y="312" flags="0x4"/>
    </TTGlyph>
    <TTGlyph name="Ograve" xMin="59" yMin="-14" xMax="727" yMax="1756">
      <component glyphName="O" x="0" y="0" flags="0x204"/>
      <component glyphName="grave" x="175" y="390" flags="0x4"/>
    </TTGlyph>
    <TTGlyph name="Ohungarumlaut" xMin="59" yMin="-14" xMax="769" yMax="1750">
      <component glyphName="O" x="0" y="0" flags="0x204"/>
      <component glyphName="hungarumlaut" x="255" y="384" flags="0x4"/>
    </TTGlyph>
    <TTGlyph name="Omacron" xMin="59" yMin="-14" xMax="727" yMax="1622">
      <component glyphName="O" x="0" y="0" flags="0x204"/>
      <component glyphName="macron" x="224" y="384" flags="0x4"/>
    </TTGlyph>
    <TTGlyph name="Oslash" xMin="59" yMin="-38" xMax="727" yMax="1462">
      <contour>
        <pt x="241" y="410" on="1"/>
        <pt x="425" y="1234" on="1"/>
        <pt x="427" y="1245" on="0"/>
        <pt x="434" y="1278" on="0"/>
        <pt x="437" y="1298" on="1"/>
        <pt x="425" y="1304" on="0"/>
        <pt x="409" y="1304" on="1"/>
        <pt x="394" y="1304" on="0"/>
        <pt x="370" y="1276" on="0"/>
        <pt x="348" y="1232" on="0"/>
        <pt x="330" y="1180" on="0"/>
        <pt x="312" y="1132" on="0"/>
        <pt x="296" y="1094" on="0"/>
        <pt x="287" y="1086" on="1"/>
        <pt x="284" y="1083" on="0"/>
        <pt x="271" y="1082" on="0"/>
        <pt x="265" y="1082" on="1"/>
        <pt x="248" y="1082" on="0"/>
        <pt x="233" y="1088" on="1"/>
        <pt x="216" y="1020" on="0"/>
        <pt x="203" y="885" on="0"/>
        <pt x="203" y="816" on="1"/>
        <pt x="203" y="794" on="0"/>
        <pt x="207" y="709" on="0"/>
        <pt x="216" y="598" on="0"/>
        <pt x="230" y="472" on="0"/>
      </contour>
      <contour>
        <pt x="539" y="1094" on="1"/>
        <pt x="515" y="982" on="0"/>
        <pt x="471" y="762" on="0"/>
        <pt x="447" y="650" on="1"/>
        <pt x="420" y="519" on="0"/>
        <pt x="363" y="259" on="0"/>
        <pt x="337" y="128" on="1"/>
        <pt x="358" y="104" on="0"/>
        <pt x="383" y="104" on="1"/>
        <pt x="398" y="104" on="0"/>
        <pt x="422" y="121" on="0"/>
        <pt x="433" y="130" on="1"/>
        <pt x="463" y="157" on="0"/>
        <pt x="507" y="245" on="0"/>
        <pt x="537" y="351" on="0"/>
        <pt x="557" y="468" on="0"/>
        <pt x="567" y="582" on="0"/>
        <pt x="571" y="685" on="0"/>
        <pt x="571" y="724" on="1"/>
        <pt x="571" y="746" on="0"/>
        <pt x="569" y="827" on="0"/>
        <pt x="562" y="928" on="0"/>
        <pt x="549" y="1041" on="0"/>
      </contour>
      <contour>
        <pt x="595" y="1380" on="1"/>
        <pt x="595" y="1371" on="0"/>
        <pt x="593" y="1356" on="0"/>
        <pt x="593" y="1348" on="1"/>
        <pt x="623" y="1312" on="0"/>
        <pt x="667" y="1220" on="0"/>
        <pt x="697" y="1117" on="0"/>
        <pt x="715" y="1008" on="0"/>
        <pt x="724" y="903" on="0"/>
        <pt x="727" y="807" on="0"/>
        <pt x="727" y="768" on="1"/>
        <pt x="727" y="726" on="0"/>
        <pt x="724" y="615" on="0"/>
        <pt x="713" y="489" on="0"/>
        <pt x="692" y="357" on="0"/>
        <pt x="658" y="231" on="0"/>
        <pt x="608" y="119" on="0"/>
        <pt x="538" y="35" on="0"/>
        <pt x="446" y="-14" on="0"/>
        <pt x="387" y="-14" on="1"/>
        <pt x="348" y="-14" on="0"/>
        <pt x="315" y="-2" on="1"/>
        <pt x="309" y="-17" on="0"/>
        <pt x="289" y="-38" on="0"/>
        <pt x="271" y="-38" on="1"/>
        <pt x="257" y="-38" on="0"/>
        <pt x="218" y="-27" on="0"/>
        <pt x="183" y="-8" on="0"/>
        <pt x="159" y="19" on="0"/>
        <pt x="159" y="36" on="1"/>
        <pt x="159" y="42" on="0"/>
        <pt x="161" y="54" on="0"/>
        <pt x="161" y="60" on="1"/>
        <pt x="164" y="77" on="0"/>
        <pt x="172" y="107" on="0"/>
        <pt x="175" y="124" on="1"/>
        <pt x="153" y="164" on="0"/>
        <pt x="119" y="270" on="0"/>
        <pt x="93" y="387" on="0"/>
        <pt x="75" y="511" on="0"/>
        <pt x="64" y="629" on="0"/>
        <pt x="59" y="735" on="0"/>
        <pt x="59" y="776" on="1"/>
        <pt x="59" y="850" on="0"/>
        <pt x="72" y="1012" on="0"/>
        <pt x="108" y="1171" on="0"/>
        <pt x="170" y="1319" on="0"/>
        <pt x="219" y="1378" on="1"/>
        <pt x="224" y="1384" on="0"/>
        <pt x="239" y="1400" on="0"/>
        <pt x="257" y="1415" on="0"/>
        <pt x="276" y="1426" on="0"/>
        <pt x="285" y="1426" on="1"/>
        <pt x="294" y="1426" on="0"/>
        <pt x="311" y="1416" on="0"/>
        <pt x="317" y="1408" on="1"/>
        <pt x="338" y="1420" on="0"/>
        <pt x="385" y="1430" on="0"/>
        <pt x="409" y="1430" on="1"/>
        <pt x="440" y="1430" on="0"/>
        <pt x="467" y="1424" on="1"/>
        <pt x="470" y="1436" on="0"/>
        <pt x="473" y="1442" on="1"/>
        <pt x="479" y="1453" on="0"/>
        <pt x="491" y="1462" on="0"/>
        <pt x="503" y="1462" on="1"/>
        <pt x="519" y="1462" on="0"/>
        <pt x="552" y="1449" on="0"/>
        <pt x="579" y="1427" on="0"/>
        <pt x="595" y="1397" on="0"/>
      </contour>
    </TTGlyph>
    <TTGlyph name="Oslashacute" xMin="59" yMin="-38" xMax="727" yMax="1765">
      <component glyphName="Oslash" x="0" y="0" flags="0x4"/>
      <component glyphName="acute" x="385" y="399" flags="0x4"/>
    </TTGlyph>
    <TTGlyph name="Otilde" xMin="59" yMin="-14" xMax="727" yMax="1724">
      <component glyphName="O" x="0" y="0" flags="0x204"/>
      <component glyphName="tilde" x="195" y="436" flags="0x4"/>
    </TTGlyph>
    <TTGlyph name="P" xMin="51" yMin="-6" xMax="703" yMax="1458">
      <contour>
        <pt x="703" y="1076" on="1"/>
        <pt x="703" y="977" on="0"/>
        <pt x="640" y="777" on="0"/>
        <pt x="527" y="603" on="0"/>
        <pt x="369" y="467" on="0"/>
        <pt x="275" y="432" on="1"/>
        <pt x="281" y="349" on="0"/>
        <pt x="297" y="185" on="0"/>
        <pt x="311" y="102" on="1"/>
        <pt x="314" y="87" on="0"/>
        <pt x="321" y="55" on="0"/>
        <pt x="321" y="38" on="1"/>
        <pt x="321" y="12" on="0"/>
        <pt x="295" y="-6" on="0"/>
        <pt x="271" y="-6" on="1"/>
        <pt x="254" y="-6" on="0"/>
        <pt x="206" y="2" on="0"/>
        <pt x="189" y="10" on="1"/>
        <pt x="169" y="21" on="0"/>
        <pt x="156" y="44" on="0"/>
        <pt x="153" y="64" on="1"/>
        <pt x="136" y="149" on="0"/>
        <pt x="129" y="319" on="0"/>
        <pt x="123" y="404" on="1"/>
        <pt x="103" y="406" on="0"/>
        <pt x="77" y="423" on="0"/>
        <pt x="77" y="444" on="1"/>
        <pt x="77" y="464" on="0"/>
        <pt x="100" y="508" on="0"/>
        <pt x="115" y="520" on="1"/>
        <pt x="106" y="706" on="0"/>
        <pt x="109" y="1072" on="0"/>
        <pt x="107" y="1258" on="1"/>
        <pt x="102" y="1256" on="0"/>
        <pt x="94" y="1254" on="0"/>
        <pt x="89" y="1254" on="1"/>
        <pt x="78" y="1254" on="0"/>
        <pt x="64" y="1265" on="0"/>
        <pt x="55" y="1281" on="0"/>
        <pt x="51" y="1300" on="0"/>
        <pt x="51" y="1308" on="1"/>
        <pt x="51" y="1338" on="0"/>
        <pt x="81" y="1365" on="0"/>
        <pt x="107" y="1376" on="1"/>
        <pt x="107" y="1387" on="0"/>
        <pt x="108" y="1416" on="0"/>
        <pt x="115" y="1441" on="0"/>
        <pt x="131" y="1458" on="0"/>
        <pt x="147" y="1458" on="1"/>
        <pt x="173" y="1458" on="0"/>
        <pt x="221" y="1438" on="0"/>
        <pt x="233" y="1414" on="1"/>
        <pt x="268" y="1420" on="0"/>
        <pt x="334" y="1430" on="0"/>
        <pt x="369" y="1430" on="1"/>
        <pt x="448" y="1430" on="0"/>
        <pt x="572" y="1377" on="0"/>
        <pt x="658" y="1282" on="0"/>
        <pt x="703" y="1152" on="0"/>
      </contour>
      <contour>
        <pt x="553" y="1094" on="1"/>
        <pt x="553" y="1140" on="0"/>
        <pt x="529" y="1221" on="0"/>
        <pt x="481" y="1280" on="0"/>
        <pt x="407" y="1314" on="0"/>
        <pt x="357" y="1314" on="1"/>
        <pt x="330" y="1314" on="0"/>
        <pt x="275" y="1306" on="0"/>
        <pt x="249" y="1298" on="1"/>
        <pt x="249" y="1115" on="0"/>
        <pt x="254" y="755" on="0"/>
        <pt x="265" y="574" on="1"/>
        <pt x="329" y="607" on="0"/>
        <pt x="435" y="725" on="0"/>
        <pt x="511" y="868" on="0"/>
        <pt x="553" y="1023" on="0"/>
      </contour>
    </TTGlyph>
    <TTGlyph name="Q" xMin="56" yMin="-176" xMax="870" yMax="1452">
      <contour>
        <pt x="870" y="-118" on="1"/>
        <pt x="870" y="-130" on="0"/>
        <pt x="844" y="-151" on="0"/>
        <pt x="808" y="-167" on="0"/>
        <pt x="772" y="-176" on="0"/>
        <pt x="762" y="-176" on="1"/>
        <pt x="739" y="-176" on="0"/>
        <pt x="674" y="-128" on="0"/>
        <pt x="610" y="-64" on="0"/>
        <pt x="554" y="2" on="0"/>
        <pt x="540" y="20" on="1"/>
        <pt x="510" y="2" on="0"/>
        <pt x="443" y="-14" on="0"/>
        <pt x="408" y="-14" on="1"/>
        <pt x="349" y="-14" on="0"/>
        <pt x="260" y="30" on="0"/>
        <pt x="194" y="104" on="0"/>
        <pt x="147" y="199" on="0"/>
        <pt x="115" y="303" on="0"/>
        <pt x="95" y="407" on="0"/>
        <pt x="88" y="452" on="1"/>
        <pt x="73" y="540" on="0"/>
        <pt x="56" y="710" on="0"/>
        <pt x="56" y="798" on="1"/>
        <pt x="56" y="873" on="0"/>
        <pt x="74" y="1040" on="0"/>
        <pt x="116" y="1203" on="0"/>
        <pt x="187" y="1350" on="0"/>
        <pt x="240" y="1406" on="1"/>
        <pt x="251" y="1418" on="0"/>
        <pt x="285" y="1448" on="0"/>
        <pt x="300" y="1448" on="1"/>
        <pt x="311" y="1448" on="0"/>
        <pt x="330" y="1436" on="0"/>
        <pt x="336" y="1428" on="1"/>
        <pt x="384" y="1452" on="0"/>
        <pt x="440" y="1452" on="1"/>
        <pt x="519" y="1452" on="0"/>
        <pt x="631" y="1379" on="0"/>
        <pt x="707" y="1260" on="0"/>
        <pt x="750" y="1108" on="0"/>
        <pt x="772" y="951" on="0"/>
        <pt x="778" y="803" on="0"/>
        <pt x="778" y="746" on="1"/>
        <pt x="778" y="674" on="0"/>
        <pt x="766" y="507" on="0"/>
        <pt x="735" y="339" on="0"/>
        <pt x="682" y="183" on="0"/>
        <pt x="642" y="122" on="1"/>
        <pt x="680" y="78" on="0"/>
        <pt x="757" y="-8" on="0"/>
        <pt x="802" y="-46" on="1"/>
        <pt x="809" y="-51" on="0"/>
        <pt x="832" y="-68" on="0"/>
        <pt x="854" y="-87" on="0"/>
        <pt x="870" y="-108" on="0"/>
      </contour>
      <contour>
        <pt x="622" y="748" on="1"/>
        <pt x="622" y="777" on="0"/>
        <pt x="618" y="885" on="0"/>
        <pt x="606" y="1013" on="0"/>
        <pt x="582" y="1146" on="0"/>
        <pt x="542" y="1255" on="0"/>
        <pt x="484" y="1324" on="0"/>
        <pt x="442" y="1324" on="1"/>
        <pt x="414" y="1324" on="0"/>
        <pt x="377" y="1291" on="0"/>
        <pt x="351" y="1240" on="0"/>
        <pt x="332" y="1182" on="0"/>
        <pt x="313" y="1131" on="0"/>
        <pt x="288" y="1098" on="0"/>
        <pt x="270" y="1098" on="1"/>
        <pt x="250" y="1098" on="0"/>
        <pt x="234" y="1106" on="1"/>
        <pt x="214" y="1035" on="0"/>
        <pt x="200" y="892" on="0"/>
        <pt x="200" y="820" on="1"/>
        <pt x="200" y="796" on="0"/>
        <pt x="204" y="710" on="0"/>
        <pt x="214" y="600" on="0"/>
        <pt x="229" y="476" on="0"/>
        <pt x="253" y="354" on="0"/>
        <pt x="284" y="241" on="0"/>
        <pt x="325" y="155" on="0"/>
        <pt x="376" y="104" on="0"/>
        <pt x="408" y="104" on="1"/>
        <pt x="422" y="104" on="0"/>
        <pt x="449" y="115" on="0"/>
        <pt x="460" y="124" on="1"/>
        <pt x="454" y="133" on="0"/>
        <pt x="424" y="176" on="0"/>
        <pt x="387" y="232" on="0"/>
        <pt x="347" y="293" on="0"/>
        <pt x="314" y="347" on="0"/>
        <pt x="292" y="386" on="0"/>
        <pt x="292" y="392" on="1"/>
        <pt x="292" y="401" on="0"/>
        <pt x="306" y="413" on="0"/>
        <pt x="326" y="419" on="0"/>
        <pt x="346" y="422" on="0"/>
        <pt x="352" y="422" on="1"/>
        <pt x="391" y="422" on="0"/>
        <pt x="434" y="394" on="0"/>
        <pt x="458" y="364" on="1"/>
        <pt x="481" y="335" on="0"/>
        <pt x="523" y="274" on="0"/>
        <pt x="546" y="244" on="1"/>
        <pt x="570" y="299" on="0"/>
        <pt x="600" y="426" on="0"/>
        <pt x="616" y="557" on="0"/>
        <pt x="622" y="688" on="0"/>
      </contour>
    </TTGlyph>
    <TTGlyph name="R" xMin="56" yMin="-38" xMax="856" yMax="1444">
      <contour>
        <pt x="856" y="4" on="1"/>
        <pt x="856" y="-8" on="0"/>
        <pt x="832" y="-24" on="0"/>
        <pt x="799" y="-34" on="0"/>
        <pt x="766" y="-38" on="0"/>
        <pt x="758" y="-38" on="1"/>
        <pt x="738" y="-38" on="0"/>
        <pt x="713" y="-31" on="0"/>
        <pt x="696" y="-22" on="1"/>
        <pt x="691" y="-19" on="0"/>
        <pt x="654" y="26" on="0"/>
        <pt x="599" y="98" on="0"/>
        <pt x="530" y="190" on="0"/>
        <pt x="457" y="287" on="0"/>
        <pt x="386" y="384" on="0"/>
        <pt x="326" y="465" on="0"/>
        <pt x="283" y="526" on="0"/>
        <pt x="274" y="538" on="1"/>
        <pt x="268" y="536" on="1"/>
        <pt x="274" y="417" on="0"/>
        <pt x="293" y="180" on="0"/>
        <pt x="316" y="64" on="1"/>
        <pt x="319" y="52" on="0"/>
        <pt x="326" y="26" on="0"/>
        <pt x="326" y="12" on="1"/>
        <pt x="326" y="-11" on="0"/>
        <pt x="296" y="-24" on="0"/>
        <pt x="278" y="-24" on="1"/>
        <pt x="268" y="-24" on="0"/>
        <pt x="240" y="-22" on="0"/>
        <pt x="210" y="-16" on="0"/>
        <pt x="185" y="-7" on="0"/>
        <pt x="178" y="0" on="1"/>
        <pt x="164" y="12" on="0"/>
        <pt x="157" y="38" on="0"/>
        <pt x="154" y="56" on="1"/>
        <pt x="125" y="257" on="0"/>
        <pt x="110" y="662" on="0"/>
        <pt x="110" y="864" on="1"/>
        <pt x="110" y="952" on="0"/>
        <pt x="112" y="1122" on="0"/>
        <pt x="114" y="1210" on="1"/>
        <pt x="102" y="1211" on="0"/>
        <pt x="81" y="1225" on="0"/>
        <pt x="65" y="1246" on="0"/>
        <pt x="56" y="1269" on="0"/>
        <pt x="56" y="1280" on="1"/>
        <pt x="56" y="1291" on="0"/>
        <pt x="67" y="1313" on="0"/>
        <pt x="84" y="1331" on="0"/>
        <pt x="104" y="1347" on="0"/>
        <pt x="112" y="1352" on="1"/>
        <pt x="112" y="1370" on="1"/>
        <pt x="112" y="1380" on="0"/>
        <pt x="113" y="1406" on="0"/>
        <pt x="120" y="1429" on="0"/>
        <pt x="136" y="1444" on="0"/>
        <pt x="152" y="1444" on="1"/>
        <pt x="173" y="1444" on="0"/>
        <pt x="215" y="1430" on="0"/>
        <pt x="230" y="1412" on="1"/>
        <pt x="305" y="1442" on="0"/>
        <pt x="388" y="1442" on="1"/>
        <pt x="461" y="1442" on="0"/>
        <pt x="581" y="1384" on="0"/>
        <pt x="666" y="1286" on="0"/>
        <pt x="712" y="1158" on="0"/>
        <pt x="712" y="1088" on="1"/>
        <pt x="712" y="1013" on="0"/>
        <pt x="656" y="872" on="0"/>
        <pt x="566" y="746" on="0"/>
        <pt x="451" y="641" on="0"/>
        <pt x="392" y="602" on="1"/>
        <pt x="486" y="477" on="0"/>
        <pt x="679" y="232" on="0"/>
        <pt x="780" y="110" on="1"/>
        <pt x="786" y="103" on="0"/>
        <pt x="811" y="75" on="0"/>
        <pt x="837" y="42" on="0"/>
        <pt x="856" y="12" on="0"/>
      </contour>
      <contour>
        <pt x="564" y="1104" on="1"/>
        <pt x="564" y="1141" on="0"/>
        <pt x="538" y="1221" on="0"/>
        <pt x="490" y="1286" on="0"/>
        <pt x="423" y="1328" on="0"/>
        <pt x="382" y="1328" on="1"/>
        <pt x="349" y="1328" on="0"/>
        <pt x="284" y="1309" on="0"/>
        <pt x="254" y="1294" on="1"/>
        <pt x="256" y="1145" on="0"/>
        <pt x="259" y="847" on="0"/>
        <pt x="262" y="698" on="1"/>
        <pt x="280" y="696" on="1"/>
        <pt x="332" y="725" on="0"/>
        <pt x="433" y="813" on="0"/>
        <pt x="514" y="921" on="0"/>
        <pt x="564" y="1042" on="0"/>
      </contour>
    </TTGlyph>
    <TTGlyph name="Racute" xMin="56" yMin="-38" xMax="856" yMax="1745">
      <component glyphName="R" x="0" y="0" flags="0x204"/>
      <component glyphName="acute" x="352" y="379" flags="0x4"/>
    </TTGlyph>
    <TTGlyph name="Rcaron" xMin="56" yMin="-38" xMax="856" yMax="1797">
      <component glyphName="R" x="0" y="0" flags="0x204"/>
      <component glyphName="caron" x="229" y="467" flags="0x4"/>
    </TTGlyph>
    <TTGlyph name="Rcommaaccent" xMin="56" yMin="-384" xMax="856" yMax="1444">
      <component glyphName="R" x="0" y="0" flags="0x204"/>
      <component glyphName="uni0326" x="377" y="-32" flags="0x4"/>
    </TTGlyph>
    <TTGlyph name="S" xMin="27" yMin="-48" xMax="681" yMax="1464">
      <contour>
        <pt x="681" y="316" on="1"/>
        <pt x="681" y="242" on="0"/>
        <pt x="633" y="110" on="0"/>
        <pt x="544" y="11" on="0"/>
        <pt x="418" y="-48" on="0"/>
        <pt x="341" y="-48" on="1"/>
        <pt x="273" y="-48" on="0"/>
        <pt x="158" y="-5" on="0"/>
        <pt x="74" y="73" on="0"/>
        <pt x="27" y="185" on="0"/>
        <pt x="27" y="254" on="1"/>
        <pt x="27" y="268" on="0"/>
        <pt x="29" y="310" on="0"/>
        <pt x="40" y="349" on="0"/>
        <pt x="61" y="376" on="0"/>
        <pt x="81" y="376" on="1"/>
        <pt x="97" y="376" on="0"/>
        <pt x="136" y="363" on="0"/>
        <pt x="170" y="341" on="0"/>
        <pt x="193" y="310" on="0"/>
        <pt x="193" y="292" on="1"/>
        <pt x="193" y="234" on="1"/>
        <pt x="193" y="165" on="0"/>
        <pt x="268" y="78" on="0"/>
        <pt x="339" y="78" on="1"/>
        <pt x="389" y="78" on="0"/>
        <pt x="461" y="124" on="0"/>
        <pt x="506" y="196" on="0"/>
        <pt x="527" y="285" on="0"/>
        <pt x="527" y="328" on="1"/>
        <pt x="527" y="412" on="0"/>
        <pt x="458" y="570" on="0"/>
        <pt x="354" y="721" on="0"/>
        <pt x="232" y="867" on="0"/>
        <pt x="128" y="1011" on="0"/>
        <pt x="59" y="1155" on="0"/>
        <pt x="59" y="1230" on="1"/>
        <pt x="59" y="1291" on="0"/>
        <pt x="108" y="1380" on="0"/>
        <pt x="189" y="1437" on="0"/>
        <pt x="292" y="1464" on="0"/>
        <pt x="347" y="1464" on="1"/>
        <pt x="414" y="1464" on="0"/>
        <pt x="520" y="1426" on="0"/>
        <pt x="594" y="1354" on="0"/>
        <pt x="633" y="1249" on="0"/>
        <pt x="633" y="1182" on="1"/>
        <pt x="633" y="1172" on="0"/>
        <pt x="631" y="1142" on="0"/>
        <pt x="623" y="1113" on="0"/>
        <pt x="607" y="1092" on="0"/>
        <pt x="593" y="1092" on="1"/>
        <pt x="573" y="1092" on="0"/>
        <pt x="553" y="1102" on="1"/>
        <pt x="536" y="1111" on="0"/>
        <pt x="515" y="1128" on="0"/>
        <pt x="503" y="1149" on="0"/>
        <pt x="497" y="1175" on="0"/>
        <pt x="495" y="1194" on="1"/>
        <pt x="490" y="1230" on="0"/>
        <pt x="474" y="1288" on="0"/>
        <pt x="442" y="1328" on="0"/>
        <pt x="390" y="1350" on="0"/>
        <pt x="349" y="1350" on="1"/>
        <pt x="320" y="1350" on="0"/>
        <pt x="267" y="1338" on="0"/>
        <pt x="228" y="1310" on="0"/>
        <pt x="205" y="1265" on="0"/>
        <pt x="205" y="1232" on="1"/>
        <pt x="205" y="1186" on="0"/>
        <pt x="246" y="1090" on="0"/>
        <pt x="313" y="990" on="0"/>
        <pt x="398" y="885" on="0"/>
        <pt x="488" y="773" on="0"/>
        <pt x="573" y="654" on="0"/>
        <pt x="640" y="526" on="0"/>
        <pt x="681" y="389" on="0"/>
      </contour>
    </TTGlyph>
    <TTGlyph name="Sacute" xMin="27" yMin="-48" xMax="681" yMax="1764">
      <component glyphName="S" x="0" y="0" flags="0x204"/>
      <component glyphName="acute" x="341" y="398" flags="0x4"/>
    </TTGlyph>
    <TTGlyph name="Scaron" xMin="27" yMin="-48" xMax="681" yMax="1842">
      <component glyphName="S" x="0" y="0" flags="0x204"/>
      <component glyphName="caron" x="191" y="512" flags="0x4"/>
    </TTGlyph>
    <TTGlyph name="Scedilla" xMin="27" yMin="-326" xMax="681" yMax="1464">
      <contour>
        <pt x="517" y="-204" on="1"/>
        <pt x="517" y="-232" on="0"/>
        <pt x="489" y="-277" on="0"/>
        <pt x="445" y="-309" on="0"/>
        <pt x="393" y="-326" on="0"/>
        <pt x="369" y="-326" on="1"/>
        <pt x="339" y="-326" on="0"/>
        <pt x="280" y="-308" on="0"/>
        <pt x="253" y="-294" on="1"/>
        <pt x="247" y="-292" on="0"/>
        <pt x="227" y="-282" on="0"/>
        <pt x="209" y="-269" on="0"/>
        <pt x="195" y="-255" on="0"/>
        <pt x="195" y="-248" on="1"/>
        <pt x="195" y="-240" on="0"/>
        <pt x="212" y="-227" on="0"/>
        <pt x="234" y="-218" on="0"/>
        <pt x="257" y="-214" on="0"/>
        <pt x="263" y="-214" on="1"/>
        <pt x="276" y="-214" on="0"/>
        <pt x="300" y="-222" on="0"/>
        <pt x="324" y="-232" on="0"/>
        <pt x="348" y="-240" on="0"/>
        <pt x="361" y="-240" on="1"/>
        <pt x="375" y="-240" on="0"/>
        <pt x="407" y="-223" on="0"/>
        <pt x="407" y="-206" on="1"/>
        <pt x="407" y="-197" on="0"/>
        <pt x="390" y="-190" on="0"/>
        <pt x="381" y="-190" on="1"/>
        <pt x="370" y="-190" on="0"/>
        <pt x="350" y="-194" on="0"/>
        <pt x="339" y="-194" on="1"/>
        <pt x="309" y="-194" on="0"/>
        <pt x="265" y="-158" on="0"/>
        <pt x="265" y="-126" on="1"/>
        <pt x="265" y="-117" on="0"/>
        <pt x="274" y="-69" on="0"/>
        <pt x="281" y="-43" on="1"/>
        <pt x="225" y="-34" on="0"/>
        <pt x="131" y="15" on="0"/>
        <pt x="64" y="91" on="0"/>
        <pt x="27" y="193" on="0"/>
        <pt x="27" y="254" on="1"/>
        <pt x="27" y="268" on="0"/>
        <pt x="29" y="310" on="0"/>
        <pt x="40" y="349" on="0"/>
        <pt x="61" y="376" on="0"/>
        <pt x="81" y="376" on="1"/>
        <pt x="97" y="376" on="0"/>
        <pt x="136" y="363" on="0"/>
        <pt x="170" y="341" on="0"/>
        <pt x="193" y="310" on="0"/>
        <pt x="193" y="292" on="1"/>
        <pt x="193" y="234" on="1"/>
        <pt x="193" y="165" on="0"/>
        <pt x="268" y="78" on="0"/>
        <pt x="339" y="78" on="1"/>
        <pt x="389" y="78" on="0"/>
        <pt x="461" y="124" on="0"/>
        <pt x="506" y="196" on="0"/>
        <pt x="527" y="285" on="0"/>
        <pt x="527" y="328" on="1"/>
        <pt x="527" y="412" on="0"/>
        <pt x="458" y="570" on="0"/>
        <pt x="354" y="721" on="0"/>
        <pt x="232" y="867" on="0"/>
        <pt x="128" y="1011" on="0"/>
        <pt x="59" y="1155" on="0"/>
        <pt x="59" y="1230" on="1"/>
        <pt x="59" y="1291" on="0"/>
        <pt x="108" y="1380" on="0"/>
        <pt x="189" y="1437" on="0"/>
        <pt x="292" y="1464" on="0"/>
        <pt x="347" y="1464" on="1"/>
        <pt x="414" y="1464" on="0"/>
        <pt x="520" y="1426" on="0"/>
        <pt x="594" y="1354" on="0"/>
        <pt x="633" y="1249" on="0"/>
        <pt x="633" y="1182" on="1"/>
        <pt x="633" y="1172" on="0"/>
        <pt x="631" y="1142" on="0"/>
        <pt x="623" y="1113" on="0"/>
        <pt x="607" y="1092" on="0"/>
        <pt x="593" y="1092" on="1"/>
        <pt x="573" y="1092" on="0"/>
        <pt x="553" y="1102" on="1"/>
        <pt x="536" y="1111" on="0"/>
        <pt x="515" y="1128" on="0"/>
        <pt x="503" y="1149" on="0"/>
        <pt x="497" y="1175" on="0"/>
        <pt x="495" y="1194" on="1"/>
        <pt x="490" y="1230" on="0"/>
        <pt x="474" y="1288" on="0"/>
        <pt x="442" y="1328" on="0"/>
        <pt x="390" y="1350" on="0"/>
        <pt x="349" y="1350" on="1"/>
        <pt x="320" y="1350" on="0"/>
        <pt x="267" y="1338" on="0"/>
        <pt x="228" y="1310" on="0"/>
        <pt x="205" y="1265" on="0"/>
        <pt x="205" y="1232" on="1"/>
        <pt x="205" y="1186" on="0"/>
        <pt x="246" y="1090" on="0"/>
        <pt x="313" y="990" on="0"/>
        <pt x="398" y="885" on="0"/>
        <pt x="488" y="773" on="0"/>
        <pt x="573" y="654" on="0"/>
        <pt x="640" y="526" on="0"/>
        <pt x="681" y="389" on="0"/>
        <pt x="681" y="316" on="1"/>
        <pt x="681" y="250" on="0"/>
        <pt x="643" y="131" on="0"/>
        <pt x="571" y="36" on="0"/>
        <pt x="469" y="-30" on="0"/>
        <pt x="406" y="-42" on="1"/>
        <pt x="404" y="-57" on="0"/>
        <pt x="396" y="-88" on="0"/>
        <pt x="393" y="-96" on="1"/>
        <pt x="415" y="-99" on="0"/>
        <pt x="459" y="-116" on="0"/>
        <pt x="495" y="-143" on="0"/>
        <pt x="517" y="-180" on="0"/>
      </contour>
    </TTGlyph>
    <TTGlyph name="Scircumflex" xMin="27" yMin="-48" xMax="681" yMax="1806">
      <component glyphName="S" x="0" y="0" flags="0x204"/>
      <component glyphName="circumflex" x="232" y="486" flags="0x4"/>
    </TTGlyph>
    <TTGlyph name="T" xMin="-27" yMin="-38" xMax="705" yMax="1432">
      <contour>
        <pt x="705" y="1376" on="1"/>
        <pt x="705" y="1340" on="0"/>
        <pt x="664" y="1294" on="0"/>
        <pt x="629" y="1286" on="1"/>
        <pt x="573" y="1274" on="0"/>
        <pt x="456" y="1273" on="0"/>
        <pt x="399" y="1270" on="1"/>
        <pt x="399" y="1072" on="1"/>
        <pt x="399" y="820" on="0"/>
        <pt x="430" y="319" on="0"/>
        <pt x="465" y="68" on="1"/>
        <pt x="468" y="53" on="0"/>
        <pt x="475" y="23" on="0"/>
        <pt x="475" y="8" on="1"/>
        <pt x="475" y="-16" on="0"/>
        <pt x="450" y="-38" on="0"/>
        <pt x="427" y="-38" on="1"/>
        <pt x="409" y="-38" on="0"/>
        <pt x="356" y="-29" on="0"/>
        <pt x="341" y="-20" on="1"/>
        <pt x="321" y="-8" on="0"/>
        <pt x="310" y="17" on="0"/>
        <pt x="307" y="38" on="1"/>
        <pt x="296" y="109" on="0"/>
        <pt x="288" y="251" on="0"/>
        <pt x="283" y="322" on="1"/>
        <pt x="271" y="474" on="0"/>
        <pt x="255" y="776" on="0"/>
        <pt x="255" y="928" on="1"/>
        <pt x="255" y="1011" on="0"/>
        <pt x="257" y="1175" on="0"/>
        <pt x="257" y="1260" on="1"/>
        <pt x="195" y="1254" on="0"/>
        <pt x="70" y="1242" on="0"/>
        <pt x="7" y="1242" on="1"/>
        <pt x="-8" y="1242" on="0"/>
        <pt x="-27" y="1257" on="0"/>
        <pt x="-27" y="1272" on="1"/>
        <pt x="-27" y="1307" on="0"/>
        <pt x="19" y="1346" on="0"/>
        <pt x="51" y="1354" on="1"/>
        <pt x="102" y="1365" on="0"/>
        <pt x="208" y="1372" on="0"/>
        <pt x="261" y="1378" on="1"/>
        <pt x="261" y="1388" on="0"/>
        <pt x="263" y="1407" on="0"/>
        <pt x="270" y="1422" on="0"/>
        <pt x="284" y="1432" on="0"/>
        <pt x="297" y="1432" on="1"/>
        <pt x="321" y="1432" on="0"/>
        <pt x="371" y="1410" on="0"/>
        <pt x="385" y="1390" on="1"/>
        <pt x="551" y="1408" on="1"/>
        <pt x="575" y="1411" on="0"/>
        <pt x="623" y="1418" on="0"/>
        <pt x="647" y="1418" on="1"/>
        <pt x="658" y="1418" on="0"/>
        <pt x="679" y="1416" on="0"/>
        <pt x="695" y="1407" on="0"/>
        <pt x="705" y="1390" on="0"/>
      </contour>
    </TTGlyph>
    <TTGlyph name="Tbar" xMin="-27" yMin="-38" xMax="705" yMax="1432">
      <contour>
        <pt x="538" y="749" on="1"/>
        <pt x="538" y="711" on="0"/>
        <pt x="503" y="667" on="0"/>
        <pt x="464" y="667" on="1"/>
        <pt x="409" y="667" on="1"/>
        <pt x="417" y="515" on="0"/>
        <pt x="444" y="217" on="0"/>
        <pt x="465" y="68" on="1"/>
        <pt x="468" y="53" on="0"/>
        <pt x="475" y="23" on="0"/>
        <pt x="475" y="8" on="1"/>
        <pt x="475" y="-16" on="0"/>
        <pt x="450" y="-38" on="0"/>
        <pt x="427" y="-38" on="1"/>
        <pt x="409" y="-38" on="0"/>
        <pt x="356" y="-29" on="0"/>
        <pt x="341" y="-20" on="1"/>
        <pt x="321" y="-8" on="0"/>
        <pt x="310" y="17" on="0"/>
        <pt x="307" y="38" on="1"/>
        <pt x="296" y="109" on="0"/>
        <pt x="288" y="251" on="0"/>
        <pt x="283" y="322" on="1"/>
        <pt x="276" y="409" on="0"/>
        <pt x="265" y="581" on="0"/>
        <pt x="261" y="669" on="1"/>
        <pt x="208" y="669" on="1"/>
        <pt x="200" y="669" on="0"/>
        <pt x="176" y="669" on="0"/>
        <pt x="154" y="673" on="0"/>
        <pt x="138" y="684" on="0"/>
        <pt x="138" y="695" on="1"/>
        <pt x="138" y="713" on="0"/>
        <pt x="159" y="753" on="0"/>
        <pt x="176" y="759" on="1"/>
        <pt x="181" y="761" on="0"/>
        <pt x="225" y="767" on="0"/>
        <pt x="257" y="769" on="1"/>
        <pt x="255" y="809" on="0"/>
        <pt x="255" y="888" on="0"/>
        <pt x="255" y="928" on="1"/>
        <pt x="255" y="1011" on="0"/>
        <pt x="257" y="1175" on="0"/>
        <pt x="257" y="1260" on="1"/>
        <pt x="195" y="1254" on="0"/>
        <pt x="70" y="1242" on="0"/>
        <pt x="7" y="1242" on="1"/>
        <pt x="-8" y="1242" on="0"/>
        <pt x="-27" y="1257" on="0"/>
        <pt x="-27" y="1272" on="1"/>
        <pt x="-27" y="1307" on="0"/>
        <pt x="19" y="1346" on="0"/>
        <pt x="51" y="1354" on="1"/>
        <pt x="102" y="1365" on="0"/>
        <pt x="208" y="1372" on="0"/>
        <pt x="261" y="1378" on="1"/>
        <pt x="261" y="1388" on="0"/>
        <pt x="263" y="1407" on="0"/>
        <pt x="270" y="1422" on="0"/>
        <pt x="284" y="1432" on="0"/>
        <pt x="297" y="1432" on="1"/>
        <pt x="321" y="1432" on="0"/>
        <pt x="371" y="1410" on="0"/>
        <pt x="385" y="1390" on="1"/>
        <pt x="551" y="1408" on="1"/>
        <pt x="575" y="1411" on="0"/>
        <pt x="623" y="1418" on="0"/>
        <pt x="647" y="1418" on="1"/>
        <pt x="658" y="1418" on="0"/>
        <pt x="679" y="1416" on="0"/>
        <pt x="695" y="1407" on="0"/>
        <pt x="705" y="1390" on="0"/>
        <pt x="705" y="1376" on="1"/>
        <pt x="705" y="1340" on="0"/>
        <pt x="664" y="1294" on="0"/>
        <pt x="629" y="1286" on="1"/>
        <pt x="573" y="1274" on="0"/>
        <pt x="456" y="1273" on="0"/>
        <pt x="399" y="1270" on="1"/>
        <pt x="399" y="1072" on="1"/>
        <pt x="399" y="998" on="0"/>
        <pt x="401" y="852" on="0"/>
        <pt x="404" y="777" on="1"/>
        <pt x="435" y="779" on="0"/>
        <pt x="484" y="781" on="0"/>
        <pt x="494" y="781" on="1"/>
        <pt x="512" y="781" on="0"/>
        <pt x="538" y="770" on="0"/>
      </contour>
    </TTGlyph>
    <TTGlyph name="Tcaron" xMin="-27" yMin="-38" xMax="705" yMax="1793">
      <component glyphName="T" x="0" y="0" flags="0x204"/>
      <component glyphName="caron" x="183" y="463" flags="0x4"/>
    </TTGlyph>
    <TTGlyph name="Tcommaaccent" xMin="-27" yMin="-384" xMax="705" yMax="1432">
      <component glyphName="T" x="0" y="0" flags="0x204"/>
      <component glyphName="uni0326" x="317" y="-32" flags="0x4"/>
    </TTGlyph>
    <TTGlyph name="Thorn" xMin="54" yMin="-6" xMax="706" yMax="1438">
      <contour>
        <pt x="706" y="896" on="1"/>
        <pt x="706" y="797" on="0"/>
        <pt x="643" y="597" on="0"/>
        <pt x="530" y="423" on="0"/>
        <pt x="372" y="287" on="0"/>
        <pt x="278" y="252" on="1"/>
        <pt x="314" y="102" on="1"/>
        <pt x="317" y="87" on="0"/>
        <pt x="324" y="55" on="0"/>
        <pt x="324" y="38" on="1"/>
        <pt x="324" y="12" on="0"/>
        <pt x="298" y="-6" on="0"/>
        <pt x="274" y="-6" on="1"/>
        <pt x="257" y="-6" on="0"/>
        <pt x="209" y="2" on="0"/>
        <pt x="192" y="10" on="1"/>
        <pt x="172" y="21" on="0"/>
        <pt x="159" y="44" on="0"/>
        <pt x="156" y="64" on="1"/>
        <pt x="148" y="106" on="0"/>
        <pt x="137" y="166" on="0"/>
        <pt x="133" y="186" on="1"/>
        <pt x="129" y="209" on="0"/>
        <pt x="126" y="224" on="1"/>
        <pt x="106" y="226" on="0"/>
        <pt x="80" y="243" on="0"/>
        <pt x="80" y="264" on="1"/>
        <pt x="80" y="284" on="0"/>
        <pt x="103" y="328" on="0"/>
        <pt x="118" y="340" on="1"/>
        <pt x="109" y="526" on="0"/>
        <pt x="112" y="892" on="0"/>
        <pt x="110" y="1078" on="1"/>
        <pt x="105" y="1076" on="0"/>
        <pt x="97" y="1074" on="0"/>
        <pt x="92" y="1074" on="1"/>
        <pt x="81" y="1074" on="0"/>
        <pt x="67" y="1085" on="0"/>
        <pt x="58" y="1101" on="0"/>
        <pt x="54" y="1120" on="0"/>
        <pt x="54" y="1128" on="1"/>
        <pt x="54" y="1158" on="0"/>
        <pt x="84" y="1185" on="0"/>
        <pt x="110" y="1196" on="1"/>
        <pt x="110" y="1368" on="1"/>
        <pt x="110" y="1379" on="0"/>
        <pt x="112" y="1404" on="0"/>
        <pt x="120" y="1425" on="0"/>
        <pt x="136" y="1438" on="0"/>
        <pt x="150" y="1438" on="1"/>
        <pt x="173" y="1438" on="0"/>
        <pt x="214" y="1424" on="0"/>
        <pt x="228" y="1406" on="1"/>
        <pt x="235" y="1395" on="0"/>
        <pt x="238" y="1340" on="0"/>
        <pt x="238" y="1282" on="0"/>
        <pt x="235" y="1235" on="0"/>
        <pt x="236" y="1234" on="1"/>
        <pt x="271" y="1240" on="0"/>
        <pt x="337" y="1250" on="0"/>
        <pt x="372" y="1250" on="1"/>
        <pt x="451" y="1250" on="0"/>
        <pt x="575" y="1197" on="0"/>
        <pt x="661" y="1102" on="0"/>
        <pt x="706" y="972" on="0"/>
      </contour>
      <contour>
        <pt x="556" y="914" on="1"/>
        <pt x="556" y="960" on="0"/>
        <pt x="532" y="1041" on="0"/>
        <pt x="484" y="1100" on="0"/>
        <pt x="410" y="1134" on="0"/>
        <pt x="360" y="1134" on="1"/>
        <pt x="333" y="1134" on="0"/>
        <pt x="278" y="1126" on="0"/>
        <pt x="252" y="1118" on="1"/>
        <pt x="252" y="935" on="0"/>
        <pt x="257" y="575" on="0"/>
        <pt x="268" y="394" on="1"/>
        <pt x="332" y="427" on="0"/>
        <pt x="438" y="545" on="0"/>
        <pt x="514" y="688" on="0"/>
        <pt x="556" y="843" on="0"/>
      </contour>
    </TTGlyph>
    <TTGlyph name="U" xMin="89" yMin="-14" xMax="769" yMax="1492">
      <contour>
        <pt x="769" y="614" on="1"/>
        <pt x="769" y="560" on="0"/>
        <pt x="762" y="426" on="0"/>
        <pt x="740" y="286" on="0"/>
        <pt x="698" y="153" on="0"/>
        <pt x="626" y="49" on="0"/>
        <pt x="521" y="-14" on="0"/>
        <pt x="447" y="-14" on="1"/>
        <pt x="406" y="-14" on="0"/>
        <pt x="328" y="10" on="0"/>
        <pt x="295" y="34" on="1"/>
        <pt x="243" y="72" on="0"/>
        <pt x="172" y="215" on="0"/>
        <pt x="126" y="394" on="0"/>
        <pt x="102" y="595" on="0"/>
        <pt x="91" y="789" on="0"/>
        <pt x="89" y="961" on="0"/>
        <pt x="89" y="1022" on="1"/>
        <pt x="89" y="1038" on="0"/>
        <pt x="89" y="1098" on="0"/>
        <pt x="90" y="1171" on="0"/>
        <pt x="92" y="1249" on="0"/>
        <pt x="96" y="1320" on="0"/>
        <pt x="102" y="1374" on="0"/>
        <pt x="107" y="1386" on="1"/>
        <pt x="112" y="1398" on="0"/>
        <pt x="125" y="1408" on="0"/>
        <pt x="139" y="1408" on="1"/>
        <pt x="184" y="1408" on="0"/>
        <pt x="237" y="1353" on="0"/>
        <pt x="237" y="1308" on="1"/>
        <pt x="237" y="1242" on="0"/>
        <pt x="231" y="1110" on="0"/>
        <pt x="231" y="1044" on="1"/>
        <pt x="231" y="1015" on="0"/>
        <pt x="232" y="903" on="0"/>
        <pt x="238" y="760" on="0"/>
        <pt x="250" y="596" on="0"/>
        <pt x="271" y="435" on="0"/>
        <pt x="303" y="286" on="0"/>
        <pt x="348" y="172" on="0"/>
        <pt x="408" y="104" on="0"/>
        <pt x="447" y="104" on="1"/>
        <pt x="484" y="104" on="0"/>
        <pt x="539" y="162" on="0"/>
        <pt x="576" y="253" on="0"/>
        <pt x="599" y="365" on="0"/>
        <pt x="611" y="474" on="0"/>
        <pt x="615" y="567" on="0"/>
        <pt x="615" y="594" on="1"/>
        <pt x="615" y="649" on="0"/>
        <pt x="610" y="784" on="0"/>
        <pt x="601" y="930" on="0"/>
        <pt x="585" y="1082" on="0"/>
        <pt x="563" y="1225" on="0"/>
        <pt x="534" y="1355" on="0"/>
        <pt x="515" y="1406" on="1"/>
        <pt x="512" y="1415" on="0"/>
        <pt x="499" y="1443" on="0"/>
        <pt x="499" y="1452" on="1"/>
        <pt x="499" y="1468" on="0"/>
        <pt x="514" y="1484" on="0"/>
        <pt x="536" y="1491" on="0"/>
        <pt x="562" y="1492" on="0"/>
        <pt x="573" y="1492" on="1"/>
        <pt x="597" y="1492" on="0"/>
        <pt x="628" y="1488" on="0"/>
        <pt x="649" y="1476" on="1"/>
        <pt x="663" y="1468" on="0"/>
        <pt x="688" y="1396" on="0"/>
        <pt x="710" y="1286" on="0"/>
        <pt x="729" y="1147" on="0"/>
        <pt x="745" y="1000" on="0"/>
        <pt x="757" y="854" on="0"/>
        <pt x="765" y="730" on="0"/>
        <pt x="769" y="636" on="0"/>
      </contour>
    </TTGlyph>
    <TTGlyph name="Uacute" xMin="89" yMin="-14" xMax="769" yMax="1756">
      <component glyphName="U" x="0" y="0" flags="0x204"/>
      <component glyphName="acute" x="351" y="390" flags="0x4"/>
    </TTGlyph>
    <TTGlyph name="Ubreve" xMin="89" yMin="-14" xMax="769" yMax="1769">
      <component glyphName="U" x="0" y="0" flags="0x204"/>
      <component glyphName="breve" x="252" y="473" flags="0x4"/>
    </TTGlyph>
    <TTGlyph name="Ucircumflex" xMin="89" yMin="-14" xMax="769" yMax="1824">
      <component glyphName="U" x="0" y="0" flags="0x204"/>
      <component glyphName="circumflex" x="231" y="504" flags="0x4"/>
    </TTGlyph>
    <TTGlyph name="Udieresis" xMin="89" yMin="-14" xMax="769" yMax="1716">
      <component glyphName="U" x="0" y="0" flags="0x204"/>
      <component glyphName="dieresis" x="185" y="382" flags="0x4"/>
    </TTGlyph>
    <TTGlyph name="Ugrave" xMin="89" yMin="-14" xMax="769" yMax="1744">
      <component glyphName="U" x="0" y="0" flags="0x204"/>
      <component glyphName="grave" x="141" y="378" flags="0x4"/>
    </TTGlyph>
    <TTGlyph name="Uhungarumlaut" xMin="89" yMin="-14" xMax="769" yMax="1787">
      <component glyphName="U" x="0" y="0" flags="0x204"/>
      <component glyphName="hungarumlaut" x="202" y="421" flags="0x4"/>
    </TTGlyph>
    <TTGlyph name="Umacron" xMin="89" yMin="-14" xMax="769" yMax="1650">
      <component glyphName="U" x="0" y="0" flags="0x204"/>
      <component glyphName="macron" x="200" y="412" flags="0x4"/>
    </TTGlyph>
    <TTGlyph name="Uogonek" xMin="89" yMin="-260" xMax="769" yMax="1492">
      <contour>
        <pt x="616" y="-204" on="1"/>
        <pt x="616" y="-220" on="0"/>
        <pt x="587" y="-241" on="0"/>
        <pt x="548" y="-254" on="0"/>
        <pt x="508" y="-260" on="0"/>
        <pt x="496" y="-260" on="1"/>
        <pt x="469" y="-260" on="0"/>
        <pt x="414" y="-241" on="0"/>
        <pt x="370" y="-207" on="0"/>
        <pt x="342" y="-159" on="0"/>
        <pt x="342" y="-130" on="1"/>
        <pt x="342" y="-102" on="0"/>
        <pt x="367" y="-37" on="0"/>
        <pt x="386" y="-7" on="1"/>
        <pt x="336" y="4" on="0"/>
        <pt x="295" y="34" on="1"/>
        <pt x="243" y="72" on="0"/>
        <pt x="172" y="215" on="0"/>
        <pt x="126" y="394" on="0"/>
        <pt x="102" y="595" on="0"/>
        <pt x="91" y="789" on="0"/>
        <pt x="89" y="961" on="0"/>
        <pt x="89" y="1022" on="1"/>
        <pt x="89" y="1038" on="0"/>
        <pt x="89" y="1098" on="0"/>
        <pt x="90" y="1171" on="0"/>
        <pt x="92" y="1249" on="0"/>
        <pt x="96" y="1320" on="0"/>
        <pt x="102" y="1374" on="0"/>
        <pt x="107" y="1386" on="1"/>
        <pt x="112" y="1398" on="0"/>
        <pt x="125" y="1408" on="0"/>
        <pt x="139" y="1408" on="1"/>
        <pt x="184" y="1408" on="0"/>
        <pt x="237" y="1353" on="0"/>
        <pt x="237" y="1308" on="1"/>
        <pt x="237" y="1242" on="0"/>
        <pt x="231" y="1110" on="0"/>
        <pt x="231" y="1044" on="1"/>
        <pt x="231" y="1015" on="0"/>
        <pt x="232" y="903" on="0"/>
        <pt x="238" y="760" on="0"/>
        <pt x="250" y="596" on="0"/>
        <pt x="271" y="435" on="0"/>
        <pt x="303" y="286" on="0"/>
        <pt x="348" y="172" on="0"/>
        <pt x="408" y="104" on="0"/>
        <pt x="447" y="104" on="1"/>
        <pt x="484" y="104" on="0"/>
        <pt x="539" y="162" on="0"/>
        <pt x="576" y="253" on="0"/>
        <pt x="599" y="365" on="0"/>
        <pt x="611" y="474" on="0"/>
        <pt x="615" y="567" on="0"/>
        <pt x="615" y="594" on="1"/>
        <pt x="615" y="649" on="0"/>
        <pt x="610" y="784" on="0"/>
        <pt x="601" y="930" on="0"/>
        <pt x="585" y="1082" on="0"/>
        <pt x="563" y="1225" on="0"/>
        <pt x="534" y="1355" on="0"/>
        <pt x="515" y="1406" on="1"/>
        <pt x="512" y="1415" on="0"/>
        <pt x="499" y="1443" on="0"/>
        <pt x="499" y="1452" on="1"/>
        <pt x="499" y="1468" on="0"/>
        <pt x="514" y="1484" on="0"/>
        <pt x="536" y="1491" on="0"/>
        <pt x="562" y="1492" on="0"/>
        <pt x="573" y="1492" on="1"/>
        <pt x="597" y="1492" on="0"/>
        <pt x="628" y="1488" on="0"/>
        <pt x="649" y="1476" on="1"/>
        <pt x="663" y="1468" on="0"/>
        <pt x="688" y="1396" on="0"/>
        <pt x="710" y="1286" on="0"/>
        <pt x="729" y="1147" on="0"/>
        <pt x="745" y="1000" on="0"/>
        <pt x="757" y="854" on="0"/>
        <pt x="765" y="730" on="0"/>
        <pt x="769" y="636" on="0"/>
        <pt x="769" y="614" on="1"/>
        <pt x="769" y="566" on="0"/>
        <pt x="764" y="448" on="0"/>
        <pt x="747" y="324" on="0"/>
        <pt x="716" y="201" on="0"/>
        <pt x="664" y="96" on="0"/>
        <pt x="587" y="18" on="0"/>
        <pt x="533" y="0" on="1"/>
        <pt x="521" y="-15" on="0"/>
        <pt x="491" y="-49" on="0"/>
        <pt x="465" y="-84" on="0"/>
        <pt x="448" y="-119" on="0"/>
        <pt x="448" y="-136" on="1"/>
        <pt x="448" y="-156" on="0"/>
        <pt x="484" y="-182" on="0"/>
        <pt x="502" y="-182" on="1"/>
        <pt x="515" y="-182" on="0"/>
        <pt x="538" y="-175" on="0"/>
        <pt x="558" y="-166" on="0"/>
        <pt x="575" y="-158" on="0"/>
        <pt x="582" y="-158" on="1"/>
        <pt x="600" y="-158" on="0"/>
        <pt x="616" y="-189" on="0"/>
      </contour>
    </TTGlyph>
    <TTGlyph name="Uring" xMin="89" yMin="-14" xMax="769" yMax="1725">
      <component glyphName="U" x="0" y="0" flags="0x204"/>
      <component glyphName="ring" x="258" y="389" flags="0x4"/>
    </TTGlyph>
    <TTGlyph name="Utilde" xMin="89" yMin="-14" xMax="769" yMax="1774">
      <component glyphName="U" x="0" y="0" flags="0x204"/>
      <component glyphName="tilde" x="180" y="486" flags="0x4"/>
    </TTGlyph>
    <TTGlyph name="V" xMin="7" yMin="-48" xMax="645" yMax="1478">
      <contour>
        <pt x="645" y="998" on="1"/>
        <pt x="645" y="761" on="0"/>
        <pt x="566" y="300" on="0"/>
        <pt x="473" y="80" on="1"/>
        <pt x="476" y="73" on="0"/>
        <pt x="488" y="47" on="0"/>
        <pt x="500" y="18" on="0"/>
        <pt x="509" y="-8" on="0"/>
        <pt x="509" y="-14" on="1"/>
        <pt x="509" y="-28" on="0"/>
        <pt x="493" y="-42" on="0"/>
        <pt x="469" y="-48" on="0"/>
        <pt x="444" y="-48" on="0"/>
        <pt x="435" y="-48" on="1"/>
        <pt x="409" y="-48" on="0"/>
        <pt x="369" y="-42" on="0"/>
        <pt x="349" y="-24" on="1"/>
        <pt x="335" y="-12" on="0"/>
        <pt x="298" y="85" on="0"/>
        <pt x="254" y="230" on="0"/>
        <pt x="207" y="412" on="0"/>
        <pt x="160" y="605" on="0"/>
        <pt x="116" y="796" on="0"/>
        <pt x="79" y="960" on="0"/>
        <pt x="52" y="1086" on="0"/>
        <pt x="45" y="1116" on="1"/>
        <pt x="34" y="1167" on="0"/>
        <pt x="7" y="1267" on="0"/>
        <pt x="7" y="1320" on="1"/>
        <pt x="7" y="1338" on="0"/>
        <pt x="33" y="1348" on="0"/>
        <pt x="47" y="1348" on="1"/>
        <pt x="76" y="1348" on="0"/>
        <pt x="128" y="1328" on="0"/>
        <pt x="143" y="1304" on="1"/>
        <pt x="151" y="1290" on="0"/>
        <pt x="160" y="1243" on="0"/>
        <pt x="163" y="1228" on="1"/>
        <pt x="195" y="1082" on="0"/>
        <pt x="263" y="793" on="0"/>
        <pt x="301" y="648" on="1"/>
        <pt x="325" y="557" on="0"/>
        <pt x="372" y="379" on="0"/>
        <pt x="401" y="290" on="1"/>
        <pt x="451" y="448" on="0"/>
        <pt x="493" y="778" on="0"/>
        <pt x="493" y="944" on="1"/>
        <pt x="493" y="970" on="0"/>
        <pt x="492" y="1048" on="0"/>
        <pt x="490" y="1137" on="0"/>
        <pt x="485" y="1231" on="0"/>
        <pt x="477" y="1317" on="0"/>
        <pt x="464" y="1390" on="0"/>
        <pt x="455" y="1412" on="1"/>
        <pt x="452" y="1420" on="0"/>
        <pt x="445" y="1433" on="0"/>
        <pt x="445" y="1442" on="1"/>
        <pt x="445" y="1454" on="0"/>
        <pt x="463" y="1468" on="0"/>
        <pt x="487" y="1476" on="0"/>
        <pt x="513" y="1478" on="0"/>
        <pt x="521" y="1478" on="1"/>
        <pt x="548" y="1478" on="0"/>
        <pt x="589" y="1467" on="0"/>
        <pt x="609" y="1446" on="1"/>
        <pt x="618" y="1437" on="0"/>
        <pt x="630" y="1373" on="0"/>
        <pt x="638" y="1285" on="0"/>
        <pt x="643" y="1184" on="0"/>
        <pt x="645" y="1090" on="0"/>
        <pt x="645" y="1016" on="0"/>
      </contour>
    </TTGlyph>
    <TTGlyph name="W" xMin="51" yMin="-52" xMax="953" yMax="1450">
      <contour>
        <pt x="953" y="1172" on="1"/>
        <pt x="953" y="1050" on="0"/>
        <pt x="949" y="806" on="0"/>
        <pt x="934" y="563" on="0"/>
        <pt x="906" y="321" on="0"/>
        <pt x="883" y="200" on="1"/>
        <pt x="867" y="120" on="1"/>
        <pt x="870" y="113" on="0"/>
        <pt x="885" y="82" on="0"/>
        <pt x="901" y="47" on="0"/>
        <pt x="913" y="17" on="0"/>
        <pt x="913" y="12" on="1"/>
        <pt x="913" y="-1" on="0"/>
        <pt x="892" y="-15" on="0"/>
        <pt x="864" y="-22" on="0"/>
        <pt x="834" y="-24" on="0"/>
        <pt x="825" y="-24" on="1"/>
        <pt x="814" y="-24" on="0"/>
        <pt x="794" y="-23" on="0"/>
        <pt x="785" y="-20" on="1"/>
        <pt x="762" y="-12" on="0"/>
        <pt x="746" y="8" on="0"/>
        <pt x="735" y="28" on="1"/>
        <pt x="693" y="108" on="0"/>
        <pt x="630" y="279" on="0"/>
        <pt x="582" y="456" on="0"/>
        <pt x="544" y="635" on="0"/>
        <pt x="527" y="724" on="1"/>
        <pt x="491" y="394" on="0"/>
        <pt x="413" y="70" on="1"/>
        <pt x="422" y="52" on="0"/>
        <pt x="445" y="9" on="0"/>
        <pt x="445" y="-12" on="1"/>
        <pt x="445" y="-26" on="0"/>
        <pt x="427" y="-42" on="0"/>
        <pt x="400" y="-48" on="0"/>
        <pt x="371" y="-49" on="0"/>
        <pt x="361" y="-48" on="1"/>
        <pt x="358" y="-50" on="0"/>
        <pt x="352" y="-52" on="0"/>
        <pt x="347" y="-52" on="1"/>
        <pt x="312" y="-52" on="0"/>
        <pt x="271" y="-10" on="0"/>
        <pt x="259" y="20" on="1"/>
        <pt x="224" y="111" on="0"/>
        <pt x="170" y="315" on="0"/>
        <pt x="130" y="525" on="0"/>
        <pt x="101" y="734" on="0"/>
        <pt x="91" y="832" on="1"/>
        <pt x="77" y="951" on="0"/>
        <pt x="51" y="1187" on="0"/>
        <pt x="51" y="1308" on="1"/>
        <pt x="51" y="1329" on="0"/>
        <pt x="63" y="1352" on="0"/>
        <pt x="87" y="1352" on="1"/>
        <pt x="124" y="1352" on="0"/>
        <pt x="165" y="1329" on="0"/>
        <pt x="186" y="1290" on="0"/>
        <pt x="193" y="1238" on="0"/>
        <pt x="195" y="1208" on="1"/>
        <pt x="215" y="986" on="0"/>
        <pt x="273" y="546" on="0"/>
        <pt x="327" y="330" on="1"/>
        <pt x="354" y="469" on="0"/>
        <pt x="383" y="748" on="0"/>
        <pt x="397" y="888" on="1"/>
        <pt x="400" y="925" on="0"/>
        <pt x="402" y="1001" on="0"/>
        <pt x="407" y="1078" on="0"/>
        <pt x="416" y="1154" on="0"/>
        <pt x="427" y="1190" on="1"/>
        <pt x="436" y="1222" on="0"/>
        <pt x="476" y="1256" on="0"/>
        <pt x="511" y="1256" on="1"/>
        <pt x="545" y="1256" on="0"/>
        <pt x="583" y="1226" on="0"/>
        <pt x="604" y="1181" on="0"/>
        <pt x="612" y="1125" on="0"/>
        <pt x="615" y="1100" on="1"/>
        <pt x="639" y="919" on="0"/>
        <pt x="716" y="565" on="0"/>
        <pt x="769" y="390" on="1"/>
        <pt x="789" y="545" on="0"/>
        <pt x="799" y="853" on="0"/>
        <pt x="799" y="1010" on="1"/>
        <pt x="799" y="1099" on="0"/>
        <pt x="796" y="1279" on="0"/>
        <pt x="785" y="1370" on="1"/>
        <pt x="785" y="1381" on="0"/>
        <pt x="781" y="1399" on="0"/>
        <pt x="781" y="1410" on="1"/>
        <pt x="781" y="1431" on="0"/>
        <pt x="807" y="1450" on="0"/>
        <pt x="827" y="1450" on="1"/>
        <pt x="840" y="1450" on="0"/>
        <pt x="871" y="1445" on="0"/>
        <pt x="902" y="1436" on="0"/>
        <pt x="929" y="1422" on="0"/>
        <pt x="937" y="1412" on="1"/>
        <pt x="941" y="1407" on="0"/>
        <pt x="946" y="1373" on="0"/>
        <pt x="950" y="1325" on="0"/>
        <pt x="952" y="1271" on="0"/>
        <pt x="953" y="1221" on="0"/>
        <pt x="953" y="1181" on="0"/>
      </contour>
    </TTGlyph>
    <TTGlyph name="Wacute" xMin="51" yMin="-52" xMax="953" yMax="1606">
      <component glyphName="W" x="0" y="0" flags="0x204"/>
      <component glyphName="acute" x="488" y="240" flags="0x4"/>
    </TTGlyph>
    <TTGlyph name="Wcircumflex" xMin="51" yMin="-52" xMax="953" yMax="1639">
      <component glyphName="W" x="0" y="0" flags="0x204"/>
      <component glyphName="circumflex" x="375" y="319" flags="0x4"/>
    </TTGlyph>
    <TTGlyph name="Wdieresis" xMin="51" yMin="-52" xMax="953" yMax="1499">
      <component glyphName="W" x="0" y="0" flags="0x204"/>
      <component glyphName="dieresis" x="314" y="165" flags="0x4"/>
    </TTGlyph>
    <TTGlyph name="Wgrave" xMin="51" yMin="-52" xMax="953" yMax="1588">
      <component glyphName="W" x="0" y="0" flags="0x204"/>
      <component glyphName="grave" x="288" y="222" flags="0x4"/>
    </TTGlyph>
    <TTGlyph name="X" xMin="20" yMin="-64" xMax="650" yMax="1466">
      <contour>
        <pt x="650" y="-30" on="1"/>
        <pt x="650" y="-42" on="0"/>
        <pt x="637" y="-56" on="0"/>
        <pt x="619" y="-62" on="0"/>
        <pt x="597" y="-64" on="0"/>
        <pt x="588" y="-64" on="1"/>
        <pt x="564" y="-64" on="0"/>
        <pt x="530" y="-63" on="0"/>
        <pt x="504" y="-51" on="0"/>
        <pt x="484" y="-26" on="0"/>
        <pt x="474" y="-2" on="1"/>
        <pt x="433" y="87" on="0"/>
        <pt x="372" y="274" on="0"/>
        <pt x="340" y="368" on="1"/>
        <pt x="314" y="300" on="0"/>
        <pt x="256" y="168" on="0"/>
        <pt x="226" y="102" on="1"/>
        <pt x="212" y="72" on="0"/>
        <pt x="188" y="11" on="0"/>
        <pt x="170" y="-18" on="1"/>
        <pt x="161" y="-32" on="0"/>
        <pt x="144" y="-48" on="0"/>
        <pt x="126" y="-48" on="1"/>
        <pt x="113" y="-48" on="0"/>
        <pt x="79" y="-34" on="0"/>
        <pt x="48" y="-11" on="0"/>
        <pt x="26" y="18" on="0"/>
        <pt x="26" y="32" on="1"/>
        <pt x="26" y="38" on="0"/>
        <pt x="46" y="88" on="0"/>
        <pt x="78" y="157" on="0"/>
        <pt x="115" y="238" on="0"/>
        <pt x="150" y="312" on="0"/>
        <pt x="177" y="371" on="0"/>
        <pt x="182" y="384" on="1"/>
        <pt x="206" y="440" on="0"/>
        <pt x="243" y="553" on="0"/>
        <pt x="260" y="610" on="1"/>
        <pt x="254" y="628" on="0"/>
        <pt x="228" y="708" on="0"/>
        <pt x="192" y="813" on="0"/>
        <pt x="150" y="935" on="0"/>
        <pt x="108" y="1060" on="0"/>
        <pt x="68" y="1177" on="0"/>
        <pt x="38" y="1271" on="0"/>
        <pt x="20" y="1333" on="0"/>
        <pt x="20" y="1340" on="1"/>
        <pt x="20" y="1349" on="0"/>
        <pt x="31" y="1359" on="0"/>
        <pt x="47" y="1365" on="0"/>
        <pt x="64" y="1366" on="0"/>
        <pt x="70" y="1366" on="1"/>
        <pt x="112" y="1366" on="0"/>
        <pt x="159" y="1330" on="0"/>
        <pt x="176" y="1294" on="1"/>
        <pt x="221" y="1194" on="0"/>
        <pt x="291" y="986" on="0"/>
        <pt x="326" y="882" on="1"/>
        <pt x="344" y="971" on="0"/>
        <pt x="379" y="1147" on="0"/>
        <pt x="394" y="1236" on="1"/>
        <pt x="398" y="1255" on="0"/>
        <pt x="406" y="1313" on="0"/>
        <pt x="415" y="1375" on="0"/>
        <pt x="426" y="1430" on="0"/>
        <pt x="434" y="1446" on="1"/>
        <pt x="439" y="1457" on="0"/>
        <pt x="450" y="1466" on="0"/>
        <pt x="464" y="1466" on="1"/>
        <pt x="480" y="1466" on="0"/>
        <pt x="514" y="1454" on="0"/>
        <pt x="541" y="1432" on="0"/>
        <pt x="558" y="1402" on="0"/>
        <pt x="558" y="1384" on="1"/>
        <pt x="558" y="1313" on="0"/>
        <pt x="528" y="1175" on="0"/>
        <pt x="516" y="1104" on="1"/>
        <pt x="493" y="979" on="0"/>
        <pt x="451" y="730" on="0"/>
        <pt x="418" y="608" on="1"/>
        <pt x="466" y="463" on="0"/>
        <pt x="566" y="179" on="0"/>
        <pt x="626" y="40" on="1"/>
        <pt x="634" y="23" on="0"/>
        <pt x="650" y="-10" on="0"/>
      </contour>
    </TTGlyph>
    <TTGlyph name="Y" xMin="-15" yMin="-10" xMax="583" yMax="1510">
      <contour>
        <pt x="583" y="1434" on="1"/>
        <pt x="583" y="1413" on="0"/>
        <pt x="557" y="1302" on="0"/>
        <pt x="517" y="1155" on="0"/>
        <pt x="467" y="990" on="0"/>
        <pt x="419" y="839" on="0"/>
        <pt x="379" y="721" on="0"/>
        <pt x="369" y="694" on="1"/>
        <pt x="380" y="605" on="0"/>
        <pt x="388" y="429" on="0"/>
        <pt x="393" y="340" on="1"/>
        <pt x="398" y="265" on="0"/>
        <pt x="407" y="113" on="0"/>
        <pt x="407" y="38" on="1"/>
        <pt x="407" y="15" on="0"/>
        <pt x="384" y="-10" on="0"/>
        <pt x="361" y="-10" on="1"/>
        <pt x="352" y="-10" on="0"/>
        <pt x="322" y="-5" on="0"/>
        <pt x="291" y="4" on="0"/>
        <pt x="264" y="16" on="0"/>
        <pt x="259" y="22" on="1"/>
        <pt x="247" y="36" on="0"/>
        <pt x="241" y="61" on="0"/>
        <pt x="241" y="78" on="1"/>
        <pt x="241" y="233" on="0"/>
        <pt x="235" y="539" on="0"/>
        <pt x="235" y="694" on="1"/>
        <pt x="227" y="702" on="1"/>
        <pt x="221" y="711" on="0"/>
        <pt x="206" y="744" on="0"/>
        <pt x="191" y="780" on="0"/>
        <pt x="179" y="814" on="0"/>
        <pt x="175" y="824" on="1"/>
        <pt x="142" y="916" on="0"/>
        <pt x="84" y="1100" on="0"/>
        <pt x="51" y="1192" on="1"/>
        <pt x="46" y="1208" on="0"/>
        <pt x="24" y="1263" on="0"/>
        <pt x="2" y="1323" on="0"/>
        <pt x="-15" y="1376" on="0"/>
        <pt x="-15" y="1390" on="1"/>
        <pt x="-15" y="1401" on="0"/>
        <pt x="-3" y="1415" on="0"/>
        <pt x="15" y="1422" on="0"/>
        <pt x="35" y="1424" on="0"/>
        <pt x="43" y="1424" on="1"/>
        <pt x="69" y="1424" on="0"/>
        <pt x="114" y="1419" on="0"/>
        <pt x="137" y="1404" on="1"/>
        <pt x="143" y="1400" on="0"/>
        <pt x="169" y="1334" on="0"/>
        <pt x="201" y="1236" on="0"/>
        <pt x="236" y="1122" on="0"/>
        <pt x="266" y="1016" on="0"/>
        <pt x="290" y="934" on="0"/>
        <pt x="295" y="918" on="1"/>
        <pt x="328" y="1046" on="0"/>
        <pt x="395" y="1298" on="0"/>
        <pt x="419" y="1428" on="1"/>
        <pt x="421" y="1440" on="0"/>
        <pt x="426" y="1469" on="0"/>
        <pt x="435" y="1493" on="0"/>
        <pt x="453" y="1510" on="0"/>
        <pt x="469" y="1510" on="1"/>
        <pt x="482" y="1510" on="0"/>
        <pt x="521" y="1498" on="0"/>
        <pt x="557" y="1477" on="0"/>
        <pt x="583" y="1450" on="0"/>
      </contour>
    </TTGlyph>
    <TTGlyph name="Yacute" xMin="-15" yMin="-10" xMax="583" yMax="1746">
      <component glyphName="Y" x="0" y="0" flags="0x204"/>
      <component glyphName="acute" x="257" y="380" flags="0x4"/>
    </TTGlyph>
    <TTGlyph name="Ycircumflex" xMin="-15" yMin="-10" xMax="583" yMax="1802">
      <component glyphName="Y" x="0" y="0" flags="0x204"/>
      <component glyphName="circumflex" x="135" y="482" flags="0x4"/>
    </TTGlyph>
    <TTGlyph name="Ydieresis" xMin="-15" yMin="-10" xMax="583" yMax="1726">
      <component glyphName="Y" x="0" y="0" flags="0x204"/>
      <component glyphName="dieresis" x="87" y="392" flags="0x4"/>
    </TTGlyph>
    <TTGlyph name="Ygrave" xMin="-15" yMin="-10" xMax="583" yMax="1718">
      <component glyphName="Y" x="0" y="0" flags="0x204"/>
      <component glyphName="grave" x="76" y="352" flags="0x4"/>
    </TTGlyph>
    <TTGlyph name="Z" xMin="2" yMin="-20" xMax="626" yMax="1426">
      <contour>
        <pt x="626" y="112" on="1"/>
        <pt x="626" y="83" on="0"/>
        <pt x="597" y="33" on="0"/>
        <pt x="570" y="22" on="1"/>
        <pt x="561" y="18" on="0"/>
        <pt x="501" y="13" on="0"/>
        <pt x="417" y="9" on="0"/>
        <pt x="321" y="7" on="0"/>
        <pt x="233" y="6" on="0"/>
        <pt x="165" y="6" on="0"/>
        <pt x="150" y="6" on="1"/>
        <pt x="144" y="-5" on="0"/>
        <pt x="122" y="-20" on="0"/>
        <pt x="108" y="-20" on="1"/>
        <pt x="95" y="-20" on="0"/>
        <pt x="59" y="-7" on="0"/>
        <pt x="26" y="15" on="0"/>
        <pt x="2" y="43" on="0"/>
        <pt x="2" y="58" on="1"/>
        <pt x="2" y="71" on="0"/>
        <pt x="14" y="113" on="0"/>
        <pt x="31" y="158" on="0"/>
        <pt x="47" y="202" on="0"/>
        <pt x="52" y="216" on="1"/>
        <pt x="252" y="800" on="1"/>
        <pt x="358" y="1106" on="1"/>
        <pt x="376" y="1157" on="0"/>
        <pt x="409" y="1260" on="0"/>
        <pt x="432" y="1310" on="1"/>
        <pt x="400" y="1308" on="0"/>
        <pt x="336" y="1306" on="0"/>
        <pt x="304" y="1306" on="1"/>
        <pt x="295" y="1306" on="0"/>
        <pt x="250" y="1306" on="0"/>
        <pt x="193" y="1307" on="0"/>
        <pt x="130" y="1308" on="0"/>
        <pt x="75" y="1311" on="0"/>
        <pt x="36" y="1315" on="0"/>
        <pt x="32" y="1318" on="1"/>
        <pt x="18" y="1325" on="0"/>
        <pt x="18" y="1340" on="1"/>
        <pt x="18" y="1369" on="0"/>
        <pt x="56" y="1402" on="0"/>
        <pt x="110" y="1418" on="0"/>
        <pt x="169" y="1422" on="0"/>
        <pt x="190" y="1422" on="1"/>
        <pt x="214" y="1422" on="0"/>
        <pt x="262" y="1418" on="0"/>
        <pt x="286" y="1418" on="1"/>
        <pt x="336" y="1418" on="0"/>
        <pt x="434" y="1426" on="0"/>
        <pt x="482" y="1426" on="1"/>
        <pt x="499" y="1426" on="0"/>
        <pt x="539" y="1419" on="0"/>
        <pt x="572" y="1402" on="0"/>
        <pt x="594" y="1374" on="0"/>
        <pt x="594" y="1352" on="1"/>
        <pt x="594" y="1334" on="0"/>
        <pt x="580" y="1305" on="0"/>
        <pt x="572" y="1288" on="1"/>
        <pt x="537" y="1203" on="0"/>
        <pt x="483" y="1032" on="0"/>
        <pt x="454" y="946" on="1"/>
        <pt x="385" y="739" on="0"/>
        <pt x="254" y="328" on="0"/>
        <pt x="186" y="120" on="1"/>
        <pt x="227" y="122" on="0"/>
        <pt x="309" y="125" on="0"/>
        <pt x="350" y="128" on="1"/>
        <pt x="407" y="133" on="0"/>
        <pt x="521" y="150" on="0"/>
        <pt x="580" y="150" on="1"/>
        <pt x="598" y="150" on="0"/>
        <pt x="626" y="133" on="0"/>
      </contour>
    </TTGlyph>
    <TTGlyph name="Zacute" xMin="2" yMin="-20" xMax="626" yMax="1731">
      <component glyphName="Z" x="0" y="0" flags="0x204"/>
      <component glyphName="acute" x="298" y="365" flags="0x4"/>
    </TTGlyph>
    <TTGlyph name="Zcaron" xMin="2" yMin="-20" xMax="626" yMax="1796">
      <component glyphName="Z" x="0" y="0" flags="0x204"/>
      <component glyphName="caron" x="164" y="466" flags="0x4"/>
    </TTGlyph>
    <TTGlyph name="Zdotaccent" xMin="2" yMin="-20" xMax="626" yMax="1639">
      <component glyphName="Z" x="0" y="0" flags="0x204"/>
      <component glyphName="dotaccent" x="271" y="305" flags="0x4"/>
    </TTGlyph>
    <TTGlyph name="a" xMin="13" yMin="-22" xMax="474" yMax="811">
      <contour>
        <pt x="474" y="13" on="1"/>
        <pt x="474" y="-7" on="0"/>
        <pt x="454" y="-22" on="0"/>
        <pt x="436" y="-22" on="1"/>
        <pt x="389" y="-22" on="0"/>
        <pt x="348" y="28" on="0"/>
        <pt x="338" y="69" on="1"/>
        <pt x="335" y="83" on="0"/>
        <pt x="329" y="112" on="0"/>
        <pt x="327" y="126" on="1"/>
        <pt x="325" y="139" on="0"/>
        <pt x="321" y="149" on="0"/>
        <pt x="319" y="163" on="1"/>
        <pt x="307" y="134" on="0"/>
        <pt x="272" y="71" on="0"/>
        <pt x="226" y="18" on="0"/>
        <pt x="169" y="-16" on="0"/>
        <pt x="135" y="-16" on="1"/>
        <pt x="99" y="-16" on="0"/>
        <pt x="51" y="19" on="0"/>
        <pt x="24" y="72" on="0"/>
        <pt x="13" y="136" on="0"/>
        <pt x="13" y="165" on="1"/>
        <pt x="13" y="233" on="0"/>
        <pt x="40" y="392" on="0"/>
        <pt x="88" y="551" on="0"/>
        <pt x="152" y="698" on="0"/>
        <pt x="190" y="753" on="1"/>
        <pt x="190" y="752" on="1"/>
        <pt x="196" y="761" on="1"/>
        <pt x="207" y="776" on="0"/>
        <pt x="236" y="811" on="0"/>
        <pt x="256" y="811" on="1"/>
        <pt x="275" y="811" on="0"/>
        <pt x="303" y="778" on="0"/>
        <pt x="309" y="760" on="1"/>
        <pt x="335" y="755" on="0"/>
        <pt x="367" y="740" on="0"/>
        <pt x="385" y="718" on="0"/>
        <pt x="391" y="689" on="0"/>
        <pt x="391" y="672" on="1"/>
        <pt x="391" y="665" on="0"/>
        <pt x="391" y="649" on="0"/>
        <pt x="390" y="641" on="1"/>
        <pt x="389" y="633" on="0"/>
        <pt x="389" y="611" on="0"/>
        <pt x="389" y="602" on="1"/>
        <pt x="389" y="592" on="0"/>
        <pt x="396" y="560" on="0"/>
        <pt x="400" y="543" on="1"/>
        <pt x="407" y="506" on="1"/>
        <pt x="412" y="477" on="0"/>
        <pt x="419" y="403" on="0"/>
        <pt x="424" y="366" on="1"/>
        <pt x="428" y="328" on="0"/>
        <pt x="436" y="257" on="0"/>
        <pt x="440" y="227" on="1"/>
        <pt x="464" y="79" on="1"/>
        <pt x="467" y="62" on="1"/>
        <pt x="469" y="49" on="0"/>
        <pt x="474" y="27" on="0"/>
      </contour>
      <contour>
        <pt x="245" y="588" on="1"/>
        <pt x="245" y="590" on="0"/>
        <pt x="243" y="599" on="0"/>
        <pt x="242" y="604" on="1"/>
        <pt x="219" y="555" on="0"/>
        <pt x="184" y="440" on="0"/>
        <pt x="161" y="321" on="0"/>
        <pt x="150" y="202" on="0"/>
        <pt x="150" y="149" on="1"/>
        <pt x="150" y="144" on="0"/>
        <pt x="150" y="136" on="0"/>
        <pt x="151" y="132" on="1"/>
        <pt x="151" y="131" on="1"/>
        <pt x="175" y="168" on="0"/>
        <pt x="210" y="289" on="0"/>
        <pt x="234" y="422" on="0"/>
        <pt x="245" y="547" on="0"/>
      </contour>
    </TTGlyph>
    <TTGlyph name="aacute" xMin="13" yMin="-22" xMax="525" yMax="1145">
      <component glyphName="a" x="0" y="0" flags="0x204"/>
      <component glyphName="acute" x="261" y="-221" flags="0x4"/>
    </TTGlyph>
    <TTGlyph name="abreve" xMin="13" yMin="-22" xMax="474" yMax="1139">
      <component glyphName="a" x="0" y="0" flags="0x204"/>
      <component glyphName="breve" x="136" y="-157" flags="0x4"/>
    </TTGlyph>
    <TTGlyph name="acircumflex" xMin="13" yMin="-22" xMax="474" yMax="1139">
      <component glyphName="a" x="0" y="0" flags="0x204"/>
      <component glyphName="circumflex" x="117" y="-181" flags="0x4"/>
    </TTGlyph>
    <TTGlyph name="acute" xMin="-30" yMin="1112" xMax="264" yMax="1366">
      <contour>
        <pt x="-30" y="1162" on="1"/>
        <pt x="-30" y="1172" on="0"/>
        <pt x="-13" y="1196" on="0"/>
        <pt x="10" y="1218" on="0"/>
        <pt x="34" y="1237" on="0"/>
        <pt x="42" y="1244" on="1"/>
        <pt x="140" y="1334" on="1"/>
        <pt x="152" y="1343" on="0"/>
        <pt x="179" y="1366" on="0"/>
        <pt x="194" y="1366" on="1"/>
        <pt x="204" y="1366" on="0"/>
        <pt x="229" y="1351" on="0"/>
        <pt x="250" y="1330" on="0"/>
        <pt x="264" y="1304" on="0"/>
        <pt x="264" y="1294" on="1"/>
        <pt x="264" y="1292" on="0"/>
        <pt x="264" y="1288" on="0"/>
        <pt x="262" y="1286" on="1"/>
        <pt x="259" y="1274" on="0"/>
        <pt x="241" y="1256" on="0"/>
        <pt x="230" y="1248" on="1"/>
        <pt x="199" y="1223" on="0"/>
        <pt x="166" y="1198" on="0"/>
        <pt x="138" y="1177" on="0"/>
        <pt x="103" y="1153" on="0"/>
        <pt x="72" y="1130" on="1"/>
        <pt x="61" y="1122" on="0"/>
        <pt x="40" y="1112" on="0"/>
        <pt x="28" y="1112" on="1"/>
        <pt x="19" y="1112" on="0"/>
        <pt x="-1" y="1120" on="0"/>
        <pt x="-19" y="1134" on="0"/>
        <pt x="-30" y="1152" on="0"/>
      </contour>
    </TTGlyph>
    <TTGlyph name="adieresis" xMin="13" yMin="-22" xMax="474" yMax="1015">
      <component glyphName="a" x="0" y="0" flags="0x204"/>
      <component glyphName="dieresis" x="73" y="-319" flags="0x4"/>
    </TTGlyph>
    <TTGlyph name="ae" xMin="11" yMin="-18" xMax="753" yMax="771">
      <contour>
        <pt x="753" y="183" on="1"/>
        <pt x="753" y="180" on="0"/>
        <pt x="752" y="174" on="0"/>
        <pt x="750" y="169" on="1"/>
        <pt x="751" y="169" on="1"/>
        <pt x="740" y="135" on="0"/>
        <pt x="689" y="68" on="0"/>
        <pt x="622" y="15" on="0"/>
        <pt x="545" y="-18" on="0"/>
        <pt x="508" y="-18" on="1"/>
        <pt x="468" y="-18" on="0"/>
        <pt x="406" y="11" on="0"/>
        <pt x="359" y="60" on="0"/>
        <pt x="326" y="123" on="0"/>
        <pt x="316" y="158" on="1"/>
        <pt x="304" y="130" on="0"/>
        <pt x="269" y="68" on="0"/>
        <pt x="224" y="17" on="0"/>
        <pt x="167" y="-16" on="0"/>
        <pt x="133" y="-16" on="1"/>
        <pt x="97" y="-16" on="0"/>
        <pt x="49" y="19" on="0"/>
        <pt x="22" y="72" on="0"/>
        <pt x="11" y="136" on="0"/>
        <pt x="11" y="165" on="1"/>
        <pt x="11" y="233" on="0"/>
        <pt x="39" y="379" on="0"/>
        <pt x="87" y="523" on="0"/>
        <pt x="151" y="658" on="0"/>
        <pt x="188" y="714" on="1"/>
        <pt x="193" y="723" on="0"/>
        <pt x="207" y="743" on="0"/>
        <pt x="224" y="760" on="0"/>
        <pt x="243" y="771" on="0"/>
        <pt x="253" y="771" on="1"/>
        <pt x="274" y="771" on="0"/>
        <pt x="302" y="740" on="0"/>
        <pt x="307" y="722" on="1"/>
        <pt x="323" y="719" on="0"/>
        <pt x="356" y="706" on="0"/>
        <pt x="369" y="695" on="1"/>
        <pt x="391" y="726" on="0"/>
        <pt x="451" y="763" on="0"/>
        <pt x="491" y="763" on="1"/>
        <pt x="523" y="763" on="0"/>
        <pt x="574" y="737" on="0"/>
        <pt x="609" y="694" on="0"/>
        <pt x="628" y="638" on="0"/>
        <pt x="628" y="608" on="1"/>
        <pt x="628" y="569" on="0"/>
        <pt x="592" y="477" on="0"/>
        <pt x="534" y="392" on="0"/>
        <pt x="463" y="322" on="0"/>
        <pt x="428" y="305" on="1"/>
        <pt x="430" y="285" on="0"/>
        <pt x="443" y="216" on="0"/>
        <pt x="464" y="149" on="0"/>
        <pt x="494" y="99" on="0"/>
        <pt x="512" y="99" on="1"/>
        <pt x="524" y="99" on="0"/>
        <pt x="554" y="122" on="0"/>
        <pt x="581" y="155" on="0"/>
        <pt x="602" y="189" on="0"/>
        <pt x="607" y="200" on="1"/>
        <pt x="609" y="204" on="0"/>
        <pt x="611" y="206" on="1"/>
        <pt x="612" y="207" on="1"/>
        <pt x="619" y="220" on="0"/>
        <pt x="632" y="242" on="0"/>
        <pt x="644" y="250" on="1"/>
        <pt x="643" y="250" on="1"/>
        <pt x="647" y="254" on="0"/>
        <pt x="655" y="255" on="0"/>
        <pt x="661" y="255" on="1"/>
        <pt x="672" y="255" on="0"/>
        <pt x="703" y="241" on="0"/>
        <pt x="732" y="220" on="0"/>
        <pt x="753" y="195" on="0"/>
      </contour>
      <contour>
        <pt x="243" y="549" on="1"/>
        <pt x="243" y="551" on="0"/>
        <pt x="241" y="560" on="0"/>
        <pt x="240" y="565" on="1"/>
        <pt x="194" y="468" on="0"/>
        <pt x="148" y="258" on="0"/>
        <pt x="148" y="149" on="1"/>
        <pt x="148" y="144" on="0"/>
        <pt x="148" y="136" on="0"/>
        <pt x="149" y="132" on="1"/>
        <pt x="149" y="130" on="1"/>
        <pt x="173" y="165" on="0"/>
        <pt x="208" y="274" on="0"/>
        <pt x="232" y="392" on="0"/>
        <pt x="243" y="507" on="0"/>
      </contour>
      <contour>
        <pt x="496" y="604" on="1"/>
        <pt x="496" y="614" on="0"/>
        <pt x="494" y="636" on="0"/>
        <pt x="490" y="645" on="1"/>
        <pt x="476" y="628" on="0"/>
        <pt x="456" y="582" on="0"/>
        <pt x="443" y="530" on="0"/>
        <pt x="433" y="478" on="0"/>
        <pt x="430" y="455" on="1"/>
        <pt x="456" y="486" on="0"/>
        <pt x="496" y="565" on="0"/>
      </contour>
    </TTGlyph>
    <TTGlyph name="aeacute" xMin="11" yMin="-18" xMax="753" yMax="1060">
      <component glyphName="ae" x="0" y="0" flags="0x204"/>
      <component glyphName="acute" x="368" y="-306" flags="0x4"/>
    </TTGlyph>
    <TTGlyph name="agrave" xMin="13" yMin="-22" xMax="474" yMax="1131">
      <component glyphName="a" x="0" y="0" flags="0x204"/>
      <component glyphName="grave" x="51" y="-235" flags="0x4"/>
    </TTGlyph>
    <TTGlyph name="amacron" xMin="13" yMin="-22" xMax="474" yMax="1002">
      <component glyphName="a" x="0" y="0" flags="0x204"/>
      <component glyphName="macron" x="74" y="-236" flags="0x4"/>
    </TTGlyph>
    <TTGlyph name="ampersand" xMin="21" yMin="-4" xMax="599" yMax="1364">
      <contour>
        <pt x="339" y="198" on="1"/>
        <pt x="301" y="272" on="0"/>
        <pt x="234" y="422" on="0"/>
        <pt x="207" y="500" on="1"/>
        <pt x="189" y="440" on="0"/>
        <pt x="159" y="309" on="0"/>
        <pt x="159" y="246" on="1"/>
        <pt x="159" y="232" on="0"/>
        <pt x="163" y="187" on="0"/>
        <pt x="175" y="145" on="0"/>
        <pt x="199" y="114" on="0"/>
        <pt x="219" y="114" on="1"/>
        <pt x="235" y="114" on="0"/>
        <pt x="269" y="132" on="0"/>
        <pt x="301" y="158" on="0"/>
        <pt x="329" y="187" on="0"/>
      </contour>
      <contour>
        <pt x="237" y="1002" on="1"/>
        <pt x="245" y="1027" on="0"/>
        <pt x="262" y="1081" on="0"/>
        <pt x="276" y="1138" on="0"/>
        <pt x="285" y="1195" on="0"/>
        <pt x="285" y="1222" on="1"/>
        <pt x="285" y="1230" on="0"/>
        <pt x="282" y="1246" on="0"/>
        <pt x="277" y="1254" on="1"/>
        <pt x="272" y="1256" on="0"/>
        <pt x="266" y="1256" on="0"/>
        <pt x="263" y="1256" on="1"/>
        <pt x="257" y="1256" on="1"/>
        <pt x="249" y="1245" on="0"/>
        <pt x="241" y="1213" on="0"/>
        <pt x="236" y="1177" on="0"/>
        <pt x="235" y="1143" on="0"/>
        <pt x="235" y="1130" on="1"/>
        <pt x="235" y="1092" on="1"/>
        <pt x="235" y="1069" on="0"/>
        <pt x="235" y="1025" on="0"/>
      </contour>
      <contour>
        <pt x="599" y="492" on="1"/>
        <pt x="599" y="454" on="0"/>
        <pt x="580" y="369" on="0"/>
        <pt x="549" y="285" on="0"/>
        <pt x="509" y="207" on="0"/>
        <pt x="487" y="176" on="1"/>
        <pt x="491" y="168" on="0"/>
        <pt x="519" y="122" on="0"/>
        <pt x="548" y="72" on="0"/>
        <pt x="571" y="29" on="0"/>
        <pt x="571" y="24" on="1"/>
        <pt x="571" y="15" on="0"/>
        <pt x="558" y="4" on="0"/>
        <pt x="540" y="-2" on="0"/>
        <pt x="520" y="-4" on="0"/>
        <pt x="513" y="-4" on="1"/>
        <pt x="490" y="-4" on="0"/>
        <pt x="458" y="9" on="0"/>
        <pt x="434" y="31" on="0"/>
        <pt x="414" y="62" on="0"/>
        <pt x="403" y="80" on="1"/>
        <pt x="364" y="45" on="0"/>
        <pt x="270" y="0" on="0"/>
        <pt x="217" y="0" on="1"/>
        <pt x="162" y="0" on="0"/>
        <pt x="87" y="40" on="0"/>
        <pt x="41" y="108" on="0"/>
        <pt x="21" y="196" on="0"/>
        <pt x="21" y="244" on="1"/>
        <pt x="21" y="303" on="0"/>
        <pt x="44" y="431" on="0"/>
        <pt x="80" y="560" on="0"/>
        <pt x="123" y="683" on="0"/>
        <pt x="143" y="738" on="1"/>
        <pt x="125" y="833" on="0"/>
        <pt x="103" y="1029" on="0"/>
        <pt x="103" y="1126" on="1"/>
        <pt x="103" y="1168" on="0"/>
        <pt x="112" y="1253" on="0"/>
        <pt x="145" y="1321" on="0"/>
        <pt x="208" y="1364" on="0"/>
        <pt x="261" y="1364" on="1"/>
        <pt x="295" y="1364" on="0"/>
        <pt x="353" y="1344" on="0"/>
        <pt x="395" y="1306" on="0"/>
        <pt x="419" y="1251" on="0"/>
        <pt x="419" y="1216" on="1"/>
        <pt x="419" y="1160" on="0"/>
        <pt x="389" y="1031" on="0"/>
        <pt x="345" y="898" on="0"/>
        <pt x="296" y="770" on="0"/>
        <pt x="277" y="716" on="1"/>
        <pt x="300" y="613" on="0"/>
        <pt x="368" y="419" on="0"/>
        <pt x="413" y="322" on="1"/>
        <pt x="434" y="372" on="0"/>
        <pt x="453" y="470" on="0"/>
        <pt x="453" y="524" on="1"/>
        <pt x="453" y="544" on="0"/>
        <pt x="468" y="568" on="0"/>
        <pt x="491" y="568" on="1"/>
        <pt x="509" y="568" on="0"/>
        <pt x="547" y="559" on="0"/>
        <pt x="579" y="541" on="0"/>
        <pt x="599" y="512" on="0"/>
      </contour>
    </TTGlyph>
    <TTGlyph name="aogonek" xMin="13" yMin="-297" xMax="520" yMax="811">
      <contour>
        <pt x="520" y="-241" on="1"/>
        <pt x="520" y="-257" on="0"/>
        <pt x="491" y="-278" on="0"/>
        <pt x="452" y="-291" on="0"/>
        <pt x="412" y="-297" on="0"/>
        <pt x="400" y="-297" on="1"/>
        <pt x="373" y="-297" on="0"/>
        <pt x="318" y="-278" on="0"/>
        <pt x="274" y="-244" on="0"/>
        <pt x="246" y="-196" on="0"/>
        <pt x="246" y="-167" on="1"/>
        <pt x="246" y="-143" on="0"/>
        <pt x="265" y="-89" on="0"/>
        <pt x="295" y="-35" on="0"/>
        <pt x="332" y="13" on="0"/>
        <pt x="351" y="31" on="1"/>
        <pt x="347" y="39" on="0"/>
        <pt x="340" y="58" on="0"/>
        <pt x="338" y="69" on="1"/>
        <pt x="335" y="83" on="0"/>
        <pt x="329" y="112" on="0"/>
        <pt x="327" y="126" on="1"/>
        <pt x="325" y="139" on="0"/>
        <pt x="321" y="149" on="0"/>
        <pt x="319" y="163" on="1"/>
        <pt x="307" y="134" on="0"/>
        <pt x="272" y="71" on="0"/>
        <pt x="226" y="18" on="0"/>
        <pt x="169" y="-16" on="0"/>
        <pt x="135" y="-16" on="1"/>
        <pt x="99" y="-16" on="0"/>
        <pt x="51" y="19" on="0"/>
        <pt x="24" y="72" on="0"/>
        <pt x="13" y="136" on="0"/>
        <pt x="13" y="165" on="1"/>
        <pt x="13" y="233" on="0"/>
        <pt x="40" y="392" on="0"/>
        <pt x="88" y="551" on="0"/>
        <pt x="152" y="698" on="0"/>
        <pt x="190" y="753" on="1"/>
        <pt x="190" y="752" on="1"/>
        <pt x="196" y="761" on="1"/>
        <pt x="207" y="776" on="0"/>
        <pt x="236" y="811" on="0"/>
        <pt x="256" y="811" on="1"/>
        <pt x="275" y="811" on="0"/>
        <pt x="303" y="778" on="0"/>
        <pt x="309" y="760" on="1"/>
        <pt x="335" y="755" on="0"/>
        <pt x="367" y="740" on="0"/>
        <pt x="385" y="718" on="0"/>
        <pt x="391" y="689" on="0"/>
        <pt x="391" y="672" on="1"/>
        <pt x="391" y="665" on="0"/>
        <pt x="391" y="649" on="0"/>
        <pt x="390" y="641" on="1"/>
        <pt x="389" y="633" on="0"/>
        <pt x="389" y="611" on="0"/>
        <pt x="389" y="602" on="1"/>
        <pt x="389" y="592" on="0"/>
        <pt x="396" y="560" on="0"/>
        <pt x="400" y="543" on="1"/>
        <pt x="407" y="506" on="1"/>
        <pt x="412" y="477" on="0"/>
        <pt x="419" y="403" on="0"/>
        <pt x="424" y="366" on="1"/>
        <pt x="428" y="328" on="0"/>
        <pt x="436" y="257" on="0"/>
        <pt x="440" y="227" on="1"/>
        <pt x="464" y="79" on="1"/>
        <pt x="467" y="62" on="1"/>
        <pt x="469" y="49" on="0"/>
        <pt x="474" y="27" on="0"/>
        <pt x="474" y="13" on="1"/>
        <pt x="474" y="-16" on="0"/>
        <pt x="449" y="-21" on="1"/>
        <pt x="438" y="-38" on="0"/>
        <pt x="405" y="-75" on="0"/>
        <pt x="374" y="-114" on="0"/>
        <pt x="352" y="-154" on="0"/>
        <pt x="352" y="-173" on="1"/>
        <pt x="352" y="-193" on="0"/>
        <pt x="388" y="-219" on="0"/>
        <pt x="406" y="-219" on="1"/>
        <pt x="419" y="-219" on="0"/>
        <pt x="442" y="-212" on="0"/>
        <pt x="462" y="-203" on="0"/>
        <pt x="479" y="-195" on="0"/>
        <pt x="486" y="-195" on="1"/>
        <pt x="504" y="-195" on="0"/>
        <pt x="520" y="-226" on="0"/>
      </contour>
      <contour>
        <pt x="245" y="588" on="1"/>
        <pt x="245" y="590" on="0"/>
        <pt x="243" y="599" on="0"/>
        <pt x="242" y="604" on="1"/>
        <pt x="219" y="555" on="0"/>
        <pt x="184" y="440" on="0"/>
        <pt x="161" y="321" on="0"/>
        <pt x="150" y="202" on="0"/>
        <pt x="150" y="149" on="1"/>
        <pt x="150" y="144" on="0"/>
        <pt x="150" y="136" on="0"/>
        <pt x="151" y="132" on="1"/>
        <pt x="151" y="131" on="1"/>
        <pt x="175" y="168" on="0"/>
        <pt x="210" y="289" on="0"/>
        <pt x="234" y="422" on="0"/>
        <pt x="245" y="547" on="0"/>
      </contour>
    </TTGlyph>
    <TTGlyph name="approxequal" xMin="46" yMin="346" xMax="474" yMax="1168">
      <contour>
        <pt x="474" y="954" on="1"/>
        <pt x="474" y="920" on="0"/>
        <pt x="457" y="853" on="0"/>
        <pt x="421" y="799" on="0"/>
        <pt x="365" y="766" on="0"/>
        <pt x="326" y="766" on="1"/>
        <pt x="271" y="766" on="0"/>
        <pt x="220" y="823" on="0"/>
        <pt x="199" y="906" on="0"/>
        <pt x="193" y="999" on="0"/>
        <pt x="184" y="1036" on="1"/>
        <pt x="181" y="1042" on="0"/>
        <pt x="175" y="1062" on="0"/>
        <pt x="166" y="1062" on="1"/>
        <pt x="157" y="1062" on="0"/>
        <pt x="147" y="1050" on="0"/>
        <pt x="143" y="1032" on="0"/>
        <pt x="142" y="1014" on="0"/>
        <pt x="142" y="1008" on="1"/>
        <pt x="142" y="979" on="0"/>
        <pt x="152" y="923" on="0"/>
        <pt x="160" y="894" on="1"/>
        <pt x="163" y="882" on="0"/>
        <pt x="176" y="848" on="0"/>
        <pt x="176" y="836" on="1"/>
        <pt x="176" y="819" on="0"/>
        <pt x="152" y="810" on="0"/>
        <pt x="138" y="810" on="1"/>
        <pt x="111" y="810" on="0"/>
        <pt x="80" y="842" on="0"/>
        <pt x="72" y="866" on="1"/>
        <pt x="60" y="901" on="0"/>
        <pt x="46" y="976" on="0"/>
        <pt x="46" y="1014" on="1"/>
        <pt x="46" y="1042" on="0"/>
        <pt x="59" y="1094" on="0"/>
        <pt x="88" y="1135" on="0"/>
        <pt x="132" y="1160" on="0"/>
        <pt x="164" y="1160" on="1"/>
        <pt x="198" y="1160" on="0"/>
        <pt x="242" y="1135" on="0"/>
        <pt x="270" y="1094" on="0"/>
        <pt x="285" y="1041" on="0"/>
        <pt x="293" y="984" on="0"/>
        <pt x="299" y="928" on="0"/>
        <pt x="304" y="904" on="1"/>
        <pt x="306" y="895" on="0"/>
        <pt x="312" y="870" on="0"/>
        <pt x="326" y="870" on="1"/>
        <pt x="339" y="870" on="0"/>
        <pt x="355" y="888" on="0"/>
        <pt x="364" y="914" on="0"/>
        <pt x="366" y="942" on="0"/>
        <pt x="366" y="952" on="1"/>
        <pt x="366" y="991" on="0"/>
        <pt x="346" y="1047" on="0"/>
        <pt x="322" y="1087" on="0"/>
        <pt x="302" y="1115" on="0"/>
        <pt x="302" y="1126" on="1"/>
        <pt x="302" y="1135" on="0"/>
        <pt x="318" y="1150" on="0"/>
        <pt x="341" y="1162" on="0"/>
        <pt x="364" y="1168" on="0"/>
        <pt x="372" y="1168" on="1"/>
        <pt x="400" y="1168" on="0"/>
        <pt x="439" y="1117" on="0"/>
        <pt x="463" y="1048" on="0"/>
        <pt x="474" y="976" on="0"/>
      </contour>
      <contour>
        <pt x="474" y="534" on="1"/>
        <pt x="474" y="500" on="0"/>
        <pt x="457" y="433" on="0"/>
        <pt x="421" y="379" on="0"/>
        <pt x="365" y="346" on="0"/>
        <pt x="326" y="346" on="1"/>
        <pt x="271" y="346" on="0"/>
        <pt x="220" y="403" on="0"/>
        <pt x="199" y="486" on="0"/>
        <pt x="193" y="579" on="0"/>
        <pt x="184" y="616" on="1"/>
        <pt x="181" y="622" on="0"/>
        <pt x="175" y="642" on="0"/>
        <pt x="166" y="642" on="1"/>
        <pt x="157" y="642" on="0"/>
        <pt x="147" y="630" on="0"/>
        <pt x="143" y="612" on="0"/>
        <pt x="142" y="594" on="0"/>
        <pt x="142" y="588" on="1"/>
        <pt x="142" y="559" on="0"/>
        <pt x="152" y="503" on="0"/>
        <pt x="160" y="474" on="1"/>
        <pt x="163" y="462" on="0"/>
        <pt x="176" y="428" on="0"/>
        <pt x="176" y="416" on="1"/>
        <pt x="176" y="399" on="0"/>
        <pt x="152" y="390" on="0"/>
        <pt x="138" y="390" on="1"/>
        <pt x="111" y="390" on="0"/>
        <pt x="80" y="422" on="0"/>
        <pt x="72" y="446" on="1"/>
        <pt x="60" y="481" on="0"/>
        <pt x="46" y="556" on="0"/>
        <pt x="46" y="594" on="1"/>
        <pt x="46" y="622" on="0"/>
        <pt x="59" y="674" on="0"/>
        <pt x="88" y="715" on="0"/>
        <pt x="132" y="740" on="0"/>
        <pt x="164" y="740" on="1"/>
        <pt x="198" y="740" on="0"/>
        <pt x="242" y="715" on="0"/>
        <pt x="270" y="674" on="0"/>
        <pt x="285" y="621" on="0"/>
        <pt x="293" y="564" on="0"/>
        <pt x="299" y="507" on="0"/>
        <pt x="304" y="484" on="1"/>
        <pt x="306" y="475" on="0"/>
        <pt x="312" y="450" on="0"/>
        <pt x="326" y="450" on="1"/>
        <pt x="339" y="450" on="0"/>
        <pt x="355" y="468" on="0"/>
        <pt x="364" y="494" on="0"/>
        <pt x="366" y="522" on="0"/>
        <pt x="366" y="532" on="1"/>
        <pt x="366" y="571" on="0"/>
        <pt x="346" y="627" on="0"/>
        <pt x="322" y="667" on="0"/>
        <pt x="302" y="695" on="0"/>
        <pt x="302" y="706" on="1"/>
        <pt x="302" y="715" on="0"/>
        <pt x="318" y="730" on="0"/>
        <pt x="341" y="742" on="0"/>
        <pt x="364" y="748" on="0"/>
        <pt x="372" y="748" on="1"/>
        <pt x="400" y="748" on="0"/>
        <pt x="439" y="697" on="0"/>
        <pt x="463" y="628" on="0"/>
        <pt x="474" y="556" on="0"/>
      </contour>
    </TTGlyph>
    <TTGlyph name="aring" xMin="13" yMin="-22" xMax="474" yMax="1075">
      <component glyphName="a" x="0" y="0" flags="0x204"/>
      <component glyphName="ring" x="145" y="-261" flags="0x4"/>
    </TTGlyph>
    <TTGlyph name="asciicircum" xMin="-30" yMin="842" xMax="278" yMax="1356">
      <contour>
        <pt x="278" y="870" on="1"/>
        <pt x="278" y="853" on="0"/>
        <pt x="250" y="842" on="0"/>
        <pt x="238" y="842" on="1"/>
        <pt x="220" y="842" on="0"/>
        <pt x="179" y="855" on="0"/>
        <pt x="168" y="870" on="1"/>
        <pt x="165" y="873" on="0"/>
        <pt x="156" y="908" on="0"/>
        <pt x="144" y="956" on="0"/>
        <pt x="132" y="1013" on="0"/>
        <pt x="120" y="1065" on="0"/>
        <pt x="110" y="1105" on="0"/>
        <pt x="108" y="1114" on="1"/>
        <pt x="107" y="1108" on="0"/>
        <pt x="98" y="1069" on="0"/>
        <pt x="87" y="1017" on="0"/>
        <pt x="73" y="959" on="0"/>
        <pt x="61" y="909" on="0"/>
        <pt x="52" y="874" on="0"/>
        <pt x="50" y="872" on="1"/>
        <pt x="45" y="867" on="0"/>
        <pt x="38" y="860" on="0"/>
        <pt x="30" y="860" on="1"/>
        <pt x="19" y="860" on="0"/>
        <pt x="-3" y="873" on="0"/>
        <pt x="-20" y="892" on="0"/>
        <pt x="-30" y="915" on="0"/>
        <pt x="-30" y="926" on="1"/>
        <pt x="-30" y="929" on="0"/>
        <pt x="-18" y="989" on="0"/>
        <pt x="-1" y="1076" on="0"/>
        <pt x="19" y="1175" on="0"/>
        <pt x="37" y="1260" on="0"/>
        <pt x="50" y="1318" on="0"/>
        <pt x="50" y="1320" on="1"/>
        <pt x="59" y="1337" on="0"/>
        <pt x="84" y="1356" on="0"/>
        <pt x="104" y="1356" on="1"/>
        <pt x="119" y="1356" on="0"/>
        <pt x="140" y="1344" on="0"/>
        <pt x="155" y="1324" on="0"/>
        <pt x="164" y="1300" on="0"/>
        <pt x="168" y="1288" on="1"/>
        <pt x="173" y="1274" on="0"/>
        <pt x="193" y="1207" on="0"/>
        <pt x="218" y="1121" on="0"/>
        <pt x="243" y="1025" on="0"/>
        <pt x="264" y="942" on="0"/>
        <pt x="278" y="880" on="0"/>
      </contour>
    </TTGlyph>
    <TTGlyph name="asciitilde" xMin="17" yMin="566" xMax="445" yMax="968">
      <contour>
        <pt x="445" y="754" on="1"/>
        <pt x="445" y="720" on="0"/>
        <pt x="428" y="653" on="0"/>
        <pt x="392" y="599" on="0"/>
        <pt x="336" y="566" on="0"/>
        <pt x="297" y="566" on="1"/>
        <pt x="242" y="566" on="0"/>
        <pt x="191" y="623" on="0"/>
        <pt x="170" y="706" on="0"/>
        <pt x="164" y="799" on="0"/>
        <pt x="155" y="836" on="1"/>
        <pt x="152" y="842" on="0"/>
        <pt x="146" y="862" on="0"/>
        <pt x="137" y="862" on="1"/>
        <pt x="128" y="862" on="0"/>
        <pt x="118" y="850" on="0"/>
        <pt x="114" y="832" on="0"/>
        <pt x="113" y="814" on="0"/>
        <pt x="113" y="808" on="1"/>
        <pt x="113" y="779" on="0"/>
        <pt x="123" y="723" on="0"/>
        <pt x="131" y="694" on="1"/>
        <pt x="134" y="682" on="0"/>
        <pt x="147" y="648" on="0"/>
        <pt x="147" y="636" on="1"/>
        <pt x="147" y="619" on="0"/>
        <pt x="123" y="610" on="0"/>
        <pt x="109" y="610" on="1"/>
        <pt x="82" y="610" on="0"/>
        <pt x="51" y="642" on="0"/>
        <pt x="43" y="666" on="1"/>
        <pt x="31" y="701" on="0"/>
        <pt x="17" y="776" on="0"/>
        <pt x="17" y="814" on="1"/>
        <pt x="17" y="842" on="0"/>
        <pt x="30" y="894" on="0"/>
        <pt x="59" y="935" on="0"/>
        <pt x="103" y="960" on="0"/>
        <pt x="135" y="960" on="1"/>
        <pt x="169" y="960" on="0"/>
        <pt x="213" y="935" on="0"/>
        <pt x="241" y="894" on="0"/>
        <pt x="256" y="841" on="0"/>
        <pt x="264" y="784" on="0"/>
        <pt x="270" y="727" on="0"/>
        <pt x="275" y="704" on="1"/>
        <pt x="277" y="695" on="0"/>
        <pt x="283" y="670" on="0"/>
        <pt x="297" y="670" on="1"/>
        <pt x="310" y="670" on="0"/>
        <pt x="326" y="688" on="0"/>
        <pt x="335" y="714" on="0"/>
        <pt x="337" y="742" on="0"/>
        <pt x="337" y="752" on="1"/>
        <pt x="337" y="791" on="0"/>
        <pt x="317" y="847" on="0"/>
        <pt x="293" y="887" on="0"/>
        <pt x="273" y="915" on="0"/>
        <pt x="273" y="926" on="1"/>
        <pt x="273" y="935" on="0"/>
        <pt x="289" y="950" on="0"/>
        <pt x="312" y="962" on="0"/>
        <pt x="335" y="968" on="0"/>
        <pt x="343" y="968" on="1"/>
        <pt x="371" y="968" on="0"/>
        <pt x="410" y="917" on="0"/>
        <pt x="434" y="848" on="0"/>
        <pt x="445" y="776" on="0"/>
      </contour>
    </TTGlyph>
</ttFont>
